<svg width="16" height="14" viewBox="0 0 16 14" fill="none" xmlns="http://www.w3.org/2000/svg">
<path d="M4.26733 4.64163H14.8403M6.62341 11.0696C6.87752 11.0696 7.12586 11.145 7.33716 11.2861C7.54845 11.4273 7.71314 11.6279 7.81042 11.8626C7.90771 12.0974 7.93329 12.3557 7.88379 12.6049C7.83429 12.8542 7.71196 13.0832 7.53235 13.2629C7.35274 13.4427 7.12383 13.5651 6.87463 13.6148C6.62543 13.6645 6.36714 13.6392 6.13232 13.5421C5.8975 13.445 5.69674 13.2804 5.55542 13.0693C5.4141 12.8581 5.33858 12.6097 5.33838 12.3556C5.33838 12.0147 5.47377 11.6878 5.71472 11.4466C5.95568 11.2055 6.28252 11.0699 6.62341 11.0696V11.0696ZM11.5684 11.0696C11.8225 11.0696 12.0709 11.145 12.2822 11.2861C12.4935 11.4273 12.6582 11.6279 12.7555 11.8626C12.8528 12.0974 12.8782 12.3557 12.8287 12.6049C12.7792 12.8542 12.6569 13.0832 12.4773 13.2629C12.2977 13.4427 12.0689 13.5651 11.8197 13.6148C11.5705 13.6645 11.3121 13.6392 11.0773 13.5421C10.8425 13.445 10.6417 13.2804 10.5004 13.0693C10.359 12.8581 10.2835 12.6097 10.2833 12.3556C10.2833 12.0147 10.4187 11.6878 10.6597 11.4466C10.9006 11.2055 11.2275 11.0699 11.5684 11.0696V11.0696ZM0.320312 0.890625H2.93335L5.35437 8.80262H13.4543L0.320312 0.890625ZM4.89136 6.72362H14.3054H4.89136Z" stroke="#1A1A1A" stroke-width="0.606" stroke-linecap="round" stroke-linejoin="round"/>
</svg>
