<svg width="65" height="70" viewBox="0 0 65 70" fill="none" xmlns="http://www.w3.org/2000/svg">
<path d="M16.5781 4.44887C16.7622 4.4654 16.9393 4.52803 17.0928 4.63097C17.2462 4.73391 17.3714 4.87384 17.4565 5.03786C17.593 5.26511 17.6466 5.53254 17.6084 5.79485C17.5656 6.05804 17.4335 6.29849 17.2344 6.47585C17.5302 6.36246 17.8566 6.35821 18.1553 6.46386C18.447 6.5786 18.6877 6.79488 18.8325 7.07287C18.9388 7.24577 19.0002 7.44239 19.0117 7.64504C19.0232 7.84769 18.9845 8.05004 18.8984 8.23388C18.6734 8.67542 18.3116 9.03245 17.8672 9.25185L15.8115 10.4119L13.2734 5.91186L15.2734 4.78487C15.6616 4.53677 16.1184 4.41906 16.5781 4.44887V4.44887ZM16.7065 6.20586C16.7412 6.12235 16.755 6.03175 16.7476 5.94164C16.7401 5.85153 16.7115 5.76451 16.6636 5.68786C16.6237 5.60917 16.5649 5.54151 16.4927 5.49077C16.4205 5.44004 16.3371 5.40779 16.2495 5.39687C16.0372 5.38278 15.8261 5.43938 15.6494 5.55785L14.5571 6.17385L15.1733 7.26687L16.2666 6.64986C16.4597 6.55452 16.6147 6.39662 16.7065 6.20186V6.20586ZM17.9004 8.04787C17.947 7.95753 17.9695 7.8567 17.9658 7.75512C17.9621 7.65353 17.9324 7.5546 17.8794 7.46786C17.8326 7.38107 17.7641 7.30786 17.6807 7.2553C17.5973 7.20274 17.5018 7.17262 17.4033 7.16787C17.1443 7.1619 16.8897 7.23594 16.6743 7.37987L15.5825 7.99587L16.2524 9.18386L17.3442 8.56786C17.5804 8.45754 17.7755 8.27512 17.9014 8.04687L17.9004 8.04787Z" fill="white" stroke="white" stroke-width="0.3"/>
<path d="M21.8825 3.76425C22.3511 4.04646 22.6983 4.49262 22.8566 5.01624C22.9016 5.13524 22.9323 5.22623 22.9513 5.28723L20.2213 6.30624C20.3575 6.53418 20.5715 6.70517 20.8239 6.78769C21.0762 6.87021 21.3499 6.8587 21.5944 6.75525C21.7798 6.68623 21.9497 6.58119 22.0944 6.44623C22.2393 6.31308 22.3543 6.1509 22.4323 5.97025L23.1042 6.29324C22.9936 6.5683 22.8228 6.81502 22.6042 7.01523C22.367 7.23507 22.0884 7.40509 21.7843 7.51523C21.44 7.65149 21.0668 7.69864 20.6994 7.65225C20.3612 7.60706 20.0435 7.46421 19.7853 7.24124C19.5168 6.99604 19.3109 6.69029 19.1842 6.3494C19.0576 6.0085 19.0139 5.64231 19.0573 5.28125C19.1069 4.94234 19.2515 4.62439 19.4743 4.36423C19.7134 4.09128 20.0191 3.88465 20.3615 3.76425C20.5996 3.65323 20.859 3.5957 21.1217 3.5957C21.3845 3.5957 21.6443 3.65323 21.8825 3.76425V3.76425ZM21.9113 4.99023C21.867 4.86896 21.7987 4.75784 21.7106 4.66351C21.6225 4.56919 21.5166 4.49361 21.3986 4.44125C21.1522 4.35601 20.8835 4.35927 20.6393 4.45053C20.3951 4.54179 20.1903 4.71533 20.0602 4.94125C19.9403 5.18156 19.9105 5.45686 19.9762 5.71725L21.9113 4.99023Z" fill="white" stroke="white" stroke-width="0.3"/>
<path d="M25.1939 3.21734C25.003 3.19917 24.8106 3.21029 24.6231 3.25033C24.4907 3.27392 24.3671 3.33265 24.2652 3.42034C24.2259 3.45565 24.1971 3.5013 24.1826 3.55206C24.1681 3.60282 24.1685 3.65662 24.1831 3.70733C24.1961 3.76574 24.2255 3.81917 24.2681 3.8612C24.3107 3.90324 24.3643 3.9321 24.4229 3.94433C24.6198 3.98998 24.8209 4.01547 25.023 4.02035C25.2636 4.03417 25.5029 4.06355 25.7398 4.10833C25.9334 4.1493 26.1153 4.23416 26.271 4.35635C26.4447 4.50226 26.5622 4.70417 26.603 4.92733C26.6493 5.09441 26.6521 5.27054 26.6113 5.43905C26.5706 5.60757 26.4877 5.76291 26.3701 5.89035C26.0973 6.17581 25.742 6.36881 25.354 6.44235C25.0592 6.51086 24.7554 6.53112 24.4541 6.50235C24.1708 6.48099 23.8948 6.40205 23.6431 6.27035L23.815 5.54135C24.0331 5.65388 24.2709 5.72412 24.5152 5.74835C24.7526 5.77724 24.9931 5.76641 25.2271 5.71633C25.3719 5.68988 25.5074 5.62612 25.6201 5.53134C25.6626 5.49427 25.6937 5.446 25.71 5.39206C25.7262 5.33811 25.7268 5.28069 25.7119 5.22634C25.6995 5.16362 25.6693 5.10578 25.625 5.05969C25.5807 5.0136 25.5241 4.9812 25.4619 4.96633C25.2544 4.91566 25.0426 4.88586 24.8291 4.87735C24.5993 4.86593 24.3704 4.83919 24.1441 4.79733C23.9605 4.75826 23.789 4.67561 23.6441 4.55633C23.4781 4.4152 23.3665 4.22078 23.3281 4.00634C23.2801 3.8409 23.274 3.66607 23.3111 3.49783C23.3481 3.32959 23.427 3.17331 23.5401 3.04333C23.7981 2.76522 24.138 2.57705 24.5108 2.50634C24.7647 2.44775 25.026 2.42586 25.2861 2.44134C25.5352 2.45291 25.7809 2.50352 26.0142 2.59133L25.832 3.34533C25.6251 3.27795 25.4108 3.235 25.1939 3.21734V3.21734Z" fill="white" stroke="white" stroke-width="0.3"/>
<path d="M29.8027 5.45602C29.53 5.67478 29.2015 5.81328 28.8545 5.85602C28.5518 5.90364 28.2426 5.83193 27.9917 5.65601C27.865 5.55486 27.7613 5.42791 27.6875 5.2836C27.6137 5.13929 27.5713 4.9809 27.5635 4.819L27.3315 2.88602L26.7827 2.95102L26.6914 2.25601L27.2485 2.18903L27.1206 1.11301L28.0645 1L28.1934 2.07703L29.3135 1.94202L29.3965 2.642L28.2764 2.77701L28.4878 4.543C28.4918 4.68075 28.5445 4.8126 28.6367 4.91501C28.6817 4.94977 28.7337 4.97453 28.7891 4.98764C28.8444 5.00075 28.9017 5.00191 28.9575 4.99103C29.1509 4.95538 29.3343 4.87788 29.4946 4.76401L29.8027 5.45602Z" fill="white" stroke="white" stroke-width="0.3"/>
<path d="M33.425 2.18879C33.7712 2.60988 33.9493 3.1442 33.925 3.68879C33.925 3.81579 33.925 3.91279 33.925 3.97679L31.011 4.02378C31.0633 4.28392 31.208 4.51636 31.4182 4.67826C31.6284 4.84017 31.8901 4.92063 32.155 4.9048C32.3537 4.90293 32.55 4.86109 32.7322 4.78178C32.913 4.70452 33.0756 4.59004 33.2092 4.44578L33.7351 4.97578C33.5386 5.19757 33.2956 5.37311 33.0232 5.48979C32.7267 5.61551 32.4082 5.68077 32.0862 5.68177C31.7159 5.69593 31.3477 5.61575 31.0168 5.44877C30.7132 5.29315 30.462 5.05231 30.2932 4.75578C30.1226 4.43446 30.0308 4.07718 30.0256 3.71342C30.0204 3.34966 30.1016 2.98988 30.2629 2.6638C30.4228 2.36115 30.6658 2.11032 30.9631 1.94078C31.2791 1.7628 31.6357 1.66913 31.9983 1.66877C32.2597 1.64622 32.5228 1.68109 32.7693 1.77091C33.0158 1.86074 33.2395 2.00336 33.425 2.18879V2.18879ZM33.0422 3.3538C33.0409 3.22487 33.0137 3.09751 32.9622 2.97932C32.9106 2.86113 32.8355 2.7545 32.7419 2.66578C32.539 2.50256 32.2855 2.41509 32.0251 2.41838C31.7647 2.42166 31.5139 2.5155 31.3152 2.68379C31.122 2.86909 31.001 3.11738 30.9748 3.3838L33.0422 3.3538Z" fill="white" stroke="white" stroke-width="0.3"/>
<path d="M40.3169 2.94391C40.5579 3.16894 40.729 3.4584 40.8105 3.77792C40.8918 4.13027 40.8957 4.49607 40.8213 4.84991C40.7469 5.20376 40.5962 5.53715 40.3799 5.8269C40.1776 6.08173 39.9059 6.27273 39.5977 6.37692C39.2745 6.48221 38.9287 6.49708 38.5977 6.41992C38.3314 6.36928 38.0813 6.25503 37.8687 6.08691C37.6704 5.92561 37.5178 5.71536 37.4258 5.47693L36.9946 7.50491L36.0566 7.3049L37.1758 2.04492L38.1147 2.2449L37.98 2.87991C38.1565 2.69802 38.3781 2.56679 38.6226 2.49991C38.8847 2.43243 39.1596 2.43004 39.4229 2.49292C39.7564 2.5588 40.0657 2.71477 40.3169 2.94391V2.94391ZM39.3906 5.40192C39.6457 5.21562 39.8182 4.93728 39.8716 4.62592C39.9495 4.32113 39.9046 3.99794 39.7466 3.72592C39.6658 3.60115 39.5614 3.49353 39.439 3.40924C39.3165 3.32495 39.1786 3.26564 39.0332 3.23471C38.8878 3.20378 38.7379 3.20183 38.5918 3.22897C38.4457 3.25612 38.3062 3.31184 38.1816 3.39291C37.9256 3.57721 37.7525 3.85492 37.6997 4.16592C37.6206 4.47304 37.6648 4.7989 37.8228 5.07391C37.9005 5.20252 38.0049 5.31299 38.1289 5.39786C38.2529 5.48273 38.394 5.54002 38.542 5.56592C38.6869 5.60136 38.8374 5.60512 38.9839 5.577C39.1304 5.54887 39.2691 5.48951 39.3906 5.40292V5.40192Z" fill="white" stroke="white" stroke-width="0.3"/>
<path d="M43.7227 3.99011C43.9986 3.94051 44.283 3.96431 44.5469 4.05911L44.2358 4.93613C44.0792 4.8583 43.9085 4.81286 43.7339 4.80255C43.5593 4.79224 43.3844 4.81728 43.2197 4.87613C43.0687 4.93841 42.9334 5.03352 42.8237 5.1546C42.7141 5.27568 42.633 5.41968 42.5859 5.57611L41.9487 7.36911L41.0488 7.04813L42.3687 3.32812L43.269 3.64813L43.0146 4.36411C43.2101 4.17433 43.4558 4.04455 43.7227 3.99011V3.99011Z" fill="white" stroke="white" stroke-width="0.3"/>
<path d="M45.3506 4.46524L46.2246 4.86523L44.5996 8.46524L43.7246 8.06524L45.3506 4.46524ZM46.7686 3.42224C46.8175 3.5673 46.8072 3.72584 46.7397 3.86325C46.6812 4.00182 46.57 4.1115 46.4307 4.16824C46.3632 4.1961 46.2907 4.20933 46.2178 4.20709C46.1449 4.20485 46.0734 4.18718 46.0078 4.15524C45.9406 4.12687 45.88 4.08472 45.8301 4.03149C45.7801 3.97827 45.7418 3.91514 45.7178 3.84622C45.6934 3.77571 45.683 3.70111 45.6875 3.62664C45.692 3.55218 45.711 3.47932 45.7437 3.41223C45.8022 3.27075 45.9144 3.15822 46.0557 3.09924C46.1236 3.07354 46.1959 3.06147 46.2686 3.06375C46.3412 3.06602 46.4128 3.08258 46.479 3.11248C46.5452 3.14239 46.6046 3.18506 46.6543 3.23803C46.704 3.29101 46.7429 3.35326 46.7686 3.42123V3.42224Z" fill="white" stroke="white" stroke-width="0.3"/>
<path d="M44.8281 9.29178C44.8866 9.33029 44.9537 9.35381 45.0234 9.36026C45.0932 9.36671 45.1634 9.35591 45.228 9.3288C45.3788 9.24768 45.4992 9.11951 45.5703 8.96381L47.4512 5.46979L48.2959 5.9238L46.3442 9.5488C46.1967 9.86587 45.9299 10.112 45.6021 10.2338C45.441 10.2808 45.2722 10.2934 45.106 10.2711C44.9397 10.2487 44.78 10.1917 44.6372 10.1038C44.4049 9.97982 44.1991 9.81168 44.0312 9.6088L44.5562 9.06979C44.6351 9.15714 44.7267 9.23198 44.8281 9.29178V9.29178ZM48.9434 4.52878C48.9628 4.60191 48.9672 4.67818 48.957 4.75317C48.9469 4.82817 48.9224 4.90043 48.8843 4.96579C48.851 5.0326 48.8045 5.09211 48.748 5.14087C48.6916 5.18963 48.6261 5.22666 48.5552 5.24979C48.4857 5.27099 48.4126 5.27823 48.3403 5.27109C48.2681 5.26394 48.1978 5.24256 48.1338 5.20816C48.0698 5.17376 48.0136 5.12704 47.9678 5.07068C47.922 5.01432 47.8878 4.94944 47.8672 4.87979C47.8474 4.80801 47.8419 4.73297 47.8516 4.65912C47.8612 4.58527 47.8858 4.51411 47.9233 4.4498C47.9566 4.38181 48.0031 4.32113 48.0601 4.27133C48.1171 4.22154 48.183 4.18362 48.2549 4.15979C48.3242 4.13643 48.3979 4.1281 48.4707 4.13535C48.5435 4.14259 48.6139 4.16522 48.6772 4.20178C48.7418 4.23464 48.7989 4.28063 48.8447 4.33676C48.8905 4.39289 48.9241 4.45796 48.9434 4.5278V4.52878Z" fill="white" stroke="white" stroke-width="0.3"/>
<path d="M50.5146 8.24678C50.3962 8.09581 50.2557 7.96365 50.0977 7.85479C49.9889 7.77491 49.8608 7.72554 49.7266 7.71178C49.6739 7.70765 49.6211 7.71839 49.5742 7.74279C49.5274 7.76718 49.4882 7.80427 49.4614 7.84978C49.4286 7.89942 49.4107 7.95738 49.4097 8.0169C49.4086 8.07641 49.4245 8.135 49.4556 8.18578C49.5582 8.36148 49.6787 8.52602 49.8154 8.67678C49.971 8.86086 50.1145 9.05494 50.2446 9.25777C50.3486 9.4266 50.412 9.61729 50.4297 9.81478C50.444 10.0414 50.3781 10.2658 50.2437 10.4488C50.1541 10.5968 50.0285 10.7196 49.8784 10.8057C49.7283 10.8918 49.5587 10.9383 49.3857 10.9408C48.9908 10.9387 48.6062 10.8135 48.2856 10.5828C48.0331 10.4151 47.8089 10.2082 47.6216 9.96978C47.4424 9.74911 47.3099 9.49427 47.2324 9.22078L47.8794 8.84478C47.948 9.07996 48.0604 9.30011 48.2104 9.49376C48.3519 9.68825 48.5256 9.85731 48.7236 9.99376C48.8412 10.0797 48.9789 10.1337 49.1235 10.1508C49.1797 10.1564 49.2365 10.1461 49.2871 10.121C49.3377 10.0959 49.3802 10.057 49.4097 10.0088C49.4467 9.95653 49.4677 9.89475 49.4707 9.83077C49.4737 9.76679 49.4587 9.70329 49.4268 9.64778C49.3202 9.46259 49.1956 9.28839 49.0547 9.12777C48.9054 8.95303 48.7676 8.76863 48.6426 8.57576C48.544 8.41534 48.4854 8.23357 48.4717 8.04576C48.4616 7.82785 48.5262 7.61303 48.6548 7.43679C48.7422 7.28864 48.8651 7.16472 49.0127 7.07634C49.1603 6.98796 49.3276 6.93792 49.4995 6.93077C49.8788 6.92655 50.2495 7.04355 50.5576 7.26476C50.7747 7.40962 50.9703 7.58435 51.1387 7.78377C51.3013 7.97267 51.4333 8.18593 51.5298 8.41576L50.8574 8.80077C50.765 8.60338 50.6502 8.41747 50.5146 8.24678V8.24678Z" fill="white" stroke="white" stroke-width="0.3"/>
<path d="M14.6318 56.9235C14.6492 57.1905 14.6069 57.4581 14.5078 57.7067C14.4087 57.9552 14.2554 58.1786 14.0591 58.3604C13.8782 58.5717 13.6541 58.7417 13.4019 58.8588C13.1496 58.976 12.8748 59.0376 12.5967 59.0395C12.0001 58.9947 11.4434 58.7243 11.0391 58.2834L10.1499 57.4294L9 58.6245L8.22266 57.8774L12.1309 53.8145L13.7969 55.4145C14.2502 55.7986 14.5472 56.3353 14.6318 56.9235V56.9235ZM12.5171 58.0175C12.6651 58.0246 12.8126 57.9973 12.9482 57.9378C13.0839 57.8783 13.2038 57.7882 13.2988 57.6745C13.4071 57.5769 13.4908 57.4551 13.543 57.319C13.5951 57.1829 13.614 57.0364 13.5986 56.8914C13.5308 56.5642 13.3547 56.2693 13.0986 56.0544L12.251 55.2395L10.8057 56.7395L11.6528 57.5555C11.8788 57.8054 12.1848 57.9691 12.5181 58.0185L12.5171 58.0175Z" fill="white" stroke="white" stroke-width="0.3"/>
<path d="M16.3408 59.3929C16.6459 59.4224 16.938 59.5322 17.187 59.7109L16.6001 60.5389C16.4584 60.4109 16.2922 60.3127 16.1118 60.2502C15.9314 60.1877 15.7403 60.1621 15.5498 60.1749C15.3735 60.1953 15.2038 60.2546 15.0532 60.3485C14.9026 60.4424 14.7747 60.5686 14.6787 60.7179L13.479 62.4129L12.625 61.8129L15.1147 58.2969L15.9697 58.8969L15.4897 59.5749C15.7503 59.4344 16.0456 59.3712 16.3408 59.3929V59.3929Z" fill="white" stroke="white" stroke-width="0.3"/>
<path d="M17.7246 60.0473L18.6338 60.5673L16.4946 64.3072L15.5859 63.7873L17.7246 60.0473ZM19.3745 59.0612C19.4122 59.2235 19.3848 59.3942 19.2979 59.5363C19.2597 59.6082 19.2076 59.6718 19.1445 59.7233C19.0815 59.7748 19.0087 59.8132 18.9307 59.8363C18.8542 59.8576 18.7746 59.8636 18.6958 59.8538C18.617 59.8441 18.5406 59.8188 18.4717 59.7794C18.4028 59.7401 18.3424 59.6875 18.2939 59.6246C18.2455 59.5617 18.2104 59.4899 18.1899 59.4133C18.1572 59.2521 18.1839 59.0845 18.2656 58.9417C18.3473 58.7989 18.4782 58.6907 18.6338 58.6373C18.7103 58.6159 18.7903 58.61 18.8691 58.6198C18.9479 58.6297 19.0238 58.655 19.0928 58.6945C19.1617 58.7339 19.2221 58.7866 19.2705 58.8496C19.3189 58.9125 19.3541 58.9845 19.3745 59.0612V59.0612Z" fill="white" stroke="white" stroke-width="0.3"/>
<path d="M17.0991 65.4558C17.1655 65.4949 17.2404 65.5168 17.3174 65.5196C17.3944 65.5224 17.471 65.506 17.54 65.4718C17.7006 65.3752 17.8247 65.2282 17.8931 65.0538L19.7329 61.1308L20.6812 61.5758L18.771 65.6438C18.6294 65.9987 18.3533 66.2834 18.0029 66.4358C17.8304 66.4968 17.6473 66.521 17.4648 66.5067C17.2824 66.4924 17.1052 66.44 16.9443 66.3528C16.6835 66.2335 16.4485 66.0635 16.2539 65.8528L16.793 65.2348C16.8839 65.3227 16.9871 65.3971 17.0991 65.4558V65.4558ZM21.2993 60.0158C21.3253 60.0943 21.3351 60.1772 21.3286 60.2596C21.3221 60.3421 21.2992 60.4224 21.2612 60.4958C21.229 60.5705 21.1821 60.638 21.1235 60.6945C21.065 60.751 20.9957 60.7953 20.9199 60.8248C20.8454 60.8523 20.7663 60.8647 20.687 60.8614C20.6077 60.858 20.5299 60.8389 20.458 60.8053C20.3861 60.7716 20.3214 60.724 20.2681 60.6652C20.2147 60.6064 20.1736 60.5376 20.147 60.4628C20.1211 60.3856 20.1109 60.3041 20.1167 60.2229C20.1225 60.1417 20.1445 60.0625 20.1812 59.9898C20.2138 59.9139 20.2611 59.8451 20.3203 59.7875C20.3795 59.7298 20.4491 59.6844 20.5259 59.6538C20.6004 59.6265 20.6795 59.6143 20.7588 59.6178C20.838 59.6213 20.916 59.6404 20.9878 59.6742C21.0596 59.708 21.124 59.7556 21.1772 59.8144C21.2305 59.8732 21.2714 59.942 21.2979 60.0168L21.2993 60.0158Z" fill="white" stroke="white" stroke-width="0.3"/>
<path d="M23.2402 63.491C23.0738 63.3637 22.8887 63.2626 22.6919 63.191C22.555 63.1371 22.4067 63.1202 22.2612 63.142C22.2044 63.152 22.1512 63.1779 22.1084 63.2166C22.0656 63.2554 22.0347 63.3054 22.019 63.361C21.9975 63.4226 21.994 63.4891 22.0093 63.5526C22.0245 63.6161 22.0578 63.6738 22.105 63.719C22.2618 63.8763 22.4345 64.017 22.6201 64.139C22.8351 64.2922 23.0396 64.4592 23.2329 64.639C23.3887 64.7884 23.5079 64.9719 23.5811 65.175C23.659 65.4103 23.6516 65.6656 23.5601 65.896C23.5066 66.0775 23.4076 66.2423 23.2725 66.3748C23.1373 66.5073 22.9706 66.6031 22.7881 66.653C22.3709 66.7599 21.9309 66.7337 21.5293 66.578C21.2153 66.4708 20.9208 66.3134 20.6572 66.112C20.4073 65.9285 20.1974 65.6957 20.041 65.428L20.6211 64.853C20.7583 65.0823 20.9372 65.2838 21.1489 65.447C21.3525 65.6111 21.5822 65.7402 21.8281 65.829C21.9773 65.8882 22.1396 65.9072 22.2983 65.884C22.3591 65.8742 22.4156 65.8476 22.4619 65.8071C22.5082 65.7666 22.5423 65.7139 22.5601 65.655C22.5846 65.5897 22.59 65.5188 22.5757 65.4506C22.5613 65.3824 22.5278 65.3198 22.479 65.2699C22.316 65.1032 22.1371 64.9531 21.9443 64.822C21.738 64.6787 21.5412 64.5217 21.356 64.3519C21.2083 64.2091 21.0969 64.0333 21.0303 63.8389C20.9589 63.6115 20.968 63.3664 21.0562 63.1449C21.1071 62.9642 21.2026 62.7992 21.334 62.665C21.4654 62.5308 21.6285 62.4317 21.8081 62.377C22.2077 62.268 22.6317 62.2897 23.0181 62.439C23.2873 62.5321 23.542 62.6628 23.7749 62.827C23.9981 62.9821 24.1964 63.1707 24.3623 63.386L23.7622 63.979C23.6075 63.7968 23.4323 63.6331 23.2402 63.491V63.491Z" fill="white" stroke="white" stroke-width="0.3"/>
<path d="M29.1626 63.8952L28.4937 67.7353C28.4375 68.1047 28.2792 68.451 28.0366 68.7353C27.7981 69.0052 27.485 69.1983 27.1367 69.2902C26.7407 69.3943 26.3259 69.407 25.9243 69.3272C25.2806 69.2183 24.6869 68.9122 24.2246 68.4512L24.7666 67.7783C25.0977 68.1337 25.536 68.3711 26.0146 68.4542C26.3405 68.5285 26.6822 68.4801 26.9746 68.3182C27.1046 68.2379 27.2148 68.1294 27.2974 68.0008C27.3799 67.8723 27.4327 67.7269 27.4517 67.5753L27.5386 67.0753C27.3645 67.264 27.1426 67.4022 26.8965 67.4752C26.6286 67.5509 26.3468 67.5622 26.0737 67.5082C25.727 67.4549 25.4015 67.3064 25.1343 67.0792C24.8777 66.8573 24.6904 66.5665 24.5938 66.2412C24.4875 65.8812 24.4691 65.5008 24.5405 65.1322C24.5971 64.7663 24.7418 64.4197 24.9624 64.1222C25.1639 63.8529 25.4384 63.6471 25.7534 63.5292C26.0821 63.4082 26.4379 63.3795 26.7817 63.4463C27.0558 63.4897 27.3156 63.5969 27.5405 63.7592C27.7464 63.9115 27.9095 64.1144 28.0137 64.3482L28.1245 63.7142L29.1626 63.8952ZM27.3154 66.5453C27.5616 66.3337 27.7266 66.0432 27.7822 65.7234C27.8379 65.4036 27.7809 65.0745 27.6206 64.7922C27.5363 64.663 27.4251 64.5532 27.2949 64.4705C27.1647 64.3877 27.0185 64.3337 26.8657 64.3123C26.7144 64.2804 26.558 64.2818 26.4072 64.3163C26.2565 64.3508 26.115 64.4177 25.9927 64.5122C25.743 64.7205 25.5749 65.0105 25.519 65.3308C25.4632 65.6511 25.523 65.9808 25.6875 66.2612C25.7757 66.3867 25.8876 66.4936 26.0171 66.5758C26.1466 66.6579 26.2913 66.7137 26.4424 66.74C26.5935 66.7663 26.7483 66.7625 26.8979 66.7289C27.0476 66.6953 27.1891 66.6326 27.3145 66.5442L27.3154 66.5453Z" fill="white" stroke="white" stroke-width="0.3"/>
<path d="M32.7822 68.2888L32.791 67.7648C32.6355 67.9528 32.4335 68.0969 32.2051 68.1828C31.9444 68.2799 31.6672 68.3247 31.3892 68.3148C31.1149 68.3167 30.844 68.2533 30.5991 68.1298C30.3829 68.02 30.2025 67.8507 30.0791 67.6418C29.9589 67.4333 29.8983 67.1955 29.9048 66.9548C29.8995 66.7746 29.9369 66.5956 30.0137 66.4325C30.0905 66.2693 30.2049 66.1266 30.3472 66.0158C30.7031 65.7721 31.1307 65.6555 31.561 65.6848L32.8169 65.7048V65.5908C32.8246 65.4805 32.8069 65.3698 32.7651 65.2674C32.7234 65.1649 32.6588 65.0734 32.5762 64.9998C32.3698 64.8434 32.1146 64.7648 31.856 64.7778C31.4001 64.785 30.9548 64.9172 30.5689 65.1598L30.2022 64.4288C30.4968 64.266 30.8076 64.1349 31.1299 64.0378C31.4472 63.9541 31.7751 63.9174 32.103 63.9288C32.5712 63.9071 33.0312 64.0576 33.396 64.3518C33.5503 64.4963 33.6707 64.673 33.749 64.8693C33.8273 65.0657 33.8616 65.2768 33.8491 65.4878L33.812 68.3058L32.7822 68.2888ZM32.4282 67.3128C32.525 67.2591 32.6082 67.1844 32.6724 67.0943C32.7366 67.0041 32.7797 66.9008 32.7988 66.7918L32.8042 66.4048L31.7183 66.3878C31.5056 66.3689 31.2917 66.4087 31.1001 66.5028C31.0345 66.546 30.9814 66.6057 30.9463 66.676C30.9112 66.7462 30.8951 66.8244 30.8999 66.9028C30.8958 66.9865 30.912 67.07 30.9468 67.1462C30.9816 67.2224 31.0342 67.2891 31.1001 67.3408C31.2615 67.459 31.4583 67.5189 31.6582 67.5108C31.929 67.5226 32.1971 67.4534 32.4282 67.3118V67.3128Z" fill="white" stroke="white" stroke-width="0.3"/>
<path d="M36.522 63.806C36.7651 63.6193 37.0531 63.5 37.3569 63.46L37.4941 64.465C37.3032 64.468 37.1149 64.5097 36.9404 64.5873C36.766 64.665 36.609 64.7771 36.479 64.917C36.3636 65.0519 36.2796 65.2108 36.2334 65.3823C36.1872 65.5537 36.1799 65.7333 36.2119 65.908L36.4941 67.9669L35.4561 68.108L34.873 63.839L35.9111 63.698L36.0229 64.519C36.1178 64.2385 36.291 63.9911 36.522 63.806V63.806Z" fill="white" stroke="white" stroke-width="0.3"/>
<path d="M41.4224 66.8906L41.2812 66.3906C41.1847 66.6145 41.0319 66.8095 40.8374 66.9566C40.6143 67.1229 40.3608 67.2442 40.0913 67.3136C39.828 67.3926 39.5497 67.408 39.2793 67.3586C39.041 67.3144 38.8206 67.2031 38.6436 67.0376C38.4694 66.8715 38.3444 66.6604 38.2832 66.4276C38.227 66.2562 38.2123 66.074 38.2397 65.8957C38.2672 65.7175 38.3363 65.5482 38.4414 65.4016C38.714 65.0674 39.0911 64.8349 39.5122 64.7416L40.7222 64.4056L40.6924 64.2976C40.6685 64.1892 40.6201 64.0877 40.5508 64.001C40.4814 63.9143 40.393 63.8447 40.2925 63.7976C40.0498 63.7056 39.7824 63.7024 39.5376 63.7886C39.1026 63.9245 38.7132 64.177 38.4116 64.5186L37.8535 63.9186C38.0896 63.679 38.3506 63.4655 38.6323 63.2816C38.9124 63.1122 39.2155 62.9842 39.5322 62.9016C39.9758 62.7487 40.4603 62.7637 40.8936 62.9436C41.0823 63.0382 41.2479 63.1733 41.3784 63.3392C41.5089 63.5052 41.601 63.6979 41.6484 63.9036L42.4082 66.6186L41.4224 66.8906ZM40.8066 66.0546C40.8834 65.9762 40.9416 65.8817 40.9775 65.7779C41.0135 65.6742 41.0264 65.5638 41.0146 65.4546L40.9146 65.0816L39.8662 65.3716C39.657 65.4137 39.4638 65.5123 39.3066 65.6566C39.2545 65.7165 39.219 65.7893 39.2046 65.8674C39.1902 65.9455 39.1973 66.026 39.2246 66.1006C39.2439 66.182 39.2823 66.2576 39.3369 66.3209C39.3916 66.3843 39.4609 66.4336 39.5386 66.4646C39.7262 66.5328 39.9316 66.5349 40.1206 66.4706C40.3858 66.4033 40.6248 66.2581 40.8066 66.0536V66.0546Z" fill="white" stroke="white" stroke-width="0.3"/>
<path d="M45.7993 60.8576C46.2108 61.0281 46.538 61.355 46.7085 61.7666L47.8726 64.1916L46.9204 64.6476L45.8896 62.4976C45.8397 62.3773 45.7658 62.2683 45.6729 62.1771C45.5799 62.0859 45.4698 62.0143 45.3486 61.9666C45.2264 61.9264 45.0969 61.9117 44.9688 61.9233C44.8406 61.935 44.7164 61.9729 44.6035 62.0346C44.4614 62.0972 44.3346 62.1903 44.2324 62.3073C44.1303 62.4243 44.055 62.5623 44.0122 62.7116C43.9323 63.0241 43.9719 63.3553 44.1226 63.6406L45.0386 65.5496L44.0952 66.0026L42.2324 62.1186L43.1753 61.6656L43.5244 62.3916C43.541 62.0797 43.6469 61.7792 43.8291 61.5255C44.0113 61.2719 44.262 61.0758 44.5522 60.9606C44.7413 60.8571 44.9502 60.7945 45.165 60.7767C45.3798 60.759 45.5958 60.7865 45.7993 60.8576Z" fill="white" stroke="white" stroke-width="0.3"/>
<path d="M51.2383 61.6256C51.0859 61.9759 50.8387 62.2765 50.5244 62.4936C50.2555 62.6925 49.9201 62.7796 49.5884 62.7366C49.4145 62.7019 49.25 62.6305 49.106 62.527C48.9619 62.4235 48.8417 62.2904 48.7534 62.1366L47.5532 60.3796L47.0532 60.7216L46.6162 60.0926L47.1162 59.7476L46.4492 58.7696L47.3071 58.1836L47.9751 59.1626L48.9922 58.4676L49.4243 59.0996L48.4062 59.7946L49.5005 61.3946C49.5726 61.5269 49.6897 61.6285 49.8311 61.6806C49.8924 61.6923 49.9555 61.6905 50.0161 61.6755C50.0767 61.6605 50.1334 61.6325 50.1821 61.5936C50.3507 61.4608 50.4891 61.2934 50.5874 61.1026L51.2383 61.6256Z" fill="white" stroke="white" stroke-width="0.3"/>
<path d="M49.1582 55.9192C49.2401 55.9294 49.3188 55.9556 49.3906 55.9965C49.4623 56.0373 49.5256 56.092 49.5761 56.1573C49.6306 56.218 49.6721 56.2889 49.6987 56.3661C49.7253 56.4432 49.7364 56.5249 49.7309 56.6063C49.7244 56.6854 49.7025 56.7625 49.666 56.8331C49.6294 56.9036 49.579 56.9662 49.518 57.0171C49.4571 57.0681 49.3869 57.1065 49.311 57.13C49.2351 57.1536 49.1552 57.1618 49.0761 57.1542C48.9952 57.1448 48.9167 57.1195 48.8457 57.0796C48.7746 57.0398 48.7123 56.9863 48.6621 56.9222C48.6065 56.861 48.5637 56.7893 48.5361 56.7114C48.5085 56.6335 48.4964 56.5508 48.5009 56.4683C48.5157 56.3088 48.5928 56.1616 48.7158 56.0589C48.8387 55.9562 48.9976 55.9064 49.1572 55.9203L49.1582 55.9192ZM49.5102 57.8093L50.31 57.1382L53.0742 60.4383L52.2739 61.1103L49.5102 57.8093Z" fill="white" stroke="white" stroke-width="0.3"/>
<path d="M53.9152 54.3076C54.5098 54.3554 55.0652 54.6219 55.4747 55.0556C55.5747 55.1556 55.6518 55.2236 55.6998 55.2746L53.5279 57.6006C53.7717 57.7566 54.0634 57.8192 54.3497 57.7769C54.636 57.7347 54.8977 57.5904 55.0861 57.3706C55.2355 57.2132 55.3513 57.0271 55.4269 56.8236C55.5043 56.623 55.5385 56.4083 55.527 56.1936L56.3419 56.1826C56.3667 56.5048 56.3206 56.8284 56.2062 57.1306C56.0792 57.4587 55.8885 57.7585 55.6451 58.0126C55.3747 58.314 55.0323 58.5421 54.65 58.6756C54.298 58.7961 53.9181 58.8111 53.5577 58.7186C53.1759 58.6095 52.8257 58.411 52.5358 58.1396C52.2459 57.8681 52.0246 57.5315 51.8907 57.1576C51.7741 56.8019 51.7617 56.4204 51.8541 56.0576C51.954 55.6739 52.1511 55.3226 52.4269 55.0376C52.6067 54.8149 52.8334 54.6342 53.0904 54.5081C53.3475 54.382 53.6289 54.3136 53.9152 54.3076V54.3076ZM54.5392 55.4916C54.4371 55.3947 54.3165 55.3194 54.1847 55.2701C54.0529 55.2208 53.9127 55.1985 53.7721 55.2046C53.4898 55.2405 53.2287 55.3735 53.0338 55.5808C52.8389 55.7881 52.7221 56.0567 52.7037 56.3406C52.7032 56.6338 52.8079 56.9176 52.9982 57.1406L54.5392 55.4916Z" fill="white" stroke="white" stroke-width="0.3"/>
<path d="M11.1193 11.6338C5.72642 16.9276 2.45769 24.0125 1.93079 31.5511C1.40389 39.0896 3.65492 46.5603 8.25891 52.5528" stroke="white" stroke-width="2" stroke-linecap="round" stroke-linejoin="round"/>
<path d="M57.9712 51.6637C62.2047 45.724 64.2031 38.4793 63.6138 31.2092C63.0244 23.939 59.885 17.1109 54.75 11.9307" stroke="white" stroke-width="2" stroke-linecap="round" stroke-linejoin="round"/>
<path d="M34.6445 41.4469L39.5615 38.8309C40.7185 38.2149 42.9777 37.2829 42.9907 39.5899L43.8203 39.0209C46.1503 37.4209 47.9207 38.5559 47.0537 40.7609C51.1957 37.7499 52.6594 41.5609 50.8154 42.4989L41.6484 48.2879L37.7646 50.7429C35.0156 52.4789 31.3873 52.5049 30.3643 51.8959C24.5643 50.3959 22.8924 48.9769 17.8374 49.6259L34.6445 41.4469ZM15.3984 39.3059L21.3926 36.8699C22.0035 36.592 22.6673 36.4496 23.3384 36.4523C24.0095 36.4551 24.6717 36.603 25.2803 36.8859L28.5283 39.2919C33.0353 42.6309 33.4014 41.7969 38.7104 42.1139C39.8874 42.1839 40.6614 44.0789 38.7104 44.8279C33.7544 47.0949 30.6957 46.0769 26.1787 43.7649L15.3984 39.3059ZM33.5015 15.7129C35.4148 15.7129 37.2851 16.2803 38.876 17.3433C40.4669 18.4064 41.7068 19.9173 42.439 21.6851C43.1711 23.4528 43.3631 25.398 42.9897 27.2746C42.6164 29.1512 41.6948 30.8749 40.3418 32.2278C38.9888 33.5807 37.2648 34.502 35.3882 34.8752C33.5115 35.2483 31.5665 35.0566 29.7988 34.3242C28.0312 33.5919 26.5204 32.3518 25.4575 30.7608C24.3946 29.1698 23.8274 27.2993 23.8276 25.3859C23.8276 24.1155 24.0778 22.8576 24.564 21.684C25.0501 20.5103 25.7628 19.4439 26.6611 18.5457C27.5595 17.6475 28.6256 16.935 29.7993 16.4489C30.973 15.9629 32.2311 15.7128 33.5015 15.7129V15.7129Z" stroke="white" stroke-width="2" stroke-linecap="round" stroke-linejoin="round"/>
<path d="M28.4238 26.6446L31.5737 30.2026C31.5737 30.2026 35.328 21.8756 38.603 20.7676" stroke="white" stroke-width="2" stroke-linecap="round" stroke-linejoin="round"/>
</svg>
