<svg width="71" height="72" viewBox="0 0 71 72" fill="none" xmlns="http://www.w3.org/2000/svg">
<path d="M35.345 71.1002C54.8655 71.1002 70.69 55.2757 70.69 35.7552C70.69 16.2347 54.8655 0.410156 35.345 0.410156C15.8245 0.410156 0 16.2347 0 35.7552C0 55.2757 15.8245 71.1002 35.345 71.1002Z" fill="#D4B69C"/>
<path d="M19.0522 27.5269C21.2757 27.0692 23.3722 26.1312 25.1951 24.7783C27.018 23.4255 28.5231 21.6904 29.6052 19.6948C31.999 22.1689 35.1461 23.7788 38.5531 24.2725C41.9601 24.7661 45.4346 24.1158 48.4323 22.4229M37.8992 55.5508C40.8409 55.2521 43.6145 54.0368 45.8282 52.0767C48.5423 49.2441 50.1195 45.5122 50.2593 41.5918V28.7456C50.101 24.9443 48.5198 21.3415 45.8293 18.6514C43.1389 15.9613 39.5356 14.3804 35.7343 14.2227H33.8502C30.0493 14.3811 26.4467 15.9623 23.7567 18.6523C21.0667 21.3423 19.4857 24.9447 19.3273 28.7456V41.5918L37.8992 55.5508ZM40.1572 31.3438C40.3539 31.3436 40.5463 31.4016 40.71 31.5107C40.8736 31.6199 41.0011 31.7753 41.0764 31.957C41.1517 32.1388 41.1715 32.3388 41.1331 32.5317C41.0947 32.7247 40.9999 32.902 40.8607 33.041C40.7215 33.18 40.5443 33.2748 40.3513 33.313C40.1583 33.3512 39.9584 33.3309 39.7767 33.2554C39.5951 33.1799 39.4398 33.0524 39.3308 32.8887C39.2218 32.7249 39.1638 32.5327 39.1642 32.3359C39.1642 32.2056 39.19 32.0765 39.2399 31.9561C39.2898 31.8356 39.3629 31.7259 39.4551 31.6338C39.5473 31.5417 39.6569 31.4687 39.7773 31.4189C39.8978 31.3692 40.0269 31.3436 40.1572 31.3438ZM29.4263 31.3438C29.6227 31.3449 29.8143 31.4041 29.9771 31.5142C30.1398 31.6242 30.2662 31.7801 30.3405 31.9619C30.4147 32.1438 30.4335 32.3437 30.3943 32.5361C30.3551 32.7286 30.2597 32.9051 30.1202 33.0435C29.9808 33.1818 29.8035 33.2758 29.6107 33.3135C29.4179 33.3511 29.2184 33.3306 29.0371 33.2549C28.8559 33.1792 28.7011 33.0513 28.5924 32.8877C28.4837 32.7241 28.4259 32.5324 28.4263 32.3359C28.4265 32.2051 28.4526 32.0753 28.5031 31.9546C28.5535 31.8338 28.6273 31.724 28.7202 31.6318C28.8131 31.5397 28.9233 31.467 29.0444 31.4175C29.1656 31.368 29.2954 31.343 29.4263 31.3438ZM18.8752 41.7939C17.108 41.549 15.489 40.6726 14.3173 39.3271C13.1455 37.9817 12.5 36.2578 12.5 34.4736C12.5 32.6895 13.1455 30.9655 14.3173 29.6201C15.489 28.2747 17.108 27.3988 18.8752 27.1538V41.7939ZM50.6682 41.7939C52.4355 41.549 54.0544 40.6726 55.2262 39.3271C56.398 37.9817 57.0435 36.2578 57.0435 34.4736C57.0435 32.6895 56.398 30.9655 55.2262 29.6201C54.0544 28.2747 52.4355 27.3988 50.6682 27.1538V41.7939ZM28.8402 40.7676C29.4512 42.9336 31.8743 44.5527 34.7703 44.5527C37.6663 44.5527 40.0922 42.9336 40.7032 40.7676H28.8402ZM34.7703 52.4678C35.3858 52.4676 35.9875 52.6499 36.4994 52.9917C37.0113 53.3335 37.4103 53.8191 37.646 54.3877C37.8817 54.9563 37.9435 55.5823 37.8236 56.186C37.7037 56.7897 37.4075 57.3444 36.9724 57.7798C36.5373 58.2151 35.9829 58.5116 35.3793 58.6318C34.7756 58.7521 34.15 58.6904 33.5813 58.4551C33.0126 58.2197 32.5263 57.8212 32.1842 57.3096C31.8421 56.7979 31.6594 56.1961 31.6592 55.5806C31.6594 54.7554 31.9872 53.9641 32.5706 53.3804C33.1539 52.7967 33.9451 52.4686 34.7703 52.4678Z" stroke="#6C6463" stroke-width="2" stroke-linecap="round" stroke-linejoin="round"/>
</svg>
