<svg width="71" height="71" viewBox="0 0 71 71" fill="none" xmlns="http://www.w3.org/2000/svg">
<path d="M35.345 70.69C54.8655 70.69 70.69 54.8655 70.69 35.345C70.69 15.8245 54.8655 0 35.345 0C15.8245 0 0 15.8245 0 35.345C0 54.8655 15.8245 70.69 35.345 70.69Z" fill="#D4B69C"/>
<path d="M19.0522 27.1167C21.2757 26.659 23.3722 25.721 25.1951 24.3682C27.018 23.0153 28.5231 21.2802 29.6052 19.2847C31.999 21.7588 35.1461 23.3686 38.5531 23.8623C41.9601 24.356 45.4346 23.7056 48.4323 22.0127M37.8992 55.1406C40.8409 54.8419 43.6145 53.6266 45.8282 51.6665C48.5423 48.834 50.1195 45.1021 50.2593 41.1816V28.3354C50.101 24.5341 48.5198 20.9313 45.8293 18.2412C43.1389 15.5511 39.5356 13.9703 35.7343 13.8125H33.8502C30.0493 13.971 26.4467 15.5522 23.7567 18.2422C21.0667 20.9322 19.4857 24.5345 19.3273 28.3354V41.1816L37.8992 55.1406ZM40.1572 30.9336C40.3539 30.9334 40.5463 30.9914 40.71 31.1006C40.8736 31.2098 41.0011 31.3651 41.0764 31.5469C41.1517 31.7286 41.1715 31.9286 41.1331 32.1216C41.0947 32.3145 40.9999 32.4918 40.8607 32.6309C40.7215 32.7699 40.5443 32.8646 40.3513 32.9028C40.1583 32.941 39.9584 32.9207 39.7767 32.8452C39.5951 32.7697 39.4398 32.6423 39.3308 32.4785C39.2218 32.3148 39.1638 32.1225 39.1642 31.9258C39.1642 31.7954 39.19 31.6663 39.2399 31.5459C39.2898 31.4255 39.3629 31.3158 39.4551 31.2236C39.5473 31.1315 39.6569 31.0586 39.7773 31.0088C39.8978 30.959 40.0269 30.9335 40.1572 30.9336ZM29.4263 30.9336C29.6227 30.9348 29.8143 30.994 29.9771 31.104C30.1398 31.214 30.2662 31.3699 30.3405 31.5518C30.4147 31.7336 30.4335 31.9335 30.3943 32.126C30.3551 32.3185 30.2597 32.495 30.1202 32.6333C29.9808 32.7716 29.8035 32.8657 29.6107 32.9033C29.4179 32.941 29.2184 32.9204 29.0371 32.8447C28.8559 32.769 28.7011 32.6411 28.5924 32.4775C28.4837 32.3139 28.4259 32.1222 28.4263 31.9258C28.4265 31.7949 28.4526 31.6652 28.5031 31.5444C28.5535 31.4237 28.6273 31.3138 28.7202 31.2217C28.8131 31.1295 28.9233 31.0568 29.0444 31.0073C29.1656 30.9579 29.2954 30.9328 29.4263 30.9336ZM18.8752 41.3838C17.108 41.1388 15.489 40.2624 14.3173 38.917C13.1455 37.5716 12.5 35.8476 12.5 34.0635C12.5 32.2793 13.1455 30.5554 14.3173 29.21C15.489 27.8645 17.108 26.9886 18.8752 26.7437V41.3838ZM50.6682 41.3838C52.4355 41.1388 54.0544 40.2624 55.2262 38.917C56.398 37.5716 57.0435 35.8476 57.0435 34.0635C57.0435 32.2793 56.398 30.5554 55.2262 29.21C54.0544 27.8645 52.4355 26.9886 50.6682 26.7437V41.3838ZM28.8402 40.3574C29.4512 42.5234 31.8743 44.1426 34.7703 44.1426C37.6663 44.1426 40.0922 42.5234 40.7032 40.3574H28.8402ZM34.7703 52.0576C35.3858 52.0574 35.9875 52.2398 36.4994 52.5815C37.0113 52.9233 37.4103 53.409 37.646 53.9775C37.8817 54.5461 37.9435 55.1722 37.8236 55.7759C37.7037 56.3796 37.4075 56.9343 36.9724 57.3696C36.5373 57.805 35.9829 58.1014 35.3793 58.2217C34.7756 58.342 34.15 58.2803 33.5813 58.0449C33.0126 57.8096 32.5263 57.4111 32.1842 56.8994C31.8421 56.3878 31.6594 55.7859 31.6592 55.1704C31.6594 54.3452 31.9872 53.5539 32.5706 52.9702C33.1539 52.3865 33.9451 52.0584 34.7703 52.0576Z" stroke="#6C6463" stroke-width="2" stroke-linecap="round" stroke-linejoin="round"/>
</svg>
