<svg width="40" height="40" viewBox="0 0 40 40" fill="none" xmlns="http://www.w3.org/2000/svg">
<path d="M19.9082 39.8164C30.9032 39.8164 39.8164 30.9032 39.8164 19.9082C39.8164 8.91321 30.9032 0 19.9082 0C8.91321 0 0 8.91321 0 19.9082C0 30.9032 8.91321 39.8164 19.9082 39.8164Z" fill="white"/>
<path d="M11.1306 15.2714C11.6049 14.1158 12.373 13.1046 13.3588 12.3373C14.3445 11.5701 15.5136 11.0739 16.7503 10.8978C17.9869 10.7217 19.2482 10.8719 20.4089 11.3335C21.5696 11.7951 22.5896 12.5519 23.3676 13.5292C24.8786 13.5319 26.3643 13.1414 27.6789 12.3964M21.7445 31.055C23.4012 30.8869 24.9633 30.2025 26.2103 29.0988C27.7387 27.5046 28.627 25.4042 28.7061 23.1972V15.9616C28.6166 13.8206 27.7261 11.7912 26.2107 10.2761C24.6953 8.76099 22.6659 7.87032 20.5248 7.78125H19.4639C17.3231 7.87066 15.294 8.76171 13.7789 10.2768C12.2638 11.7919 11.3732 13.8208 11.2838 15.9616V23.1972L21.7445 31.055ZM23.0163 17.4245C23.1274 17.4245 23.236 17.4574 23.3285 17.5192C23.4209 17.581 23.493 17.6683 23.5355 17.771C23.5781 17.8737 23.5893 17.9872 23.5676 18.0963C23.5459 18.2053 23.4923 18.3052 23.4137 18.3838C23.3351 18.4624 23.2349 18.5158 23.1259 18.5375C23.0168 18.5592 22.9039 18.5484 22.8012 18.5059C22.6985 18.4634 22.6106 18.3911 22.5488 18.2987C22.4871 18.2062 22.4541 18.0977 22.4541 17.9865C22.4541 17.8374 22.5134 17.6946 22.6188 17.5892C22.7242 17.4838 22.8672 17.4245 23.0163 17.4245ZM16.9736 17.4245C17.0848 17.4245 17.1936 17.4574 17.286 17.5192C17.3784 17.581 17.4505 17.6683 17.493 17.771C17.5356 17.8737 17.5466 17.9872 17.5249 18.0963C17.5033 18.2053 17.4497 18.3052 17.3711 18.3838C17.2925 18.4624 17.1924 18.5158 17.0834 18.5375C16.9744 18.5592 16.8612 18.5484 16.7585 18.5059C16.6558 18.4634 16.5681 18.3911 16.5063 18.2987C16.4446 18.2062 16.4117 18.0977 16.4117 17.9865C16.4117 17.9127 16.4261 17.8392 16.4544 17.771C16.4826 17.7028 16.524 17.6414 16.5762 17.5892C16.6284 17.537 16.6903 17.4953 16.7585 17.4671C16.8267 17.4388 16.8998 17.4245 16.9736 17.4245V17.4245ZM11.0308 23.3111C10.0353 23.1732 9.12332 22.6794 8.4632 21.9216C7.80309 21.1638 7.43945 20.193 7.43945 19.1879C7.43945 18.1829 7.80309 17.2121 8.4632 16.4543C9.12332 15.6965 10.0353 15.2027 11.0308 15.0648V23.3111ZM28.938 23.3111C29.9335 23.1732 30.8455 22.6794 31.5056 21.9216C32.1657 21.1638 32.5293 20.193 32.5293 19.1879C32.5293 18.1829 32.1657 17.2121 31.5056 16.4543C30.8455 15.6965 29.9335 15.2027 28.938 15.0648V23.3111ZM16.6434 22.7333C16.939 23.3704 17.4106 23.9096 18.0025 24.2875C18.5945 24.6654 19.2822 24.8659 19.9845 24.8659C20.6868 24.8659 21.3743 24.6654 21.9663 24.2875C22.5582 23.9096 23.0298 23.3704 23.3254 22.7333H16.6434ZM19.9838 29.3239C20.3307 29.3236 20.6699 29.4264 20.9585 29.6189C21.2471 29.8115 21.4721 30.0855 21.605 30.4059C21.738 30.7264 21.7729 31.0784 21.7054 31.4187C21.6379 31.759 21.471 32.0722 21.2257 32.3176C20.9805 32.563 20.668 32.7301 20.3277 32.7979C19.9875 32.8657 19.6348 32.8311 19.3143 32.6984C18.9937 32.5657 18.7198 32.3405 18.5271 32.052C18.3343 31.7636 18.2313 31.4246 18.2313 31.0777C18.2313 30.6128 18.416 30.1667 18.7446 29.8378C19.0732 29.509 19.5189 29.3242 19.9838 29.3239Z" stroke="#3D3635" stroke-width="0.754" stroke-linecap="round" stroke-linejoin="round"/>
</svg>
