<svg width="29" height="29" viewBox="0 0 29 29" fill="none" xmlns="http://www.w3.org/2000/svg">
<path d="M14.167 28.334C21.9912 28.334 28.334 21.9912 28.334 14.167C28.334 6.34278 21.9912 0 14.167 0C6.34278 0 0 6.34278 0 14.167C0 21.9912 6.34278 28.334 14.167 28.334Z" fill="white"/>
<path d="M7.92065 10.8672C8.25818 10.0449 8.80475 9.32527 9.50623 8.7793C10.2077 8.23333 11.0397 7.8802 11.9197 7.75488C12.7997 7.62957 13.6972 7.73648 14.5232 8.06494C15.3492 8.3934 16.075 8.93202 16.6287 9.62744C17.7039 9.62936 18.7612 9.35145 19.6967 8.82129M15.4736 22.0991C16.6526 21.9794 17.7642 21.4924 18.6516 20.707C19.7392 19.5726 20.3714 18.0779 20.4276 16.5073V11.3584C20.364 9.83481 19.7302 8.39069 18.6519 7.3125C17.5735 6.23431 16.1293 5.60049 14.6057 5.53711H13.8507C12.3273 5.60073 10.8833 6.23482 9.80518 7.31299C8.72701 8.39115 8.09329 9.83497 8.02966 11.3584V16.5073L15.4736 22.0991ZM16.3787 12.3994C16.4578 12.3994 16.5351 12.4228 16.6008 12.4668C16.6666 12.5107 16.7179 12.5729 16.7482 12.646C16.7784 12.7191 16.7864 12.7998 16.771 12.8774C16.7556 12.955 16.7174 13.0261 16.6615 13.082C16.6056 13.138 16.5343 13.176 16.4567 13.1914C16.3791 13.2068 16.2987 13.1992 16.2256 13.1689C16.1525 13.1387 16.09 13.0873 16.046 13.0215C16.0021 12.9557 15.9786 12.8784 15.9786 12.7993C15.9786 12.6932 16.0208 12.5916 16.0958 12.5166C16.1708 12.4416 16.2726 12.3994 16.3787 12.3994ZM12.0786 12.3994C12.1577 12.3994 12.2351 12.4228 12.3009 12.4668C12.3667 12.5107 12.418 12.5729 12.4482 12.646C12.4785 12.7191 12.4864 12.7998 12.4709 12.8774C12.4555 12.955 12.4174 13.0261 12.3615 13.082C12.3055 13.138 12.2343 13.176 12.1567 13.1914C12.0791 13.2068 11.9986 13.1992 11.9255 13.1689C11.8524 13.1387 11.79 13.0873 11.7461 13.0215C11.7021 12.9557 11.6787 12.8784 11.6787 12.7993C11.6787 12.7468 11.689 12.6945 11.7091 12.646C11.7292 12.5975 11.7586 12.5537 11.7958 12.5166C11.8329 12.4795 11.877 12.4498 11.9255 12.4297C11.9741 12.4096 12.0261 12.3994 12.0786 12.3994V12.3994ZM7.84961 16.5884C7.14119 16.4903 6.49221 16.1389 6.02246 15.5996C5.55271 15.0603 5.29395 14.3695 5.29395 13.6543C5.29395 12.9391 5.55271 12.2483 6.02246 11.709C6.49221 11.1697 7.14119 10.8183 7.84961 10.7202V16.5884ZM20.5927 16.5884C21.3011 16.4903 21.9501 16.1389 22.4198 15.5996C22.8895 15.0603 23.1483 14.3695 23.1483 13.6543C23.1483 12.9391 22.8895 12.2483 22.4198 11.709C21.9501 11.1697 21.3011 10.8183 20.5927 10.7202V16.5884ZM11.8436 16.1772C12.054 16.6306 12.3896 17.0143 12.8108 17.2832C13.232 17.5521 13.7214 17.6948 14.2212 17.6948C14.7209 17.6948 15.2102 17.5521 15.6315 17.2832C16.0527 17.0143 16.3883 16.6306 16.5986 16.1772H11.8436ZM14.2207 20.8672C14.4676 20.867 14.7089 20.9401 14.9143 21.0771C15.1197 21.2142 15.2798 21.4092 15.3744 21.6372C15.469 21.8652 15.4938 22.1158 15.4458 22.3579C15.3978 22.6001 15.279 22.8229 15.1045 22.9976C14.93 23.1722 14.7076 23.2911 14.4655 23.3394C14.2233 23.3876 13.9724 23.363 13.7443 23.2686C13.5162 23.1741 13.3213 23.0138 13.1841 22.8086C13.0469 22.6033 12.9736 22.3621 12.9736 22.1152C12.9736 21.7844 13.105 21.4669 13.3389 21.2329C13.5727 20.9989 13.8899 20.8675 14.2207 20.8672Z" stroke="#3D3635" stroke-width="0.754" stroke-linecap="round" stroke-linejoin="round"/>
</svg>
