<svg width="60" height="60" viewBox="0 0 60 60" fill="none" xmlns="http://www.w3.org/2000/svg">
<path d="M29.9777 59.0159C46.2276 59.0159 59.4007 45.8428 59.4007 29.5929C59.4007 13.343 46.2276 0.169922 29.9777 0.169922C13.7278 0.169922 0.554688 13.343 0.554688 29.5929C0.554688 45.8428 13.7278 59.0159 29.9777 59.0159Z" fill="white"/>
<path d="M40.9749 13.6606C39.7059 13.281 38.3591 13.244 37.0712 13.5529C35.7832 13.8618 34.5998 14.5057 33.6411 15.4196C32.6824 16.3334 31.9824 17.4846 31.6121 18.7563C31.2419 20.028 31.2145 21.3749 31.5328 22.6606L13.5109 40.6825C12.787 41.4118 12.3809 42.3977 12.3809 43.4252C12.3809 44.4527 12.787 45.4384 13.5109 46.1676V46.1676C14.2396 46.8924 15.2256 47.2992 16.2534 47.2992C17.2811 47.2992 18.2671 46.8924 18.9958 46.1676L37.0179 28.1466C38.3036 28.4653 39.6507 28.4382 40.9225 28.068C42.1944 27.6979 43.3457 26.9978 44.2596 26.039C45.1736 25.0802 45.8176 23.8967 46.1264 22.6086C46.4352 21.3204 46.3978 19.9737 46.0179 18.7048L43.6838 21.0387L42.2289 22.4936L40.2419 21.9606L38.2549 21.4286L37.7219 19.4416L37.1899 17.4535L38.6409 16.0007L40.9749 13.6657V13.6606Z" stroke="#3D3635" stroke-width="1.428" stroke-linecap="round" stroke-linejoin="round"/>
<path d="M37.4801 34.5957L43.5631 40.6797C44.2867 41.409 44.6927 42.3947 44.6927 43.4221C44.6927 44.4495 44.2867 45.4354 43.5631 46.1648V46.1648C42.8344 46.8896 41.8484 47.2964 40.8206 47.2964C39.7928 47.2964 38.8068 46.8896 38.0781 46.1648L31.9941 40.0818L37.4801 34.5957Z" stroke="#3D3635" stroke-width="1.428" stroke-linecap="round" stroke-linejoin="round"/>
<path d="M18.1113 20.7109L25.6283 28.2269" stroke="#3D3635" stroke-width="1.428" stroke-linecap="round" stroke-linejoin="round"/>
<path d="M31.2793 33.8789L34.7663 37.3659" stroke="#3D3635" stroke-width="1.428" stroke-linecap="round" stroke-linejoin="round"/>
<path d="M11.9932 16.6069L14.3932 14.207L19.9862 17.616L15.3992 22.2L11.9902 16.606L11.9932 16.6069Z" stroke="#3D3635" stroke-width="1.428" stroke-linecap="round" stroke-linejoin="round"/>
</svg>
