<svg width="60" height="60" viewBox="0 0 60 60" fill="none" xmlns="http://www.w3.org/2000/svg">
<path d="M29.9777 59.844C46.2276 59.844 59.4007 46.6709 59.4007 30.421C59.4007 14.1712 46.2276 0.998047 29.9777 0.998047C13.7278 0.998047 0.554688 14.1712 0.554688 30.421C0.554688 46.6709 13.7278 59.844 29.9777 59.844Z" fill="white"/>
<path d="M36.5096 21.3462C35.4676 25.1082 32.6326 27.8461 29.9386 27.9841C27.2386 27.8471 24.3926 25.0902 23.3586 21.3112L22.8496 21.3933C22.7096 21.4131 22.5671 21.405 22.4303 21.3694C22.2935 21.3337 22.1651 21.2713 22.0526 21.1858C21.94 21.1002 21.8456 20.9931 21.7747 20.8708C21.7038 20.7485 21.6579 20.6133 21.6396 20.4731L21.1396 17.1291C21.0929 16.8452 21.1593 16.5544 21.3245 16.3188C21.4898 16.0833 21.7407 15.9218 22.0236 15.8691L22.3866 15.8112C22.2209 15.2735 22.1369 14.7138 22.1376 14.1511V12.9201C22.1137 11.4977 22.6533 10.1237 23.6387 9.09763C24.6242 8.07156 25.9754 7.47668 27.3976 7.44309H28.0246C28.0176 7.34378 28.0308 7.24412 28.0636 7.15012C28.3866 6.26212 30.5446 6.29013 32.8826 7.21213C33.3573 7.39865 33.8193 7.61624 34.2656 7.86325C35.239 8.30033 36.0643 9.01099 36.6408 9.90891C37.2174 10.8068 37.5203 11.8531 37.5126 12.9201V14.1511C37.5132 14.7138 37.4293 15.2735 37.2636 15.8112L37.6256 15.8691C37.9084 15.9218 38.1594 16.0833 38.3247 16.3188C38.4899 16.5544 38.5563 16.8452 38.5096 17.1291L38.0096 20.4731C37.9912 20.6132 37.9451 20.7483 37.8742 20.8706C37.8033 20.9928 37.7088 21.0997 37.5963 21.1853C37.4838 21.2708 37.3555 21.3334 37.2188 21.3691C37.082 21.4048 36.9395 21.413 36.7996 21.3933L36.5086 21.3462H36.5096Z" stroke="#3D3635" stroke-width="1.428" stroke-linecap="round" stroke-linejoin="round"/>
<path d="M27.1855 16.9082V17.7682" stroke="#3D3635" stroke-width="1.428" stroke-linecap="round" stroke-linejoin="round"/>
<path d="M32.7441 16.9082V17.7682" stroke="#3D3635" stroke-width="1.428" stroke-linecap="round" stroke-linejoin="round"/>
<path d="M31.4731 23.0566C31.046 23.402 30.5134 23.5906 29.9641 23.5906C29.4149 23.5906 28.8822 23.402 28.4551 23.0566" stroke="#3D3635" stroke-width="1.428" stroke-linecap="round" stroke-linejoin="round"/>
<path d="M37.8 15.8823C37.592 14.7273 35.8121 11.6952 33.5001 11.2012C29.6301 15.7932 23.464 9.64229 22.123 15.3943" stroke="#3D3635" stroke-width="1.428" stroke-linecap="round" stroke-linejoin="round"/>
<path d="M15.5991 32.4299L17.8361 31.4609L18.3241 45.052H11.5371L12.8541 35.176C12.9402 34.4556 13.2481 33.7797 13.7351 33.2419C14.2051 32.7419 14.9071 32.7309 15.5991 32.4299V32.4299Z" stroke="#3D3635" stroke-width="1.428" stroke-linecap="round" stroke-linejoin="round"/>
<path d="M41.989 31.4609L44.355 32.4299C45.755 33.0019 46.903 33.69 47.101 35.176L48.417 45.052H41.5L41.987 31.4609H41.989Z" stroke="#3D3635" stroke-width="1.428" stroke-linecap="round" stroke-linejoin="round"/>
<path d="M18.5996 31.0952L22.5406 29.0312L23.1276 39.4832H36.8276L37.4146 29.0312L41.3557 31.0952" stroke="#3D3635" stroke-width="1.428" stroke-linecap="round" stroke-linejoin="round"/>
<path d="M41.2336 45.0527H18.7246" stroke="#3D3635" stroke-width="1.428" stroke-linecap="round" stroke-linejoin="round"/>
</svg>
