<svg width="60" height="60" viewBox="0 0 60 60" fill="none" xmlns="http://www.w3.org/2000/svg">
<path d="M29.9738 59.844C46.2237 59.844 59.3968 46.6709 59.3968 30.421C59.3968 14.1712 46.2237 0.998047 29.9738 0.998047C13.7239 0.998047 0.550781 14.1712 0.550781 30.421C0.550781 46.6709 13.7239 59.844 29.9738 59.844Z" fill="white"/>
<path d="M28.5167 14.6222L36.8777 36.9831C37.0363 37.4103 37.0193 37.8828 36.8304 38.2975C36.6415 38.7122 36.2961 39.0354 35.8697 39.1962L24.1827 43.5671C23.7553 43.7253 23.2825 43.7082 22.8677 43.5192C22.4529 43.3302 22.1297 42.9845 21.9687 42.558L13.6077 20.1972C13.4492 19.77 13.4662 19.2974 13.6551 18.8827C13.844 18.468 14.1894 18.1448 14.6157 17.9841L26.3027 13.6132C26.7302 13.4549 27.203 13.4723 27.6178 13.6613C28.0326 13.8503 28.3557 14.1958 28.5167 14.6222Z" stroke="#3D3635" stroke-width="1.17" stroke-linecap="round" stroke-linejoin="round"/>
<path d="M29.468 16.9528L35.851 16.8459C36.3066 16.8394 36.7463 17.0136 37.074 17.3303C37.4017 17.6469 37.5908 18.0802 37.6 18.5358V18.5358L38 42.4059C38.0064 42.8617 37.8321 43.3016 37.5153 43.6293C37.1984 43.957 36.7647 44.146 36.309 44.155L23.834 44.3649" stroke="#3D3635" stroke-width="1.17" stroke-linecap="round" stroke-linejoin="round"/>
<path d="M37.7547 20.4199L43.6617 22.262C44.0964 22.3989 44.4592 22.7024 44.6709 23.106C44.8827 23.5096 44.926 23.9805 44.7916 24.416L37.6917 47.207C37.5549 47.6419 37.2516 48.0049 36.848 48.2168C36.4444 48.4287 35.9733 48.4723 35.5376 48.3379L23.6257 44.625C23.213 44.4262 22.8502 44.1373 22.5641 43.7795C22.278 43.4218 22.0759 43.0042 21.9727 42.5579" stroke="#3D3635" stroke-width="1.17" stroke-linecap="round" stroke-linejoin="round"/>
<path d="M25.4198 16.6998L17.0833 19.8049C16.6781 19.9558 16.472 20.4066 16.6229 20.8118L20.4703 31.1413C20.6212 31.5465 21.072 31.7526 21.4772 31.6017L29.8137 28.4966C30.2189 28.3457 30.425 27.8949 30.2741 27.4897L26.4267 17.1602C26.2758 16.755 25.825 16.5489 25.4198 16.6998Z" stroke="#3D3635" stroke-width="1.13087" stroke-linecap="round" stroke-linejoin="round"/>
<path d="M21.5625 34.4586L27.5615 32.2246" stroke="#3D3635" stroke-width="1.131" stroke-linecap="round" stroke-linejoin="round"/>
<path d="M22.3184 36.486L28.3174 34.252" stroke="#3D3635" stroke-width="1.131" stroke-linecap="round" stroke-linejoin="round"/>
</svg>
