<svg width="43" height="37" viewBox="0 0 43 37" fill="none" xmlns="http://www.w3.org/2000/svg">
<path d="M21.1 0L0 12.18V36.6H42.192V12.18L21.1 0ZM39.939 34.345H22.223V25.01L39.939 14.781V34.345ZM19.969 34.345H2.253V14.781L19.97 25.01L19.969 34.345ZM21.1 23.059L3.379 12.83L21.1 2.6L38.813 12.83L21.1 23.059Z" fill="#1E1E1E"/>
<path d="M39.9401 14.7793L22.2231 25.0103V34.3453H39.9401V14.7793Z" fill="#BDEA18"/>
<path d="M2.25293 34.3453H19.9699V25.0103L2.25293 14.7793V34.3453Z" fill="#FC3F4D"/>
<path d="M3.37891 12.8306L21.0919 23.0596L38.8129 12.8306L21.0919 2.60156L3.37891 12.8306Z" fill="white"/>
</svg>
