<svg width="65" height="69" viewBox="0 0 65 69" fill="none" xmlns="http://www.w3.org/2000/svg">
<path d="M18.0776 58.7002L18.9551 59.3002L15.7207 64.0272L14.8638 63.4402L14.6641 58.5212L12.436 61.7762L11.5508 61.1762L14.7847 56.4492L15.6421 57.0362L15.8477 61.9662L18.0776 58.7002Z" fill="white" stroke="white" stroke-width="0.3"/>
<path d="M22.1666 62.7939C22.3258 63.3789 22.2618 64.0022 21.9874 64.5429C21.9314 64.6739 21.8876 64.7699 21.8536 64.8329L18.8854 63.5519C18.8193 63.8388 18.8596 64.1399 18.9982 64.3996C19.1368 64.6593 19.3647 64.8601 19.6398 64.9649C19.842 65.0522 20.0592 65.0987 20.2794 65.1019C20.4976 65.1058 20.7144 65.0642 20.9157 64.9799L21.2067 65.7549C20.9076 65.891 20.5821 65.9592 20.2535 65.9549C19.8961 65.9472 19.5437 65.868 19.2174 65.7219C18.8361 65.567 18.5002 65.3179 18.2413 64.9979C18.0053 64.7024 17.8612 64.3444 17.8258 63.9679C17.7993 63.5653 17.8691 63.1622 18.0294 62.7919C18.1898 62.4217 18.4359 62.095 18.7477 61.8389C19.0473 61.6054 19.4076 61.4625 19.7858 61.4269C20.1868 61.3918 20.59 61.4606 20.9567 61.6269C21.2313 61.7214 21.4815 61.8748 21.6906 62.0764C21.8996 62.278 22.0623 62.5229 22.1666 62.7939V62.7939ZM21.2496 63.7939C21.3071 63.6629 21.3376 63.5216 21.3395 63.3785C21.3414 63.2354 21.3144 63.0934 21.2604 62.9609C21.137 62.6932 20.9136 62.4849 20.6378 62.3809C20.3775 62.2597 20.0808 62.2419 19.8077 62.3309C19.5271 62.431 19.2917 62.6287 19.1447 62.8879L21.2496 63.7939Z" fill="white" stroke="white" stroke-width="0.3"/>
<path d="M28.0881 62.0194L26.717 67.9334L25.6809 67.6924L25.8401 67.0074C25.6402 67.2051 25.3912 67.3463 25.1189 67.4164C24.8279 67.4849 24.5248 67.4821 24.2351 67.4084C23.8604 67.3296 23.5144 67.1494 23.2351 66.8874C22.9711 66.6318 22.7856 66.306 22.7009 65.9484C22.6155 65.5544 22.618 65.1465 22.7083 64.7536C22.7985 64.3608 22.9742 63.9926 23.2229 63.6754C23.4545 63.394 23.7627 63.1856 24.1101 63.0754C24.4705 62.9647 24.8542 62.9547 25.22 63.0464C25.5172 63.1083 25.7947 63.2422 26.0281 63.4364C26.2442 63.6216 26.4092 63.8592 26.5071 64.1264L27.052 61.7754L28.0881 62.0194ZM25.6169 66.4314C25.8974 66.2194 26.0947 65.9156 26.1741 65.5731C26.2534 65.2306 26.2098 64.8711 26.051 64.5574C25.9634 64.4163 25.8487 64.2939 25.7136 64.1974C25.5785 64.1008 25.4258 64.0319 25.2639 63.9947C25.1021 63.9575 24.9345 63.9528 24.7708 63.9807C24.607 64.0086 24.4502 64.0687 24.3098 64.1574C24.0275 64.368 23.8294 64.6717 23.7498 65.0148C23.6701 65.3578 23.7146 65.718 23.8752 66.0314C23.9577 66.1764 24.0703 66.3017 24.2058 66.3989C24.3413 66.4961 24.4962 66.5628 24.6599 66.5944C24.8217 66.6368 24.9907 66.6442 25.1555 66.6161C25.3204 66.588 25.4774 66.525 25.616 66.4314H25.6169Z" fill="white" stroke="white" stroke-width="0.3"/>
<path d="M32.2656 64.5378C32.6185 65.0302 32.7762 65.6359 32.7085 66.2378C32.7015 66.3788 32.6935 66.4848 32.6855 66.5558L29.4565 66.3938C29.4949 66.6856 29.6378 66.9537 29.8584 67.1485C30.0789 67.3433 30.3624 67.4518 30.6567 67.4538C30.8765 67.4653 31.0963 67.4334 31.3037 67.3598C31.5094 67.2865 31.6981 67.1718 31.8579 67.0228L32.3999 67.6468C32.1667 67.8778 31.8851 68.0543 31.5757 68.1638C31.238 68.2809 30.8806 68.3296 30.5239 68.3068C30.1127 68.2956 29.7111 68.18 29.3569 67.9708C29.0324 67.7763 28.7718 67.4913 28.6069 67.1508C28.4412 66.7829 28.3653 66.3808 28.3862 65.9778C28.4071 65.5748 28.5237 65.1827 28.7265 64.8338C28.9258 64.5106 29.2131 64.2508 29.5547 64.0848C29.9178 63.9107 30.3198 63.8336 30.7216 63.8608C31.0129 63.8538 31.302 63.9109 31.5688 64.0278C31.8356 64.1448 32.0734 64.3189 32.2656 64.5378V64.5378ZM31.7558 65.7988C31.7645 65.656 31.7442 65.5128 31.6963 65.3779C31.6483 65.243 31.5735 65.1192 31.4765 65.0138C31.2634 64.8189 30.9896 64.7042 30.7011 64.6892C30.4127 64.6742 30.1276 64.76 29.8955 64.9318C29.6674 65.1236 29.5158 65.3907 29.4677 65.6848L31.7558 65.7988Z" fill="white" stroke="white" stroke-width="0.3"/>
<path d="M35.2915 63.9516C35.5472 63.7742 35.8451 63.6677 36.1553 63.6426L36.2456 64.6696C36.0517 64.6634 35.8582 64.6964 35.6772 64.7664C35.4963 64.8365 35.3315 64.9424 35.1924 65.0776C35.0685 65.2091 34.9753 65.3665 34.9199 65.5384C34.8646 65.7104 34.8487 65.8925 34.8726 66.0716L35.0552 68.1716L33.9966 68.2636L33.6152 63.9026L34.6763 63.8106L34.7485 64.6496C34.8595 64.37 35.0478 64.1279 35.2915 63.9516V63.9516Z" fill="white" stroke="white" stroke-width="0.3"/>
<path d="M36.5254 61.8758L37.5713 61.6758L38.6904 67.6438L37.6445 67.8388L36.5254 61.8758Z" fill="white" stroke="white" stroke-width="0.3"/>
<path d="M42.9121 66.4925L42.749 65.9865C42.6598 66.2178 42.5126 66.422 42.3213 66.5795C42.102 66.7578 41.8498 66.8913 41.5791 66.9725C41.3155 67.0633 41.0344 67.0903 40.7583 67.0515C40.5144 67.017 40.2854 66.9128 40.0991 66.7515C39.9155 66.5916 39.7797 66.3839 39.707 66.1515C39.6431 65.98 39.6206 65.7958 39.6411 65.6139C39.6616 65.432 39.7247 65.2575 39.8252 65.1045C40.0881 64.7538 40.4616 64.5019 40.8853 64.3895L42.1001 63.9995L42.0659 63.8905C42.0371 63.7818 41.9838 63.681 41.9102 63.5959C41.8365 63.5108 41.7446 63.4437 41.6411 63.3995C41.3914 63.3166 41.1203 63.3247 40.876 63.4225C40.4394 63.578 40.0542 63.8506 39.7622 64.2105L39.1699 63.6265C39.4004 63.3733 39.6573 63.1454 39.936 62.9465C40.2139 62.7626 40.517 62.6201 40.8359 62.5235C41.2797 62.3504 41.7718 62.345 42.2192 62.5085C42.4147 62.597 42.5882 62.7274 42.7275 62.8906C42.8668 63.0537 42.9682 63.2456 43.0249 63.4525L43.9092 66.1775L42.9121 66.4925ZM42.2529 65.6695C42.3281 65.5859 42.3838 65.4867 42.416 65.379C42.4482 65.2712 42.456 65.1577 42.439 65.0465L42.3193 64.6715L41.2661 65.0095C41.0556 65.0616 40.863 65.1698 40.709 65.3225C40.6588 65.3856 40.6268 65.461 40.6157 65.5409C40.6046 65.6208 40.6149 65.7021 40.646 65.7765C40.6687 65.8585 40.7111 65.9339 40.769 65.9962C40.827 66.0585 40.8988 66.106 40.979 66.1345C41.1724 66.1952 41.381 66.1889 41.5703 66.1165C41.8366 66.0374 42.0728 65.8803 42.249 65.6655L42.2529 65.6695Z" fill="white" stroke="white" stroke-width="0.3"/>
<path d="M47.0908 60.1929C47.5148 60.3501 47.8597 60.6681 48.0508 61.078L49.3286 63.493L48.3809 63.993L47.2485 61.853C47.1927 61.733 47.1137 61.6254 47.0156 61.5366C46.9176 61.4478 46.8026 61.3796 46.6777 61.336C46.5519 61.3001 46.4202 61.2906 46.2905 61.3078C46.1608 61.325 46.036 61.3686 45.9238 61.436C45.7825 61.5057 45.6579 61.6055 45.5591 61.7283C45.4603 61.8511 45.3894 61.994 45.3516 62.147C45.2831 62.4677 45.3369 62.8025 45.502 63.086L46.5078 64.9859L45.5679 65.4859L43.5195 61.617L44.4609 61.117L44.8428 61.84C44.8473 61.5225 44.9428 61.213 45.1177 60.9481C45.2926 60.6832 45.5395 60.4739 45.8296 60.345C46.0175 60.2329 46.2271 60.1615 46.4443 60.1353C46.6615 60.1091 46.8817 60.1287 47.0908 60.1929V60.1929Z" fill="white" stroke="white" stroke-width="0.3"/>
<path d="M50.3728 55.0957L54.1667 59.8357L53.3347 60.5007L52.8957 59.9517C52.9272 60.2309 52.8841 60.5136 52.7707 60.7707C52.6441 61.0418 52.4544 61.2785 52.217 61.4607C51.9223 61.7057 51.5658 61.8652 51.1867 61.9217C50.8229 61.9707 50.4527 61.9145 50.1198 61.7597C49.7515 61.5872 49.4299 61.3289 49.1818 61.0067C48.9253 60.6985 48.7463 60.3333 48.6599 59.9417C48.5827 59.5864 48.6106 59.2164 48.7399 58.8767C48.8769 58.525 49.1071 58.2173 49.406 57.9867C49.6388 57.792 49.915 57.6568 50.2116 57.5927C50.4908 57.5385 50.7796 57.5564 51.05 57.6447L49.5407 55.7607L50.3728 55.0957ZM52.3049 59.7687C52.312 59.4178 52.1955 59.0755 51.9763 58.8014C51.757 58.5273 51.4486 58.3388 51.1047 58.2687C50.9391 58.2442 50.7704 58.2557 50.6096 58.3022C50.4488 58.3488 50.2999 58.4295 50.173 58.5387C50.0391 58.6379 49.928 58.7651 49.8479 58.9113C49.7677 59.0575 49.7202 59.2193 49.7087 59.3857C49.6996 59.7371 49.8153 60.0804 50.0349 60.3549C50.2545 60.6294 50.5641 60.8174 50.9089 60.8857C51.0737 60.9105 51.2419 60.8995 51.4021 60.8535C51.5622 60.8074 51.7102 60.7273 51.8366 60.6187C51.9707 60.5187 52.0819 60.3912 52.1628 60.2448C52.2437 60.0984 52.2926 59.9364 52.3059 59.7697L52.3049 59.7687Z" fill="white" stroke="white" stroke-width="0.3"/>
<path d="M9.47382 55.632C4.2762 50.0547 1.32195 42.7543 1.17744 35.1319C1.03293 27.5095 3.70862 20.1023 8.69111 14.332" stroke="white" stroke-width="2" stroke-linecap="round" stroke-linejoin="round"/>
<path d="M55.3755 14.1826C60.3077 19.8218 63.0253 27.0597 63.0234 34.5515C63.0216 42.0433 60.3002 49.2798 55.3652 54.9166" stroke="white" stroke-width="2" stroke-linecap="round" stroke-linejoin="round"/>
<path d="M15.0822 7.96179L15.7931 7.47278L16.9044 9.08978C16.7853 9.43099 16.6122 9.751 16.3922 10.0378C16.1746 10.3364 15.9085 10.5967 15.6051 10.8078C15.2093 11.0873 14.7469 11.2574 14.2643 11.3008C13.7994 11.3434 13.3315 11.262 12.9084 11.0648C12.4789 10.8677 12.1119 10.5563 11.8473 10.1648C11.5753 9.77895 11.4175 9.3242 11.3922 8.85278C11.3679 8.38335 11.4683 7.91582 11.6833 7.49777C11.9064 7.05813 12.2385 6.68317 12.6481 6.40878C12.9558 6.19767 13.2991 6.04356 13.6613 5.9538C14.0118 5.86185 14.3765 5.83605 14.7365 5.87778L14.6881 6.79678C14.4191 6.75469 14.1445 6.76421 13.8791 6.8248C13.6182 6.88198 13.3708 6.98856 13.1501 7.13879C12.8897 7.3147 12.6804 7.55614 12.5431 7.83878C12.407 8.11532 12.3483 8.42355 12.3732 8.73077C12.3986 9.04176 12.5055 9.34064 12.6828 9.59741C12.86 9.85419 13.1016 10.0598 13.3835 10.1938C13.666 10.3264 13.9783 10.3821 14.2892 10.3554C14.6001 10.3288 14.8987 10.2206 15.1544 10.0418C15.3085 9.93326 15.4461 9.80369 15.5641 9.6568C15.6933 9.49978 15.8024 9.32708 15.8883 9.14279L15.0822 7.96179Z" fill="white" stroke="white" stroke-width="0.3"/>
<path d="M19.3755 4.75455C19.8659 4.99673 20.2496 5.41167 20.4526 5.91956C20.5076 6.03556 20.5459 6.11956 20.5679 6.18256L17.9326 7.42655C18.0874 7.64226 18.3153 7.7947 18.5737 7.85572C18.8321 7.91673 19.1039 7.88222 19.3389 7.75855C19.5192 7.67477 19.6804 7.55539 19.8135 7.40756C19.9475 7.2638 20.05 7.09344 20.1138 6.90756L20.8135 7.17456C20.7255 7.45703 20.5771 7.71678 20.3779 7.93555C20.1594 8.1721 19.8955 8.36281 19.6025 8.49655C19.2707 8.66228 18.9024 8.74108 18.5317 8.72556C18.1907 8.70928 17.862 8.59352 17.5859 8.39255C17.2979 8.17045 17.0667 7.88285 16.9121 7.55362C16.7575 7.2244 16.6838 6.86303 16.6968 6.49954C16.7173 6.15773 16.8348 5.82887 17.0356 5.55155C17.25 5.2584 17.5367 5.02584 17.8677 4.87656C18.0951 4.748 18.348 4.67048 18.6084 4.64942C18.8688 4.62835 19.1303 4.66423 19.3755 4.75455V4.75455ZM19.5078 5.97354C19.4531 5.85718 19.3755 5.75297 19.2798 5.66709C19.1841 5.5812 19.0723 5.51539 18.9507 5.47354C18.6985 5.40857 18.4316 5.43353 18.1958 5.54413C17.96 5.65473 17.77 5.84408 17.6587 6.07956C17.5593 6.32922 17.5522 6.60615 17.6387 6.86057L19.5078 5.97354Z" fill="white" stroke="white" stroke-width="0.3"/>
<path d="M26.9766 2.36495C27.31 2.59743 27.5398 2.9508 27.6167 3.34994L28.2168 5.74096L27.2788 5.97396L26.7505 3.85494C26.7282 3.73694 26.6831 3.6245 26.6172 3.5241C26.5513 3.42371 26.4661 3.33734 26.3667 3.26995C26.2667 3.21091 26.1554 3.17331 26.04 3.15954C25.9247 3.14577 25.8079 3.15614 25.6968 3.18997C25.5625 3.22275 25.4366 3.28448 25.3286 3.37084C25.2207 3.45721 25.1332 3.56613 25.0718 3.68997C24.9477 3.95423 24.9243 4.25462 25.0059 4.53494L25.4756 6.42596L24.5376 6.65795L24.0107 4.53994C23.9659 4.30176 23.8283 4.09105 23.6284 3.95394C23.5294 3.89431 23.419 3.85627 23.3042 3.84231C23.1894 3.82835 23.0729 3.83879 22.9624 3.87295C22.8271 3.9052 22.7008 3.96666 22.5918 4.05303C22.4828 4.13941 22.3939 4.24861 22.3315 4.37295C22.2072 4.63709 22.1834 4.93751 22.2646 5.21795L22.7358 7.10796L21.8047 7.33996L20.8516 3.50994L21.7827 3.27795L21.9585 3.98696C22.0938 3.57507 22.3865 3.23349 22.7729 3.03692C23.1594 2.84034 23.6079 2.80476 24.0205 2.93795C24.2921 3.04613 24.5194 3.24272 24.6655 3.49597C24.702 3.18312 24.8385 2.89039 25.0547 2.66137C25.2709 2.43235 25.5555 2.27927 25.8657 2.22494C26.0504 2.16909 26.2446 2.15269 26.436 2.17681C26.6274 2.20093 26.8115 2.26504 26.9766 2.36495V2.36495Z" fill="white" stroke="white" stroke-width="0.3"/>
<path d="M31.4003 5.67973L31.3773 5.20072C31.2455 5.38106 31.0688 5.52407 30.8651 5.61573C30.6325 5.71974 30.382 5.77716 30.1273 5.78474C29.8766 5.8021 29.625 5.7596 29.3939 5.66075C29.191 5.57348 29.0175 5.42978 28.8939 5.24674C28.7705 5.06365 28.7014 4.84944 28.6942 4.62873C28.6786 4.46425 28.7016 4.2984 28.7621 4.14463C28.8225 3.99087 28.9184 3.8535 29.0419 3.74372C29.3529 3.5002 29.7372 3.36847 30.1322 3.36973L31.2821 3.31373L31.2772 3.21372C31.2782 3.11227 31.2558 3.01194 31.2118 2.92054C31.1677 2.82914 31.1033 2.74913 31.0233 2.68672C30.8254 2.55525 30.5868 2.49856 30.3509 2.52674C29.9342 2.5595 29.5348 2.70655 29.1962 2.95173L28.8182 2.30473C29.0782 2.13825 29.3548 1.99981 29.6439 1.89173C29.9289 1.79749 30.2263 1.74494 30.5262 1.73573C30.9533 1.68739 31.3832 1.79772 31.7342 2.04573C31.8837 2.16852 32.0043 2.3228 32.0873 2.49757C32.1702 2.67233 32.2136 2.86328 32.2142 3.05674L32.347 5.63572L31.4003 5.67973ZM31.0179 4.80772C31.1036 4.7528 31.1759 4.67938 31.2294 4.59284C31.2828 4.50631 31.3162 4.40887 31.327 4.30772L31.3099 3.95472L30.3099 4.00273C30.1145 3.99778 29.9219 4.04654 29.7523 4.14372C29.6937 4.18672 29.6472 4.24467 29.6185 4.3115C29.5899 4.37833 29.58 4.4516 29.5892 4.52372C29.59 4.60055 29.6089 4.67607 29.6449 4.74394C29.6809 4.8118 29.7331 4.87004 29.7963 4.91374C29.9508 5.01203 30.1341 5.05504 30.3163 5.03575C30.5678 5.03183 30.8121 4.95237 31.0179 4.80772V4.80772Z" fill="white" stroke="white" stroke-width="0.3"/>
<path d="M35.5731 5.87365L35.6171 5.39562C35.4614 5.55548 35.2672 5.6726 35.0531 5.73565C34.808 5.80601 34.5516 5.82775 34.2982 5.79964C34.0478 5.78236 33.805 5.70557 33.5902 5.57564C33.4002 5.46037 33.2473 5.29309 33.1493 5.09362C33.0532 4.89485 33.0144 4.67315 33.038 4.45363C33.0453 4.28866 33.0919 4.12775 33.1732 3.98403C33.2545 3.84031 33.3686 3.71787 33.5062 3.62664C33.8482 3.42851 34.2469 3.35167 34.6381 3.40862L35.784 3.50863L35.7943 3.40862C35.8089 3.30828 35.8004 3.20594 35.7694 3.1094C35.7384 3.01286 35.6854 2.9247 35.6151 2.85165C35.4368 2.69448 35.2087 2.60523 34.9711 2.59963C34.5548 2.57483 34.14 2.66478 33.7714 2.85964L33.4872 2.16665C33.7677 2.03838 34.061 1.94017 34.3622 1.87365C34.659 1.819 34.9621 1.80786 35.2621 1.84063C35.691 1.85351 36.1002 2.02282 36.413 2.31664C36.544 2.45882 36.6422 2.62819 36.7001 2.81264C36.758 2.9971 36.7746 3.19208 36.7484 3.38363L36.5214 5.95562L35.5731 5.87365ZM35.3163 4.95763C35.4085 4.91527 35.4901 4.85276 35.555 4.77471C35.6199 4.69666 35.6665 4.60507 35.6913 4.50664L35.723 4.15365L34.7313 4.06362C34.5386 4.03203 34.3406 4.05348 34.159 4.12563C34.0952 4.16026 34.0417 4.21136 34.0043 4.27361C33.9668 4.33586 33.9468 4.40699 33.9462 4.47964C33.9359 4.55548 33.944 4.63268 33.9701 4.70461C33.9962 4.77655 34.0395 4.84106 34.0961 4.89263C34.2354 5.0129 34.412 5.08142 34.5961 5.08663C34.8436 5.11676 35.0946 5.07181 35.3163 4.95763V4.95763Z" fill="white" stroke="white" stroke-width="0.3"/>
<path d="M39.9917 6.72803L39.353 4.80002L38.6167 5.276L38.3628 6.33801L37.4297 6.11401L38.7017 0.791016L39.6348 1.01401L38.897 4.10001L40.856 2.88501L41.9331 3.14203L40.1587 4.28003L41.103 6.99402L39.9917 6.72803Z" fill="white" stroke="white" stroke-width="0.3"/>
<path d="M43.8071 7.79684C43.4647 7.868 43.1092 7.84132 42.7812 7.71985C42.4904 7.62389 42.2478 7.41885 42.105 7.14786C42.0383 7.00032 42.0039 6.84025 42.0039 6.67834C42.0039 6.51644 42.0383 6.35637 42.105 6.20883L42.7891 4.38486L42.271 4.19086L42.5093 3.53085L43.0342 3.73083L43.4141 2.71484L44.3052 3.04785L43.9263 4.06384L44.9819 4.46384L44.7373 5.12085L43.6792 4.72086L43.0571 6.38583C42.9961 6.51001 42.9819 6.65205 43.0171 6.78586C43.0406 6.83774 43.075 6.88385 43.1182 6.92099C43.1613 6.95813 43.2123 6.98539 43.2671 7.00085C43.4552 7.058 43.6535 7.07335 43.8481 7.04584L43.8071 7.79684Z" fill="white" stroke="white" stroke-width="0.3"/>
<path d="M47.7637 5.61936L48.6035 6.08039L46.7036 9.53938L45.8613 9.07838L47.7637 5.61936ZM49.2583 4.69038C49.2913 4.83738 49.2698 4.99139 49.1973 5.12342C49.1247 5.25546 49.0065 5.35644 48.8647 5.40739C48.795 5.42788 48.7217 5.43437 48.6494 5.42649C48.5771 5.41862 48.5071 5.39653 48.4434 5.36149C48.3796 5.32646 48.3232 5.27919 48.2778 5.22236C48.2324 5.16554 48.1988 5.10028 48.1787 5.03038C48.1599 4.95828 48.1552 4.88319 48.1655 4.8094C48.1758 4.73561 48.2005 4.66458 48.2383 4.60038C48.3072 4.46425 48.4273 4.36102 48.5723 4.31337C48.6421 4.29287 48.7153 4.28639 48.7876 4.29426C48.8599 4.30213 48.9299 4.32423 48.9937 4.35926C49.0574 4.3943 49.1138 4.44157 49.1592 4.49839C49.2046 4.55522 49.2382 4.62047 49.2583 4.69038V4.69038Z" fill="white" stroke="white" stroke-width="0.3"/>
<path d="M52.5137 9.10855C52.5599 9.51391 52.4431 9.92105 52.1895 10.2406L50.7637 12.2505L49.9756 11.6916L51.2388 9.91055C51.3131 9.81723 51.3679 9.7099 51.3999 9.59497C51.4319 9.48004 51.4403 9.35983 51.4248 9.24155C51.403 9.12578 51.3576 9.01572 51.2915 8.91818C51.2254 8.82065 51.14 8.73773 51.0405 8.67456C50.9277 8.5894 50.7978 8.52989 50.6597 8.50018C50.5215 8.47048 50.3786 8.47128 50.2407 8.50256C49.9532 8.57611 49.7033 8.75444 49.5405 9.00256L48.4185 10.5836L47.6367 10.0286L49.9199 6.81055L50.7026 7.36557L50.2759 7.96555C50.5327 7.84131 50.8196 7.79293 51.103 7.82605C51.3864 7.85917 51.6542 7.97244 51.8755 8.15256C52.0429 8.25831 52.1865 8.39808 52.2964 8.56277C52.4063 8.72747 52.4802 8.9134 52.5137 9.10855Z" fill="white" stroke="white" stroke-width="0.3"/>
<path d="M29.5723 49.0627L29.5981 44.6097C29.6122 44.3245 29.6824 44.045 29.8047 43.7869C29.9269 43.5289 30.0993 43.2975 30.311 43.106C30.5228 42.9145 30.7701 42.7666 31.0391 42.6708C31.308 42.575 31.5933 42.5332 31.8784 42.5477V42.5477C32.4541 42.5192 33.0173 42.7203 33.4448 43.1069C33.8723 43.4935 34.129 44.0341 34.1582 44.6097L34.1831 49.0627" stroke="white" stroke-width="2" stroke-linecap="round" stroke-linejoin="round"/>
<path d="M13.7129 50.0547H49.1829" stroke="white" stroke-width="0.75" stroke-linecap="round" stroke-linejoin="round"/>
<path d="M31.7876 28.1158C32.1123 28.0979 32.435 28.1766 32.7148 28.3421C32.9947 28.5076 33.2196 28.7524 33.3604 29.0455C33.5011 29.3386 33.5516 29.6668 33.5059 29.9888C33.4601 30.3107 33.3199 30.6118 33.103 30.854C32.8861 31.0962 32.602 31.2687 32.2871 31.3496C31.9722 31.4305 31.6403 31.4162 31.3335 31.3085C31.0267 31.2008 30.7587 31.0045 30.5635 30.7445C30.3682 30.4845 30.2547 30.1724 30.2368 29.8478C30.2131 29.4125 30.363 28.9856 30.6538 28.6608C30.9446 28.3361 31.3523 28.14 31.7876 28.1158V28.1158Z" stroke="white" stroke-width="0.75" stroke-linecap="round" stroke-linejoin="round"/>
<path d="M26.082 22.7058L24.7632 24.5528M21.186 18.1748L19.3242 20.7828L21.186 18.1748ZM23.813 20.1938L22.04 22.6668L23.813 20.1938Z" stroke="white" stroke-width="2" stroke-linecap="round" stroke-linejoin="round"/>
<path d="M37.6729 36.8109L38.9922 34.9639M20.2949 40.4519L22.9028 42.3149L20.2949 40.4519ZM22.313 37.8249L24.79 39.5929L22.313 37.8249ZM24.8281 35.5509L26.6748 36.8709L24.8281 35.5509ZM42.5752 41.3439L44.438 38.7359L42.5752 41.3439ZM39.9468 39.3249L41.7148 36.8499L39.9468 39.3249Z" stroke="white" stroke-width="2" stroke-linecap="round" stroke-linejoin="round"/>
<path d="M38.9341 23.9642L37.0859 22.6452M43.4668 19.0632L40.8579 17.2012L43.4668 19.0632ZM41.4478 21.6902L38.9717 19.9222L41.4478 21.6902Z" stroke="white" stroke-width="2" stroke-linecap="round" stroke-linejoin="round"/>
<path d="M38.8799 41.7942L39.1367 49.5132M24.5039 49.5122L24.7866 39.7832L24.5039 49.5122Z" stroke="white" stroke-width="2" stroke-linecap="round" stroke-linejoin="round"/>
<path d="M31.7096 27.7717C32.1075 27.7495 32.5031 27.8459 32.8463 28.0486C33.1894 28.2513 33.4646 28.5512 33.6373 28.9104C33.81 29.2696 33.8725 29.672 33.8165 30.0666C33.7605 30.4612 33.5886 30.8304 33.3228 31.1273C33.057 31.4243 32.7093 31.6358 32.3233 31.7351C31.9373 31.8343 31.5305 31.8169 31.1544 31.6849C30.7783 31.553 30.4499 31.3125 30.2105 30.9938C29.9712 30.6751 29.8316 30.2926 29.8097 29.8947C29.7805 29.3613 29.9642 28.8381 30.3204 28.4401C30.6766 28.042 31.1762 27.8016 31.7096 27.7717V27.7717Z" stroke="white" stroke-width="2" stroke-linecap="round" stroke-linejoin="round"/>
<path d="M30.0059 28.4805L16.4336 18.7875L19.5537 14.1875C26.1357 19.5165 29.4934 19.5165 29.7534 27.6215" stroke="white" stroke-width="2" stroke-linecap="round" stroke-linejoin="round"/>
<path d="M30.5146 31.5986L20.8223 45.1716L16.2227 42.0506C21.5497 35.4706 21.5492 32.1107 29.6562 31.8557" stroke="white" stroke-width="2" stroke-linecap="round" stroke-linejoin="round"/>
<path d="M33.6348 31.0898L47.207 40.7829L44.0869 45.3828C37.5049 40.0538 34.1471 40.0539 33.8921 31.9489" stroke="white" stroke-width="2" stroke-linecap="round" stroke-linejoin="round"/>
<path d="M33.127 27.9715L42.8193 14.3984L47.4189 17.5194C42.0899 24.0994 42.0914 27.4594 33.9854 27.7144" stroke="white" stroke-width="2" stroke-linecap="round" stroke-linejoin="round"/>
<path d="M38.5122 27.5762C39.2892 29.6362 38.9712 32.3152 38.9712 34.3852M24.669 31.8402C24.669 29.5142 24.5314 27.8662 26.1324 25.7672L24.669 31.8402ZM29.6114 23.2982C30.6168 22.9729 31.6813 22.874 32.7295 23.0085C33.7777 23.143 34.7836 23.5076 35.6743 24.0762L29.6114 23.2982Z" stroke="white" stroke-width="2" stroke-linecap="round" stroke-linejoin="round"/>
</svg>
