<svg width="65" height="68" viewBox="0 0 65 68" fill="none" xmlns="http://www.w3.org/2000/svg">
<path d="M15.8828 21.4189H49.2471V48.834H15.8828V21.4189Z" stroke="white" stroke-width="2" stroke-linecap="round" stroke-linejoin="round"/>
<path d="M22.4062 19.1807V23.8507" stroke="white" stroke-width="2" stroke-linecap="round" stroke-linejoin="round"/>
<path d="M29.1777 19.1807V23.8507" stroke="white" stroke-width="2" stroke-linecap="round" stroke-linejoin="round"/>
<path d="M35.9512 19.1807V23.8507" stroke="white" stroke-width="2" stroke-linecap="round" stroke-linejoin="round"/>
<path d="M42.7246 19.1807V23.8507" stroke="white" stroke-width="2" stroke-linecap="round" stroke-linejoin="round"/>
<path d="M21.8691 30.0947V31.2687" stroke="white" stroke-width="2" stroke-linecap="round" stroke-linejoin="round"/>
<path d="M27.2246 30.0947V31.2687" stroke="white" stroke-width="2" stroke-linecap="round" stroke-linejoin="round"/>
<path d="M32.5801 30.0947V31.2687" stroke="white" stroke-width="2" stroke-linecap="round" stroke-linejoin="round"/>
<path d="M37.9355 30.0947V31.2687" stroke="white" stroke-width="2" stroke-linecap="round" stroke-linejoin="round"/>
<path d="M21.8691 41.9277V43.1197" stroke="white" stroke-width="2" stroke-linecap="round" stroke-linejoin="round"/>
<path d="M27.2246 41.9277V43.1197" stroke="white" stroke-width="2" stroke-linecap="round" stroke-linejoin="round"/>
<path d="M32.5801 41.9277V43.1197" stroke="white" stroke-width="2" stroke-linecap="round" stroke-linejoin="round"/>
<path d="M43.2598 30.0762V31.2502" stroke="white" stroke-width="2" stroke-linecap="round" stroke-linejoin="round"/>
<path d="M21.8691 36.0078V37.2008" stroke="white" stroke-width="2" stroke-linecap="round" stroke-linejoin="round"/>
<path d="M36.7017 34.501H39.0327C39.2905 34.5012 39.5373 34.6037 39.7197 34.7859C39.9021 34.9681 40.0048 35.2152 40.0054 35.473V37.794C40.0048 38.0519 39.9026 38.2991 39.7202 38.4814C39.5379 38.6638 39.2906 38.7665 39.0327 38.767H36.7017C36.4438 38.7662 36.197 38.6634 36.0146 38.4811C35.8323 38.2988 35.7293 38.0518 35.7285 37.794V35.473C35.7293 35.2153 35.8323 34.9683 36.0146 34.7862C36.197 34.6041 36.4439 34.5015 36.7017 34.501V34.501Z" stroke="white" stroke-width="2" stroke-linecap="round" stroke-linejoin="round"/>
<path d="M43.2598 36.0078V37.2008" stroke="white" stroke-width="2" stroke-linecap="round" stroke-linejoin="round"/>
<path d="M32.5488 36.0078V37.2008" stroke="white" stroke-width="2" stroke-linecap="round" stroke-linejoin="round"/>
<path d="M27.1934 36.0078V37.2008" stroke="white" stroke-width="2" stroke-linecap="round" stroke-linejoin="round"/>
<path d="M12.5968 58.2211C9.46101 55.5853 6.87988 52.3528 5.00357 48.7113C3.12725 45.0699 1.99301 41.0919 1.66665 37.0085C1.34029 32.9251 1.82857 28.8175 3.10269 24.9242C4.3768 21.0309 6.41166 17.4295 9.08902 14.3291" stroke="white" stroke-width="2" stroke-linecap="round" stroke-linejoin="round"/>
<path d="M55.7739 14.1826C58.4738 17.2692 60.533 20.8619 61.8315 24.7517C63.1301 28.6414 63.6422 32.7506 63.3379 36.8401C63.0336 40.9296 61.919 44.9177 60.0591 48.5724C58.1992 52.2272 55.6309 55.4756 52.5039 58.1286" stroke="white" stroke-width="2" stroke-linecap="round" stroke-linejoin="round"/>
<path d="M15.4809 7.96079L16.1918 7.47177L17.3026 9.08878C17.1825 9.42957 17.01 9.74945 16.7909 10.0368C16.5727 10.335 16.3067 10.5951 16.0038 10.8068C15.6082 11.0861 15.1462 11.2561 14.664 11.2998C14.1987 11.3423 13.7306 11.2609 13.307 11.0638C12.8778 10.8663 12.5108 10.555 12.246 10.1638C11.9738 9.77805 11.816 9.32324 11.7909 8.85178C11.7657 8.38239 11.8659 7.91473 12.081 7.49677C12.3048 7.05729 12.6371 6.68241 13.0468 6.40778C13.3544 6.1966 13.6977 6.0425 14.06 5.95279C14.4105 5.86089 14.7747 5.83509 15.1347 5.87677L15.0868 6.79578C14.8178 6.75371 14.5432 6.76322 14.2777 6.82379C14.0169 6.88079 13.7694 6.98738 13.5487 7.13779C13.2888 7.31416 13.0796 7.55547 12.9418 7.83777C12.8423 8.04748 12.7854 8.27475 12.7738 8.50656C12.7622 8.73837 12.7964 8.97018 12.8744 9.18878C12.9524 9.40738 13.0727 9.60848 13.2284 9.78058C13.3842 9.95267 13.5719 10.0924 13.7816 10.1918C14.062 10.3244 14.3729 10.3807 14.682 10.3548C14.9969 10.3312 15.2994 10.2223 15.557 10.0398C15.7117 9.93165 15.8497 9.80203 15.9677 9.65479C16.0966 9.49774 16.2053 9.32503 16.2909 9.14078L15.4809 7.96079Z" fill="white" stroke="white" stroke-width="0.3"/>
<path d="M19.7739 4.75394C20.2641 4.99601 20.6476 5.41102 20.85 5.91895C20.905 6.03495 20.9432 6.11895 20.9672 6.18195L18.332 7.42594C18.489 7.63825 18.715 7.78953 18.9711 7.85394C19.2303 7.91163 19.5011 7.87622 19.7368 7.75394C19.9169 7.66974 20.0785 7.55042 20.2119 7.40296C20.3453 7.25882 20.4478 7.08857 20.5122 6.90296L21.2119 7.16995C21.1243 7.45284 20.9751 7.71275 20.7748 7.93094C20.5572 8.16766 20.2944 8.35841 20.0019 8.49194C19.67 8.65763 19.3017 8.73642 18.9311 8.72095C18.59 8.70468 18.2609 8.58891 17.9848 8.38794C17.6967 8.16583 17.4658 7.87825 17.311 7.54904C17.1562 7.21984 17.0824 6.85849 17.0952 6.49494C17.1154 6.1529 17.2332 5.82386 17.435 5.54694C17.6493 5.25379 17.936 5.02123 18.267 4.87195C18.4946 4.74419 18.7475 4.66747 19.0078 4.6471C19.268 4.62672 19.5291 4.66317 19.7739 4.75394V4.75394ZM19.9062 5.97293C19.8514 5.85666 19.7738 5.75256 19.6782 5.66669C19.5825 5.58082 19.4706 5.51493 19.3491 5.47293C19.0968 5.40776 18.8295 5.43265 18.5937 5.54328C18.3578 5.6539 18.1682 5.84334 18.0571 6.07895C17.9572 6.32852 17.9501 6.60561 18.0371 6.85996L19.9062 5.97293Z" fill="white" stroke="white" stroke-width="0.3"/>
<path d="M27.376 2.36406C27.7092 2.59677 27.9389 2.95003 28.0161 3.34905L28.6157 5.74007L27.6792 5.97307L27.1509 3.85405C27.1287 3.73601 27.0835 3.62353 27.0176 3.52312C26.9517 3.42271 26.8666 3.33636 26.7671 3.26906C26.6671 3.21002 26.5558 3.17242 26.4404 3.15865C26.3251 3.14488 26.2083 3.15524 26.0972 3.18907C25.9628 3.22173 25.837 3.28342 25.729 3.3698C25.621 3.45618 25.5335 3.56516 25.4722 3.68907C25.3474 3.95314 25.3235 4.2538 25.4058 4.53404L25.876 6.42507L24.938 6.65706L24.4102 4.53905C24.3657 4.30099 24.2284 4.09027 24.0288 3.95305C23.9297 3.89347 23.8194 3.85547 23.7046 3.84151C23.5898 3.82755 23.4733 3.83797 23.3628 3.87206C23.2273 3.90411 23.1004 3.96551 22.9912 4.0519C22.882 4.13829 22.7933 4.24757 22.731 4.37206C22.6059 4.63605 22.5825 4.93685 22.665 5.21706L23.1348 7.10707L22.2041 7.33907L21.25 3.50905L22.1802 3.27706L22.3569 3.98607C22.4924 3.57411 22.7853 3.2325 23.1719 3.03594C23.5584 2.83937 24.0072 2.80383 24.4199 2.93706C24.6913 3.0457 24.9184 3.24218 25.0649 3.49507C25.1011 3.18211 25.2373 2.88922 25.4536 2.66014C25.6699 2.43107 25.9548 2.27807 26.2651 2.22405C26.4498 2.16813 26.644 2.15171 26.8354 2.17583C27.0269 2.19995 27.211 2.26409 27.376 2.36406V2.36406Z" fill="white" stroke="white" stroke-width="0.3"/>
<path d="M31.8016 5.67875L31.7797 5.19975C31.6479 5.38018 31.4712 5.52321 31.2674 5.61476C31.0351 5.71859 30.785 5.776 30.5306 5.78376C30.2796 5.80132 30.0276 5.75882 29.7963 5.65977C29.5935 5.57231 29.42 5.42865 29.2963 5.24577C29.1736 5.06228 29.1047 4.84831 29.0966 4.62776C29.0809 4.46327 29.104 4.29742 29.1644 4.14366C29.2249 3.98989 29.3207 3.85252 29.4442 3.74275C29.7552 3.49916 30.1395 3.36741 30.5345 3.36875L31.6835 3.31275L31.6786 3.21275C31.6795 3.1113 31.6572 3.01101 31.6132 2.91963C31.5691 2.82824 31.5046 2.7482 31.4247 2.68574C31.2268 2.55428 30.9882 2.49758 30.7523 2.52577C30.3362 2.55873 29.9374 2.70578 29.5995 2.95075L29.2206 2.30375C29.4807 2.13755 29.7572 1.99913 30.0463 1.89076C30.3315 1.79624 30.6292 1.74368 30.9296 1.73475C31.3566 1.68642 31.7866 1.79674 32.1376 2.04475C32.287 2.16763 32.4071 2.32194 32.4901 2.49668C32.5731 2.67143 32.6168 2.86233 32.6175 3.05577L32.7494 5.63474L31.8016 5.67875ZM31.4203 4.80674C31.5055 4.7514 31.5778 4.67786 31.6312 4.59141C31.6846 4.50496 31.718 4.40773 31.7294 4.30674L31.7113 3.95375L30.7113 4.00175C30.5159 3.99711 30.3229 4.04585 30.1532 4.14274C30.0948 4.18596 30.049 4.24394 30.0204 4.31071C29.9917 4.37748 29.9817 4.45064 29.9906 4.52275C29.9916 4.59965 30.0106 4.67519 30.0467 4.74305C30.0829 4.81091 30.1353 4.86912 30.1986 4.91276C30.3531 5.01112 30.5365 5.05414 30.7186 5.03477C30.9692 5.03026 31.2123 4.95082 31.4174 4.80674H31.4203Z" fill="white" stroke="white" stroke-width="0.3"/>
<path d="M35.971 5.87372L36.0139 5.39569C35.8579 5.5557 35.6634 5.67283 35.449 5.73572C35.2042 5.80608 34.9482 5.82782 34.6951 5.79971C34.4443 5.7824 34.2013 5.70561 33.9861 5.57571C33.7957 5.46092 33.6426 5.29351 33.5452 5.09369C33.4489 4.89496 33.4095 4.67339 33.4319 4.45371C33.4398 4.28875 33.4867 4.12796 33.5681 3.98431C33.6496 3.84066 33.7636 3.71818 33.9011 3.62671C34.2428 3.42873 34.6412 3.35189 35.032 3.40869L36.178 3.5087L36.1878 3.40869C36.2022 3.30835 36.1939 3.20604 36.1629 3.10953C36.1318 3.01301 36.0792 2.92485 36.009 2.85172C35.8306 2.6947 35.6026 2.60547 35.365 2.5997C34.9488 2.57506 34.5335 2.66499 34.1648 2.85971L33.8801 2.16672C34.1607 2.03855 34.454 1.94034 34.7551 1.87372C35.0519 1.81897 35.355 1.80783 35.655 1.8407C36.0846 1.85319 36.4946 2.02252 36.8079 2.31671C36.9387 2.45901 37.0366 2.62838 37.0945 2.81281C37.1524 2.99723 37.1688 3.19216 37.1428 3.3837L36.9148 5.95569L35.971 5.87372ZM35.7141 4.9577C35.8064 4.91534 35.888 4.85283 35.9529 4.77478C36.0178 4.69673 36.0643 4.60514 36.0891 4.50671L36.1218 4.15372L35.1301 4.06369C34.9371 4.03202 34.7387 4.05346 34.5569 4.1257C34.493 4.16036 34.4397 4.21143 34.4021 4.27365C34.3645 4.33587 34.344 4.407 34.343 4.47971C34.3333 4.55561 34.3417 4.63272 34.3679 4.70459C34.3942 4.77646 34.4375 4.84097 34.4939 4.8927C34.6333 5.01297 34.8099 5.08149 34.9939 5.0867C35.2414 5.11689 35.4925 5.07194 35.7141 4.9577V4.9577Z" fill="white" stroke="white" stroke-width="0.3"/>
<path d="M40.3901 6.72803L39.7515 4.80002L39.0151 5.276L38.7612 6.33801L37.8281 6.11401L39.1011 0.791016L40.0342 1.01401L39.2964 4.10001L41.2554 2.88501L42.332 3.14203L40.5581 4.28003L41.5015 6.99402L40.3901 6.72803Z" fill="white" stroke="white" stroke-width="0.3"/>
<path d="M44.2056 7.79587C43.8628 7.86694 43.5071 7.84027 43.1787 7.71887C42.888 7.62297 42.6457 7.41788 42.5034 7.14688C42.4367 6.99934 42.4023 6.83928 42.4023 6.67737C42.4023 6.51546 42.4367 6.3554 42.5034 6.20786L43.1855 4.38388L42.6665 4.18988L42.9053 3.52988L43.4316 3.72986L43.8115 2.71387L44.7026 3.04688L44.3223 4.06287L45.3804 4.46286L45.1343 5.11987L44.0776 4.71988L43.4546 6.38486C43.3943 6.50928 43.3804 6.65116 43.4155 6.78488C43.4392 6.83665 43.4739 6.88265 43.5171 6.91977C43.5602 6.95688 43.6108 6.98423 43.6655 6.99988C43.8543 7.05707 44.0532 7.07241 44.2485 7.04486L44.2056 7.79587Z" fill="white" stroke="white" stroke-width="0.3"/>
<path d="M48.1606 5.61834L49.002 6.07937L47.1021 9.53835L46.2617 9.07735L48.1606 5.61834ZM49.6606 4.68935C49.6794 4.76259 49.6837 4.83882 49.6729 4.91365C49.662 4.98848 49.6364 5.06043 49.5977 5.12536C49.5638 5.19186 49.5173 5.251 49.4604 5.2994C49.4036 5.34779 49.3381 5.38448 49.2671 5.40734C49.1974 5.42782 49.124 5.43433 49.0518 5.42644C48.9795 5.41856 48.9094 5.39645 48.8457 5.36141C48.782 5.32637 48.726 5.27907 48.6807 5.22225C48.6353 5.16543 48.602 5.10022 48.582 5.03035C48.5628 4.95835 48.5577 4.88324 48.5679 4.80941C48.578 4.73558 48.6027 4.66452 48.6406 4.60036C48.6748 4.53279 48.7223 4.47265 48.7798 4.42339C48.8373 4.37413 48.9041 4.33673 48.9761 4.31334C49.0458 4.29286 49.1187 4.28638 49.1909 4.29427C49.2632 4.30216 49.3333 4.32426 49.397 4.3593C49.4606 4.39434 49.5167 4.44162 49.562 4.49843C49.6073 4.55525 49.6406 4.62049 49.6606 4.69036V4.68935Z" fill="white" stroke="white" stroke-width="0.3"/>
<path d="M52.9131 9.10855C52.9591 9.51373 52.8428 9.9207 52.5898 10.2406L51.1641 12.2505L50.376 11.6916L51.6392 9.91055C51.7133 9.81714 51.7679 9.70982 51.7998 9.59491C51.8318 9.48 51.8405 9.35983 51.8252 9.24155C51.8033 9.12569 51.7576 9.0156 51.6914 8.91806C51.6252 8.82052 51.5396 8.73763 51.4399 8.67456C51.3266 8.58868 51.1957 8.52875 51.0566 8.49902C50.9175 8.4693 50.7738 8.47052 50.6353 8.50256C50.3495 8.57706 50.1014 8.75531 49.9399 9.00256L48.8169 10.5836L48.0352 10.0286L50.3188 6.81055L51.1011 7.36557L50.6748 7.96555C50.9317 7.84131 51.219 7.79293 51.5024 7.82605C51.7858 7.85917 52.0536 7.97244 52.2749 8.15256C52.4423 8.25827 52.5859 8.39801 52.6958 8.56271C52.8057 8.72741 52.8797 8.91337 52.9131 9.10855V9.10855Z" fill="white" stroke="white" stroke-width="0.3"/>
<path d="M20.3394 61.8858C20.4136 62.0709 20.4453 62.2704 20.4321 62.4695C20.419 62.6685 20.3616 62.862 20.2637 63.0358C20.1151 63.3344 19.8791 63.581 19.5874 63.7428C19.2837 63.9007 18.9418 63.97 18.6006 63.9428C18.1952 63.912 17.8009 63.795 17.4443 63.5998C17.1039 63.4225 16.7925 63.1946 16.5205 62.9238C16.2637 62.6775 16.0502 62.3898 15.8887 62.0728L16.6523 61.5268C16.8763 62.0618 17.2795 62.5023 17.7925 62.7728C18.0728 62.9396 18.3988 63.0134 18.7236 62.9838C18.8513 62.9694 18.9732 62.923 19.0781 62.8489C19.183 62.7747 19.2671 62.6753 19.3232 62.5598C19.386 62.45 19.4194 62.3258 19.4194 62.1993C19.4194 62.0728 19.386 61.9486 19.3232 61.8388C19.1456 61.561 18.8905 61.3412 18.5894 61.2068L17.8325 60.8138L18.1323 60.2348L20.1523 59.6348L18.0444 58.5348L18.4614 57.7168L21.8066 59.4558L21.4985 60.0478L19.2065 60.7178L19.4565 60.8838C19.8495 61.1159 20.1585 61.4668 20.3394 61.8858V61.8858Z" fill="white" stroke="white" stroke-width="0.3"/>
<path d="M23.3477 61.6982L24.4087 61.9042L24.7969 65.3043L26.4448 62.3182L27.4785 62.5273L27.8516 65.9272L29.5068 62.9423L30.5415 63.1512L28.1558 67.0652L27.1064 66.8532L26.6978 63.6722L25.0977 66.4453L24.0479 66.2332L23.3477 61.6982Z" fill="white" stroke="white" stroke-width="0.3"/>
<path d="M34.1663 63.4972C34.5461 63.9576 34.7407 64.543 34.7122 65.1392C34.7122 65.2782 34.7122 65.3832 34.7122 65.4532L31.532 65.5052C31.5887 65.7894 31.7465 66.0434 31.9759 66.2204C32.2053 66.3974 32.4908 66.4854 32.7801 66.4682C32.997 66.4647 33.2109 66.4185 33.4099 66.3322C33.6075 66.248 33.7851 66.1229 33.9309 65.9652L34.5042 66.5442C34.2903 66.7862 34.0254 66.9775 33.7283 67.1042C33.4045 67.2421 33.0563 67.3135 32.7044 67.3142C32.3 67.3296 31.8984 67.2419 31.5374 67.0592C31.2063 66.8895 30.932 66.6267 30.7483 66.3032C30.5618 65.9527 30.4613 65.5629 30.4554 65.1658C30.4494 64.7688 30.5381 64.3761 30.7141 64.0202C30.889 63.6896 31.1545 63.4157 31.4793 63.2302C31.8241 63.0344 32.2136 62.931 32.6101 62.9302C32.8952 62.9054 33.1822 62.9434 33.451 63.0413C33.7198 63.1393 33.964 63.2949 34.1663 63.4972V63.4972ZM33.7483 64.7682C33.7475 64.6275 33.7182 64.4883 33.6624 64.3591C33.6065 64.2299 33.5251 64.1132 33.4231 64.0162C33.2012 63.8383 32.9243 63.7432 32.6399 63.747C32.3555 63.7508 32.0811 63.8534 31.864 64.0372C31.6531 64.241 31.5215 64.5133 31.493 64.8052L33.7483 64.7682Z" fill="white" stroke="white" stroke-width="0.3"/>
<path d="M39.0762 66.624L37.6084 64.963L37.0742 65.756L37.2744 66.932L36.2422 67.109L35.2363 61.218L36.2686 61.041L36.8516 64.454L38.2954 62.394L39.4873 62.194L38.1953 64.094L40.3062 66.413L39.0762 66.624Z" fill="white" stroke="white" stroke-width="0.3"/>
<path d="M43.2648 61.466C43.7669 61.7878 44.1322 62.284 44.2906 62.859C44.3366 62.991 44.3679 63.091 44.3849 63.159L41.3756 64.191C41.5174 64.4435 41.7459 64.6363 42.0187 64.7337C42.2914 64.8311 42.5903 64.8266 42.86 64.721C43.0654 64.651 43.2546 64.5413 43.4176 64.398C43.5798 64.2568 43.7104 64.0826 43.7999 63.887L44.5245 64.261C44.3956 64.5572 44.2027 64.8212 43.9596 65.034C43.6938 65.2645 43.3851 65.4399 43.0509 65.55C42.6709 65.6889 42.262 65.7299 41.8619 65.669C41.4948 65.6095 41.1525 65.4445 40.8776 65.194C40.5916 64.9182 40.3755 64.5782 40.2472 64.2022C40.1188 63.8262 40.0821 63.4251 40.1398 63.032C40.2035 62.664 40.371 62.3219 40.6227 62.046C40.8901 61.7534 41.2292 61.5355 41.6066 61.414C41.8699 61.3008 42.155 61.2469 42.4415 61.2558C42.728 61.2648 43.009 61.3366 43.2648 61.466V61.466ZM43.2599 62.804C43.2155 62.6702 43.1442 62.5467 43.0509 62.441C42.9576 62.3353 42.8442 62.2496 42.7169 62.189C42.4512 62.0888 42.1587 62.0838 41.8898 62.175C41.6208 62.2662 41.3918 62.4478 41.2418 62.689C41.1043 62.9477 41.0637 63.2471 41.1276 63.533L43.2599 62.804Z" fill="white" stroke="white" stroke-width="0.3"/>
<path d="M47.7466 58.9854C48.1672 59.1307 48.513 59.4367 48.7085 59.8365L50.0156 62.1874L49.0938 62.7004L47.9355 60.6165C47.8788 60.4989 47.799 60.394 47.7007 60.3081C47.6024 60.2222 47.4874 60.157 47.3633 60.1165C47.239 60.0837 47.1095 60.0767 46.9824 60.0959C46.8553 60.1152 46.7335 60.1603 46.6245 60.2285C46.4867 60.2995 46.3663 60.3999 46.2715 60.5226C46.1766 60.6452 46.1098 60.7872 46.0757 60.9384C46.0145 61.2557 46.0737 61.5844 46.2417 61.8604L47.2715 63.7115L46.3555 64.2205L44.2617 60.4544L45.1777 59.9445L45.5684 60.6444C45.5658 60.3321 45.6532 60.0257 45.8198 59.7615C45.9865 59.4974 46.2253 59.2866 46.5083 59.1544C46.6912 59.0408 46.8961 58.967 47.1094 58.9379C47.3227 58.9088 47.5399 58.925 47.7466 58.9854V58.9854Z" fill="white" stroke="white" stroke-width="0.3"/>
</svg>
