<svg width="59" height="59" viewBox="0 0 59 59" fill="none" xmlns="http://www.w3.org/2000/svg">
<path d="M29.423 58.846C45.6729 58.846 58.846 45.6729 58.846 29.423C58.846 13.1731 45.6729 0 29.423 0C13.1731 0 0 13.1731 0 29.423C0 45.6729 13.1731 58.846 29.423 58.846Z" fill="white"/>
<path d="M16.432 22.0222C18.2752 21.6433 20.0131 20.8659 21.5243 19.7446C23.0354 18.6234 24.2831 17.1852 25.18 15.531C27.1644 17.5818 29.7731 18.9161 32.5973 19.325C35.4216 19.7338 38.3016 19.1939 40.786 17.79M32.057 45.26C34.4955 45.0121 36.7948 44.0056 38.631 42.3821C40.8806 40.033 42.1876 36.9384 42.303 33.688V23.0391C42.1714 19.8883 40.8607 16.9022 38.6308 14.6724C36.401 12.4425 33.4148 11.1317 30.264 11H28.702C25.5513 11.1317 22.565 12.4425 20.3352 14.6724C18.1053 16.9022 16.7947 19.8883 16.663 23.0391V33.6851L32.057 45.26ZM33.931 25.1851C34.0939 25.1851 34.2532 25.2335 34.3887 25.324C34.5242 25.4145 34.6298 25.5431 34.6922 25.6936C34.7546 25.8441 34.771 26.0096 34.7393 26.1694C34.7076 26.3292 34.6292 26.476 34.514 26.5913C34.3989 26.7066 34.2522 26.7852 34.0924 26.8171C33.9326 26.849 33.767 26.833 33.6164 26.7708C33.4658 26.7085 33.337 26.6029 33.2464 26.4675C33.1557 26.3322 33.1072 26.1729 33.107 26.01C33.1069 25.9017 33.1281 25.7947 33.1694 25.6946C33.2108 25.5945 33.2715 25.5034 33.348 25.4268C33.4245 25.3501 33.5154 25.2895 33.6155 25.248C33.7155 25.2066 33.8227 25.1851 33.931 25.1851V25.1851ZM25.031 25.1851C25.194 25.1851 25.3532 25.2335 25.4887 25.324C25.6242 25.4145 25.7298 25.5431 25.7922 25.6936C25.8546 25.8441 25.871 26.0096 25.8392 26.1694C25.8075 26.3292 25.7292 26.476 25.614 26.5913C25.4989 26.7066 25.3522 26.7852 25.1924 26.8171C25.0326 26.849 24.867 26.833 24.7164 26.7708C24.5658 26.7085 24.4371 26.6029 24.3464 26.4675C24.2557 26.3322 24.2072 26.1729 24.207 26.01C24.2069 25.9017 24.2281 25.7947 24.2695 25.6946C24.3108 25.5945 24.3715 25.5034 24.448 25.4268C24.5245 25.3501 24.6154 25.2895 24.7155 25.248C24.8155 25.2066 24.9227 25.1851 25.031 25.1851V25.1851ZM16.285 33.8491C14.82 33.6461 13.4779 32.9198 12.5065 31.8044C11.5351 30.6891 11 29.26 11 27.781C11 26.302 11.5351 24.8729 12.5065 23.7576C13.4779 22.6423 14.82 21.9162 16.285 21.7131V33.8491ZM42.639 33.8491C44.104 33.6461 45.4462 32.9198 46.4176 31.8044C47.389 30.6891 47.924 29.26 47.924 27.781C47.924 26.302 47.389 24.8729 46.4176 23.7576C45.4462 22.6423 44.104 21.9162 42.639 21.7131V33.8491ZM24.546 32.999C25.046 34.799 27.06 36.136 29.462 36.136C31.864 36.136 33.872 34.795 34.378 32.999H24.546ZM29.462 42.6992C29.9723 42.6992 30.4712 42.8505 30.8955 43.134C31.3198 43.4176 31.6505 43.8205 31.8457 44.292C32.041 44.7635 32.092 45.2822 31.9924 45.7827C31.8928 46.2832 31.6469 46.743 31.286 47.1038C30.9251 47.4645 30.4653 47.7101 29.9647 47.8096C29.4642 47.909 28.9454 47.8578 28.474 47.6624C28.0026 47.4669 27.5997 47.1361 27.3163 46.7117C27.033 46.2873 26.8818 45.7884 26.882 45.2781C26.8823 44.594 27.1542 43.938 27.638 43.4543C28.1219 42.9707 28.7779 42.6992 29.462 42.6992Z" stroke="#3D3635" stroke-width="1.56" stroke-linecap="round" stroke-linejoin="round"/>
</svg>
