<svg width="32" height="32" viewBox="0 0 32 32" fill="none" xmlns="http://www.w3.org/2000/svg">
<path d="M15.9596 31.5441C24.5106 31.5441 31.4426 24.6121 31.4426 16.0611C31.4426 7.5101 24.5106 0.578125 15.9596 0.578125C7.40854 0.578125 0.476562 7.5101 0.476562 16.0611C0.476562 24.6121 7.40854 31.5441 15.9596 31.5441Z" fill="#D4B69C"/>
<path d="M8.82483 12.457C9.79889 12.2566 10.7174 11.8456 11.516 11.2529C12.3146 10.6603 12.9739 9.90012 13.4479 9.02588C14.4958 10.1105 15.874 10.817 17.3665 11.0342C18.8589 11.2513 20.3812 10.9671 21.6948 10.2261M17.0779 24.7319C18.3662 24.601 19.581 24.069 20.5509 23.2109C21.74 21.9698 22.4308 20.3349 22.4918 18.6172V12.9902C22.4225 11.325 21.7299 9.74632 20.5513 8.56787C19.3726 7.38943 17.7942 6.69698 16.1289 6.62793H15.3038C13.6387 6.69722 12.0605 7.38994 10.8821 8.56836C9.70366 9.74678 9.01119 11.3251 8.94189 12.9902V18.6172L17.0779 24.7319ZM18.0669 14.1279C18.1529 14.1279 18.2371 14.1534 18.3086 14.2012C18.3801 14.249 18.4358 14.317 18.4688 14.3965C18.5017 14.476 18.5103 14.5636 18.4935 14.6479C18.4767 14.7323 18.4353 14.8098 18.3745 14.8706C18.3137 14.9314 18.2361 14.973 18.1517 14.9897C18.0674 15.0065 17.9799 14.9978 17.9004 14.9648C17.8209 14.9319 17.753 14.8762 17.7052 14.8047C17.6574 14.7332 17.6318 14.649 17.6318 14.563C17.6318 14.4476 17.6777 14.3369 17.7593 14.2554C17.8409 14.1738 17.9515 14.1279 18.0669 14.1279ZM13.3668 14.1279C13.4528 14.1281 13.5369 14.1537 13.6083 14.2017C13.6797 14.2496 13.7353 14.318 13.7681 14.3975C13.8008 14.477 13.8093 14.5641 13.7924 14.6484C13.7755 14.7328 13.734 14.8104 13.6731 14.8711C13.6122 14.9318 13.5347 14.973 13.4503 14.9897C13.366 15.0064 13.2786 14.9978 13.1992 14.9648C13.1198 14.9319 13.0519 14.8762 13.0042 14.8047C12.9564 14.7332 12.9309 14.649 12.9309 14.563C12.9312 14.4475 12.9772 14.3369 13.059 14.2554C13.1407 14.1738 13.2514 14.1279 13.3668 14.1279V14.1279ZM8.74487 18.7061C7.97053 18.599 7.26107 18.2154 6.74756 17.626C6.23405 17.0366 5.95117 16.2812 5.95117 15.4995C5.95117 14.7178 6.23405 13.9624 6.74756 13.373C7.26107 12.7837 7.97053 12.4 8.74487 12.293V18.7061ZM22.6719 18.7061C23.4462 18.599 24.1557 18.2154 24.6692 17.626C25.1827 17.0366 25.4656 16.2812 25.4656 15.4995C25.4656 14.7178 25.1827 13.9624 24.6692 13.373C24.1557 12.7837 23.4462 12.4 22.6719 12.293V18.7061ZM13.1099 18.2568C13.3395 18.753 13.7064 19.1733 14.1671 19.4678C14.6278 19.7622 15.1631 19.9185 15.7098 19.9185C16.2566 19.9185 16.792 19.7622 17.2527 19.4678C17.7134 19.1733 18.0802 18.753 18.3098 18.2568H13.1099ZM15.7098 23.3828C15.9794 23.3828 16.243 23.463 16.4672 23.6128C16.6913 23.7626 16.866 23.9756 16.9691 24.2246C17.0723 24.4737 17.0992 24.7473 17.0466 25.0117C16.994 25.2761 16.8643 25.5193 16.6737 25.71C16.4831 25.9006 16.2402 26.0304 15.9758 26.083C15.7114 26.1356 15.4373 26.1085 15.1882 26.0054C14.9392 25.9022 14.7263 25.7276 14.5765 25.5034C14.4268 25.2793 14.3469 25.0157 14.3469 24.7461C14.3472 24.3847 14.4908 24.0383 14.7463 23.7827C15.0019 23.5272 15.3484 23.3831 15.7098 23.3828V23.3828Z" stroke="#6C6463" stroke-width="1.5" stroke-linecap="round" stroke-linejoin="round"/>
</svg>
