<svg width="55" height="54" viewBox="0 0 55 54" fill="none" xmlns="http://www.w3.org/2000/svg">
<path d="M48.7703 28.7969V49.4038C48.7542 50.2069 48.428 50.9726 47.86 51.5405C47.292 52.1085 46.5263 52.4347 45.7233 52.4508H9.66223C8.85702 52.4415 8.08748 52.1175 7.51807 51.5481C6.94866 50.9787 6.62458 50.209 6.61523 49.4038V28.7969" stroke="#3D3635" stroke-width="2.156" stroke-linecap="round" stroke-linejoin="round"/>
<path d="M33.027 27.5264H22.354C21.9399 27.5277 21.5431 27.6928 21.2502 27.9856C20.9574 28.2784 20.7923 28.6752 20.791 29.0894V39.7654C20.7918 40.1798 20.9567 40.5769 21.2496 40.87C21.5426 41.1631 21.9396 41.3283 22.354 41.3293H33.027C33.4413 41.3283 33.8383 41.1631 34.131 40.87C34.4238 40.5769 34.5885 40.1797 34.589 39.7654V29.0894C34.5882 28.6752 34.4234 28.2783 34.1307 27.9854C33.8379 27.6924 33.4412 27.5274 33.027 27.5264V27.5264Z" stroke="#3D3635" stroke-width="2.156" stroke-linecap="round" stroke-linejoin="round"/>
<path d="M27.6426 33.7227L27.7206 41.0237" stroke="#3D3635" stroke-width="2.156" stroke-linecap="round" stroke-linejoin="round"/>
<path d="M34.2067 33.502L21.1777 33.58" stroke="#3D3635" stroke-width="2.156" stroke-linecap="round" stroke-linejoin="round"/>
<path d="M48.758 19.9232V2.49316H41.666V13.5513" stroke="#3D3635" stroke-width="2.156" stroke-linecap="round" stroke-linejoin="round"/>
<path d="M2 24.7429L2.229 24.994L2 25.194L5.81299 29.48L27.693 9.98694L49.573 29.48L53.386 25.194L53.158 24.994L53.386 24.7429L27.921 2L27.693 2.19995L27.465 2L2 24.7429Z" stroke="#3D3635" stroke-width="2.156" stroke-linecap="round" stroke-linejoin="round"/>
</svg>
