<svg width="554" height="555" viewBox="0 0 554 555" fill="none" xmlns="http://www.w3.org/2000/svg">
<path d="M553.5 1.41797H118V436.918H553.5V1.41797Z" fill="#BFBFBF"/>
<path d="M118 436.5L553.5 1" stroke="white" stroke-miterlimit="10"/>
<path d="M118 554.5C183.17 554.5 236 501.67 236 436.5C236 371.33 183.17 318.5 118 318.5C52.8304 318.5 0 371.33 0 436.5C0 501.67 52.8304 554.5 118 554.5Z" fill="white"/>
<path d="M118 553.5C182.617 553.5 235 501.117 235 436.5C235 371.883 182.617 319.5 118 319.5C53.3827 319.5 1 371.883 1 436.5C1 501.117 53.3827 553.5 118 553.5Z" stroke="#BFBFBF" stroke-width="2"/>
</svg>
