<svg width="94" height="90" viewBox="0 0 94 90" fill="none" xmlns="http://www.w3.org/2000/svg">
<path d="M48.494 0H44.68C20.0039 0 0 20.0039 0 44.68C0 69.3561 20.0039 89.36 44.68 89.36H48.494C73.1701 89.36 93.174 69.3561 93.174 44.68C93.174 20.0039 73.1701 0 48.494 0Z" fill="#F2E0D9"/>
<path d="M45.4671 15.9669L60.2072 55.3839C60.4857 56.137 60.4551 56.9697 60.1221 57.7004C59.789 58.431 59.1804 59.0002 58.4291 59.2839L37.8292 66.9839C37.0761 67.2627 36.2432 67.2323 35.5125 66.8992C34.7818 66.566 34.2126 65.9573 33.9292 65.2059L19.1892 25.7889C18.9103 25.0358 18.9408 24.2029 19.2739 23.4722C19.607 22.7415 20.2158 22.1723 20.9672 21.8889L41.5672 14.1889C42.3203 13.9103 43.153 13.9409 43.8836 14.274C44.6143 14.6071 45.1835 15.2157 45.4671 15.9669V15.9669Z" stroke="#3D3635" stroke-width="2.062" stroke-linecap="round" stroke-linejoin="round"/>
<path d="M47.1458 20.076L58.3978 19.887C59.2011 19.8758 59.9762 20.1829 60.5539 20.7412C61.1315 21.2996 61.4648 22.0638 61.4808 22.867V22.867L62.1888 64.944C62.1998 65.7473 61.8926 66.5223 61.3343 67.0998C60.776 67.6774 60.0119 68.0107 59.2088 68.027L37.2168 68.397" stroke="#3D3635" stroke-width="2.062" stroke-linecap="round" stroke-linejoin="round"/>
<path d="M61.7519 26.1875L72.1659 29.4335C72.9328 29.6749 73.573 30.2102 73.9463 30.9223C74.3196 31.6344 74.3956 32.4654 74.1579 33.2335V33.2335L61.6349 73.4095C61.3935 74.1765 60.8582 74.8167 60.1461 75.1901C59.434 75.5636 58.6031 75.6399 57.8349 75.4025L36.8349 68.8565C36.8349 68.8565 34.8679 68.1865 33.9219 65.2135" stroke="#3D3635" stroke-width="2.062" stroke-linecap="round" stroke-linejoin="round"/>
<path d="M40.0095 19.629L25.3155 25.102C24.6008 25.3682 24.2373 26.1633 24.5035 26.878L31.2849 45.0848C31.5511 45.7995 32.3462 46.163 33.0608 45.8969L47.7549 40.4238C48.4695 40.1577 48.8331 39.3625 48.5669 38.6479L41.7855 20.441C41.5193 19.7264 40.7242 19.3628 40.0095 19.629Z" stroke="#3D3635" stroke-width="1.99377" stroke-linecap="round" stroke-linejoin="round"/>
<path d="M33.2109 50.9341L43.7859 46.9961" stroke="#3D3635" stroke-width="1.994" stroke-linecap="round" stroke-linejoin="round"/>
<path d="M34.543 54.5073L45.118 50.5693" stroke="#3D3635" stroke-width="1.994" stroke-linecap="round" stroke-linejoin="round"/>
</svg>
