<svg width="59" height="65" viewBox="0 0 59 65" fill="none" xmlns="http://www.w3.org/2000/svg">
<path d="M28.4671 3.9669L43.2072 43.3839C43.4857 44.137 43.4551 44.9697 43.1221 45.7004C42.789 46.431 42.1804 47.0002 41.4291 47.2839L20.8292 54.9839C20.0761 55.2627 19.2432 55.2323 18.5125 54.8992C17.7818 54.566 17.2126 53.9573 16.9292 53.2059L2.18916 13.7889C1.91031 13.0358 1.94076 12.2029 2.27389 11.4722C2.60702 10.7415 3.21576 10.1723 3.96716 9.8889L24.5672 2.18889C25.3203 1.91031 26.153 1.94087 26.8836 2.27397C27.6143 2.60707 28.1835 3.21567 28.4671 3.9669V3.9669Z" stroke="#3D3635" stroke-width="2.062" stroke-linecap="round" stroke-linejoin="round"/>
<path d="M30.1458 8.07604L41.3978 7.88702C42.2011 7.87576 42.9762 8.18285 43.5539 8.7412C44.1315 9.29955 44.4648 10.0638 44.4808 10.867V10.867L45.1888 52.944C45.1998 53.7473 44.8926 54.5223 44.3343 55.0998C43.776 55.6774 43.0119 56.0107 42.2088 56.027L20.2168 56.397" stroke="#3D3635" stroke-width="2.062" stroke-linecap="round" stroke-linejoin="round"/>
<path d="M44.7519 14.1875L55.1659 17.4335C55.9328 17.6749 56.573 18.2102 56.9463 18.9223C57.3196 19.6344 57.3956 20.4654 57.1579 21.2335V21.2335L44.6349 61.4095C44.3935 62.1765 43.8582 62.8167 43.1461 63.1901C42.434 63.5636 41.6031 63.6399 40.8349 63.4025L19.8349 56.8565C19.8349 56.8565 17.8679 56.1865 16.9219 53.2135" stroke="#3D3635" stroke-width="2.062" stroke-linecap="round" stroke-linejoin="round"/>
<path d="M23.0095 7.629L8.31548 13.102C7.60083 13.3682 7.23727 14.1633 7.50345 14.878L14.2849 33.0848C14.5511 33.7995 15.3462 34.163 16.0608 33.8969L30.7549 28.4238C31.4695 28.1577 31.8331 27.3625 31.5669 26.6479L24.7855 8.44103C24.5193 7.72637 23.7242 7.36281 23.0095 7.629Z" stroke="#3D3635" stroke-width="1.99377" stroke-linecap="round" stroke-linejoin="round"/>
<path d="M16.2109 38.9341L26.7859 34.9961" stroke="#3D3635" stroke-width="1.994" stroke-linecap="round" stroke-linejoin="round"/>
<path d="M17.543 42.5073L28.118 38.5693" stroke="#3D3635" stroke-width="1.994" stroke-linecap="round" stroke-linejoin="round"/>
</svg>
