<svg width="66" height="57" viewBox="0 0 66 57" fill="none" xmlns="http://www.w3.org/2000/svg">
<path d="M16.847 13.9877L20.957 8.36268M30.868 22.4846C29.768 24.9286 31.462 28.4027 31.887 29.5377H25.387L30.868 22.4846ZM3.20996 45.6187H30.895C31.2097 45.6146 31.5134 45.7343 31.7407 45.952C31.9679 46.1698 32.1006 46.4681 32.11 46.7827V54.4307C32.099 54.7447 31.9659 55.0419 31.739 55.2592C31.512 55.4764 31.2091 55.5964 30.895 55.5936H3.21497C2.90043 55.5977 2.59687 55.4781 2.36963 55.2606C2.14239 55.0431 2.00967 54.7451 2 54.4307V46.7827C2.00787 46.4676 2.14 46.1683 2.36761 45.9503C2.59523 45.7322 2.89981 45.613 3.21497 45.6187H3.20996ZM46.902 4.62965H50.062C50.183 4.62965 53.8959 8.17169 53.8959 9.15669V14.0126C53.8959 14.9986 50.179 18.5407 50.062 18.5407H46.902V4.62965ZM6.08398 45.2496C5.75281 45.2202 5.43326 45.113 5.15125 44.9369C4.86923 44.7608 4.63271 44.5207 4.46088 44.236C4.28904 43.9514 4.18671 43.6303 4.16223 43.2987C4.13775 42.9671 4.19184 42.6344 4.32001 42.3276L9.15601 27.3386C9.82001 25.2816 8.43897 22.5497 6.55597 21.3787C4.60397 20.1647 2.32196 19.5536 2.32196 17.3226V6.05665C2.34924 4.95855 2.80976 3.91582 3.60297 3.15596C4.39618 2.39609 5.45771 1.9808 6.55597 2.00068H41.377C42.4751 1.98159 43.5363 2.39708 44.3295 3.15675C45.1227 3.91642 45.5837 4.95872 45.612 6.05665V17.3256C45.5829 18.4233 45.1217 19.4652 44.3287 20.2247C43.5356 20.9842 42.4749 21.4 41.377 21.3817H30.257C28.13 21.3817 26.172 23.5647 25.528 25.5087C24.987 27.1437 21.498 35.4727 21.498 37.5307C21.498 40.0987 23.02 43.6587 25.246 44.7647C25.0837 44.7923 24.9196 44.8073 24.755 44.8096L6.08398 45.2496ZM53.898 11.5877H64.345H53.898ZM9.98297 13.9877L14.093 8.36268L9.98297 13.9877Z" stroke="#3D3635" stroke-width="2.396" stroke-linecap="round" stroke-linejoin="round"/>
</svg>
