<svg width="94" height="90" viewBox="0 0 94 90" fill="none" xmlns="http://www.w3.org/2000/svg">
<path d="M48.494 0H44.68C20.0039 0 0 20.0039 0 44.68C0 69.3561 20.0039 89.36 44.68 89.36H48.494C73.1701 89.36 93.174 69.3561 93.174 44.68C93.174 20.0039 73.1701 0 48.494 0Z" fill="#F2E0D9"/>
<path d="M30.847 29.9877L34.957 24.3627M44.868 38.4846C43.768 40.9286 45.462 44.4027 45.887 45.5377H39.387L44.868 38.4846ZM17.21 61.6187H44.895C45.2097 61.6146 45.5134 61.7343 45.7407 61.952C45.9679 62.1698 46.1006 62.4681 46.11 62.7827V70.4307C46.099 70.7447 45.9659 71.0419 45.739 71.2592C45.512 71.4764 45.2091 71.5964 44.895 71.5936H17.215C16.9004 71.5977 16.5969 71.4781 16.3696 71.2606C16.1424 71.0431 16.0097 70.7451 16 70.4307V62.7827C16.0079 62.4676 16.14 62.1683 16.3676 61.9503C16.5952 61.7322 16.8998 61.613 17.215 61.6187H17.21ZM60.902 20.6296H64.062C64.183 20.6296 67.8959 24.1717 67.8959 25.1567V30.0126C67.8959 30.9986 64.179 34.5407 64.062 34.5407H60.902V20.6296ZM20.084 61.2496C19.7528 61.2202 19.4333 61.113 19.1512 60.9369C18.8692 60.7608 18.6327 60.5207 18.4609 60.236C18.289 59.9514 18.1867 59.6303 18.1622 59.2987C18.1378 58.9671 18.1918 58.6344 18.32 58.3276L23.156 43.3386C23.82 41.2816 22.439 38.5497 20.556 37.3787C18.604 36.1647 16.322 35.5536 16.322 33.3226V22.0567C16.3492 20.9585 16.8098 19.9158 17.603 19.156C18.3962 18.3961 19.4577 17.9808 20.556 18.0007H55.377C56.4751 17.9816 57.5363 18.3971 58.3295 19.1567C59.1227 19.9164 59.5837 20.9587 59.612 22.0567V33.3256C59.5829 34.4233 59.1217 35.4652 58.3287 36.2247C57.5356 36.9842 56.4749 37.4 55.377 37.3817H44.257C42.13 37.3817 40.172 39.5647 39.528 41.5087C38.987 43.1437 35.498 51.4727 35.498 53.5307C35.498 56.0987 37.02 59.6587 39.246 60.7647C39.0837 60.7923 38.9196 60.8073 38.755 60.8096L20.084 61.2496ZM67.898 27.5877H78.345H67.898ZM23.983 29.9877L28.093 24.3627L23.983 29.9877Z" stroke="#3D3635" stroke-width="2.396" stroke-linecap="round" stroke-linejoin="round"/>
</svg>
