<svg width="16" height="9" viewBox="0 0 16 9" fill="none" xmlns="http://www.w3.org/2000/svg">
<path fill-rule="evenodd" clip-rule="evenodd" d="M2.74051 8.26978C2.537 8.47202 2.26162 8.58533 1.97471 8.58489C1.6878 8.58444 1.41278 8.47026 1.2099 8.26739C1.00703 8.06452 0.892855 7.78949 0.892406 7.50258C0.891958 7.21568 1.00527 6.94029 1.20751 6.73678L7.40751 0.536785C7.6108 0.333498 7.88651 0.219293 8.17401 0.219293C8.4615 0.219293 8.73722 0.333498 8.94051 0.536785L15.1405 6.73678C15.3438 6.9414 15.4575 7.21839 15.4565 7.50682C15.4556 7.79525 15.3401 8.0715 15.1355 8.27478C14.9309 8.47807 14.6539 8.59175 14.3655 8.59081C14.077 8.58988 13.8008 8.4744 13.5975 8.26978L8.16651 2.83878L2.74051 8.26978Z" fill="#D4B69C"/>
</svg>
