<svg width="77" height="61" viewBox="0 0 77 61" fill="none" xmlns="http://www.w3.org/2000/svg">
<path d="M51.5834 1.00024C53.7198 1.00292 55.8345 1.42855 57.8056 2.2526C59.7767 3.07665 61.5651 4.28281 63.0677 5.80149C64.5703 7.32017 65.7573 9.12132 66.5604 11.1011C67.3634 13.0808 67.7665 15.1999 67.7464 17.3362C67.7296 20.5504 66.7599 23.6875 64.9601 26.3506C63.1603 29.0137 60.6112 31.0833 57.6352 32.2976C54.6592 33.5119 51.3899 33.8165 48.2407 33.1727C45.0916 32.5289 42.2041 30.9657 39.9434 28.6809C37.6827 26.396 36.1504 23.492 35.5402 20.3362C34.93 17.1804 35.2693 13.9145 36.5152 10.9516C37.7612 7.98865 39.8578 5.46173 42.5399 3.69039C45.222 1.91906 48.3692 0.982876 51.5834 1.00024ZM51.5834 4.43924C49.0496 4.42209 46.5675 5.15668 44.4512 6.55012C42.3348 7.94356 40.6791 9.93327 39.6936 12.2677C38.708 14.602 38.4368 17.1762 38.9141 19.6648C39.3915 22.1533 40.5961 24.4444 42.3756 26.2483C44.1551 28.0523 46.4295 29.288 48.9113 29.7994C51.393 30.3107 53.9707 30.0746 56.3183 29.121C58.666 28.1674 60.6781 26.5391 62.1003 24.442C63.5225 22.3449 64.2909 19.8731 64.3084 17.3392C64.3253 15.6552 64.009 13.9845 63.3776 12.4232C62.7463 10.8619 61.8124 9.44083 60.6297 8.24187C59.447 7.04291 58.0389 6.0897 56.4863 5.43708C54.9338 4.78447 53.2675 4.44535 51.5834 4.43924Z" fill="#CBA480" stroke="white" stroke-width="0.5"/>
<path d="M30.603 58.4349C30.5725 58.6524 30.499 58.8616 30.3868 59.0504C30.2746 59.2392 30.1259 59.4038 29.9494 59.5345C29.7729 59.6652 29.5722 59.7595 29.3588 59.8118C29.1455 59.8641 28.9239 59.8734 28.707 59.8391C28.4901 59.8048 28.2821 59.7277 28.0953 59.6122C27.9085 59.4967 27.7465 59.3452 27.6189 59.1664C27.4913 58.9877 27.4006 58.7853 27.352 58.5711C27.3034 58.3569 27.298 58.1352 27.336 57.9189C28.0068 51.9576 30.8501 46.4524 35.3228 42.4547C39.7955 38.457 45.5841 36.2471 51.583 36.2471C57.5819 36.2471 63.3706 38.457 67.8433 42.4547C72.316 46.4524 75.1593 51.9576 75.83 57.9189C75.8699 58.3739 75.7304 58.8265 75.4411 59.18C75.1519 59.5335 74.7359 59.7599 74.282 59.8109C74.0657 59.864 73.8404 59.8693 73.6218 59.8263C73.4032 59.7834 73.1967 59.6932 73.0165 59.5622C72.8364 59.4312 72.687 59.2625 72.5788 59.0677C72.4706 58.873 72.4062 58.6571 72.39 58.4349C71.8293 53.2852 69.3865 48.524 65.5304 45.065C61.6743 41.606 56.6767 39.693 51.4965 39.693C46.3164 39.693 41.3187 41.606 37.4627 45.065C33.6066 48.524 31.1638 53.2852 30.603 58.4349Z" fill="#CBA480" stroke="white" stroke-width="0.5"/>
<path d="M19.5974 14.9291C22.0973 14.946 24.5361 15.7038 26.6054 17.1068C28.6746 18.5097 30.2814 20.4948 31.2224 22.811C32.1635 25.1271 32.3965 27.6703 31.8922 30.1189C31.3878 32.5675 30.1686 34.8116 28.3889 36.5673C26.6091 38.323 24.3487 39.5115 21.8934 39.9825C19.4382 40.4535 16.8984 40.1858 14.5953 39.2133C12.2922 38.2409 10.3291 36.6073 8.95446 34.5191C7.57979 32.431 6.85522 29.9821 6.87237 27.4821C6.88165 25.8218 7.21838 24.1795 7.86328 22.6495C8.50818 21.1195 9.44857 19.7317 10.6306 18.5657C11.8126 17.3996 13.2131 16.4782 14.7517 15.8542C16.2904 15.2302 17.937 14.9158 19.5974 14.9291ZM19.5974 18.3681C17.7706 18.3511 15.9801 18.8784 14.454 19.8827C12.928 20.887 11.7355 22.323 11.0285 24.0075C10.3216 25.6921 10.1322 27.549 10.4844 29.3416C10.8366 31.1342 11.7146 32.7813 13.0064 34.0731C14.2982 35.3649 15.9453 36.2429 17.7379 36.5951C19.5305 36.9473 21.3874 36.7579 23.072 36.0509C24.7565 35.344 26.1924 34.1515 27.1968 32.6255C28.2011 31.0994 28.7284 29.3089 28.7114 27.4821C28.6859 25.0728 27.7175 22.7694 26.0138 21.0657C24.31 19.362 22.0066 18.3936 19.5974 18.3681Z" fill="#CBA480" stroke="white" stroke-width="0.5"/>
<path d="M4.46419 58.4348C4.38492 58.8627 4.14452 59.244 3.79252 59.5C3.44053 59.7559 3.00376 59.8672 2.57219 59.8108C2.34087 59.803 2.11389 59.7458 1.90643 59.6432C1.69898 59.5406 1.51584 59.3948 1.36927 59.2157C1.22271 59.0366 1.1161 58.8282 1.05659 58.6045C0.997077 58.3808 0.986032 58.147 1.02419 57.9188C1.7063 53.4772 3.95238 49.4252 7.35767 46.4931C10.763 43.5611 15.1035 41.9417 19.5972 41.9268C22.575 42.0186 25.5021 42.7211 28.1972 43.9908C28.5516 44.2677 28.8092 44.6498 28.9328 45.0823C29.0564 45.5148 29.0398 45.9753 28.8852 46.3978C28.7753 46.6039 28.6251 46.7859 28.4434 46.9328C28.2617 47.0796 28.0523 47.1884 27.8277 47.2526C27.6031 47.3168 27.3678 47.3352 27.136 47.3065C26.9041 47.2778 26.6804 47.2027 26.4782 47.0858C24.3469 45.9938 21.9936 45.4054 19.5992 45.3658C15.9225 45.3452 12.3629 46.658 9.58001 49.061C6.79714 51.464 4.97961 54.7943 4.46419 58.4348Z" fill="#CBA480" stroke="white" stroke-width="0.5"/>
</svg>
