<svg width="48" height="48" viewBox="0 0 48 48" fill="none" xmlns="http://www.w3.org/2000/svg">
<path d="M23.654 47.308C36.7177 47.308 47.308 36.7177 47.308 23.654C47.308 10.5903 36.7177 0 23.654 0C10.5903 0 0 10.5903 0 23.654C0 36.7177 10.5903 47.308 23.654 47.308Z" fill="#6C6463"/>
<path d="M34.49 16H32V10C32 9.73478 31.8946 9.48043 31.7071 9.29289C31.5196 9.10536 31.2652 9 31 9H15C14.7348 9 14.4804 9.10536 14.2929 9.29289C14.1054 9.48043 14 9.73478 14 10V16H11.51C10.5791 16 9.68631 16.3698 9.02806 17.0281C8.3698 17.6863 8 18.5791 8 19.51V28.51C8.00528 29.4374 8.37742 30.3251 9.0351 30.979C9.69278 31.633 10.5825 32 11.51 32H15V38C15 38.2652 15.1054 38.5196 15.2929 38.7071C15.4804 38.8946 15.7348 39 16 39H30C30.2652 39 30.5196 38.8946 30.7071 38.7071C30.8946 38.5196 31 38.2652 31 38V32H34.49C35.4209 32 36.3137 31.6302 36.9719 30.9719C37.6302 30.3137 38 29.4209 38 28.49V19.49C37.9947 18.5626 37.6226 17.6749 36.9649 17.021C36.3072 16.367 35.4175 16 34.49 16ZM16 11H30V16H16V11ZM29 37H17V25H29V37ZM36 28.49C36 28.8905 35.8409 29.2746 35.5577 29.5577C35.2746 29.8409 34.8905 30 34.49 30H31V25C31.2652 25 31.5196 24.8946 31.7071 24.7071C31.8946 24.5196 32 24.2652 32 24C32 23.7348 31.8946 23.4804 31.7071 23.2929C31.5196 23.1054 31.2652 23 31 23H15C14.7348 23 14.4804 23.1054 14.2929 23.2929C14.1054 23.4804 14 23.7348 14 24C14 24.2652 14.1054 24.5196 14.2929 24.7071C14.4804 24.8946 14.7348 25 15 25V30H11.51C11.3117 30 11.1153 29.9609 10.9321 29.8851C10.7489 29.8092 10.5825 29.6979 10.4423 29.5577C10.3021 29.4175 10.1908 29.2511 10.1149 29.0679C10.0391 28.8847 10 28.6883 10 28.49V19.49C10.0053 19.093 10.1667 18.714 10.4493 18.4352C10.7319 18.1563 11.113 18 11.51 18H34.51C34.907 18.0053 35.286 18.1667 35.5648 18.4493C35.8437 18.7319 36 19.113 36 19.51V28.49Z" fill="#E8D2C9"/>
<path d="M26 27H20C19.7348 27 19.4804 27.1054 19.2929 27.2929C19.1054 27.4804 19 27.7348 19 28C19 28.2652 19.1054 28.5196 19.2929 28.7071C19.4804 28.8946 19.7348 29 20 29H26C26.2652 29 26.5196 28.8946 26.7071 28.7071C26.8946 28.5196 27 28.2652 27 28C27 27.7348 26.8946 27.4804 26.7071 27.2929C26.5196 27.1054 26.2652 27 26 27Z" fill="#E8D2C9"/>
<path d="M26 32H20C19.7348 32 19.4804 32.1054 19.2929 32.2929C19.1054 32.4804 19 32.7348 19 33C19 33.2652 19.1054 33.5196 19.2929 33.7071C19.4804 33.8946 19.7348 34 20 34H26C26.2652 34 26.5196 33.8946 26.7071 33.7071C26.8946 33.5196 27 33.2652 27 33C27 32.7348 26.8946 32.4804 26.7071 32.2929C26.5196 32.1054 26.2652 32 26 32Z" fill="#E8D2C9"/>
</svg>
