<svg width="22" height="20" viewBox="0 0 22 20" fill="none" xmlns="http://www.w3.org/2000/svg">
<path d="M20.4085 2.95326L10.3115 12.1653L6.64448 8.16526C6.47394 7.97576 6.23512 7.86177 5.98054 7.84836C5.72596 7.83496 5.47648 7.92323 5.28698 8.09376C5.09748 8.2643 4.98349 8.50312 4.97008 8.7577C4.95667 9.01228 5.04495 9.26176 5.21548 9.45126L9.52648 14.1663C9.70002 14.3505 9.93795 14.4608 10.1907 14.474C10.4435 14.4872 10.6917 14.4024 10.8835 14.2373L21.6955 4.35426C21.8773 4.17934 21.9859 3.94179 21.9991 3.68979C22.0123 3.43779 21.9291 3.19021 21.7665 2.99726C21.591 2.81354 21.3504 2.706 21.0965 2.69777C20.8425 2.68955 20.5955 2.78128 20.4085 2.95326Z" fill="#CBA480"/>
<path d="M10.9996 20C12.3128 20 13.6131 19.7413 14.8264 19.2388C16.0396 18.7362 17.142 17.9996 18.0706 17.0711C18.9992 16.1425 19.7358 15.0401 20.2384 13.8268C20.7409 12.6136 20.9996 11.3132 20.9996 9.99999C21.0026 9.53774 20.9692 9.07597 20.8996 8.61899C20.8582 8.37541 20.7236 8.15753 20.5243 8.01155C20.3249 7.86557 20.0766 7.80298 19.8319 7.83707C19.5872 7.87115 19.3654 7.99922 19.2136 8.19411C19.0617 8.38901 18.9918 8.63539 19.0186 8.88099C19.0685 9.25198 19.0956 9.62568 19.0996 9.99999C19.1003 11.8444 18.4716 13.6339 17.3173 15.0725C16.163 16.5111 14.5523 17.5127 12.7515 17.9116C10.9508 18.3106 9.06776 18.083 7.41389 17.2665C5.76001 16.45 4.43432 15.0935 3.65602 13.4213C2.87773 11.7491 2.69343 9.86141 3.13361 8.07026C3.57379 6.27912 4.61208 4.69185 6.07681 3.57089C7.54153 2.44994 9.34496 1.86245 11.1889 1.90556C13.0328 1.94868 14.8068 2.61981 16.2176 3.80799C16.313 3.88777 16.4231 3.94798 16.5418 3.98517C16.6605 4.02237 16.7853 4.03582 16.9092 4.02477C17.0331 4.01372 17.1536 3.97838 17.2638 3.92077C17.374 3.86315 17.4718 3.7844 17.5516 3.68899C17.6313 3.59359 17.6915 3.4834 17.7287 3.36473C17.7659 3.24606 17.7794 3.12122 17.7683 2.99735C17.7573 2.87347 17.7219 2.75299 17.6643 2.64277C17.6067 2.53256 17.528 2.43477 17.4326 2.35499C16.2023 1.31768 14.74 0.592568 13.1696 0.241242C11.5992 -0.110085 9.96728 -0.0772513 8.41232 0.336953C6.85736 0.751158 5.42533 1.5345 4.23782 2.62046C3.05032 3.70641 2.14243 5.06291 1.59124 6.57475C1.04006 8.08659 0.861862 9.70911 1.07179 11.3045C1.28171 12.9 1.87356 14.4212 2.79706 15.739C3.72057 17.0568 4.94846 18.1323 6.37645 18.8741C7.80445 19.6159 9.39038 20.0021 10.9996 20Z" fill="#CBA480"/>
</svg>
