<svg width="16" height="9" viewBox="0 0 16 9" fill="none" xmlns="http://www.w3.org/2000/svg">
<path fill-rule="evenodd" clip-rule="evenodd" d="M2.74051 0.542281C2.537 0.340043 2.26162 0.22673 1.97471 0.22718C1.6878 0.227629 1.41278 0.341801 1.2099 0.544675C1.00703 0.747549 0.892856 1.02258 0.892406 1.30948C0.891957 1.59639 1.00527 1.87177 1.20751 2.07528L7.40751 8.27528C7.6108 8.47857 7.88651 8.59277 8.17401 8.59277C8.4615 8.59277 8.73722 8.47857 8.94051 8.27528L15.1405 2.07528C15.3438 1.87067 15.4575 1.59368 15.4565 1.30525C15.4556 1.01681 15.3401 0.74057 15.1355 0.537281C14.9309 0.333993 14.6539 0.220313 14.3655 0.221251C14.077 0.222188 13.8008 0.337667 13.5975 0.542281L8.16651 5.97428L2.74051 0.542281Z" fill="#D4B69C"/>
</svg>
