<svg width="117" height="117" viewBox="0 0 117 117" fill="none" xmlns="http://www.w3.org/2000/svg">
<path d="M58.5 117C90.8087 117 117 90.8087 117 58.5C117 26.1913 90.8087 0 58.5 0C26.1913 0 0 26.1913 0 58.5C0 90.8087 26.1913 117 58.5 117Z" fill="white"/>
<path d="M71.5834 29.0002C73.7198 29.0029 75.8345 29.4286 77.8056 30.2526C79.7767 31.0767 81.5651 32.2828 83.0677 33.8015C84.5703 35.3202 85.7573 37.1213 86.5604 39.1011C87.3634 41.0808 87.7665 43.1999 87.7464 45.3362C87.7296 48.5504 86.7599 51.6875 84.9601 54.3506C83.1603 57.0137 80.6112 59.0833 77.6352 60.2976C74.6592 61.5119 71.3899 61.8165 68.2407 61.1727C65.0916 60.5289 62.2041 58.9657 59.9434 56.6809C57.6827 54.396 56.1504 51.492 55.5402 48.3362C54.93 45.1804 55.2693 41.9145 56.5152 38.9516C57.7612 35.9886 59.8578 33.4617 62.5399 31.6904C65.222 29.9191 68.3692 28.9829 71.5834 29.0002V29.0002ZM71.5834 32.4392C69.0496 32.4221 66.5675 33.1567 64.4512 34.5501C62.3348 35.9436 60.6791 37.9333 59.6936 40.2677C58.708 42.602 58.4368 45.1762 58.9141 47.6648C59.3915 50.1533 60.5961 52.4444 62.3756 54.2483C64.1551 56.0523 66.4295 57.288 68.9113 57.7994C71.393 58.3107 73.9707 58.0746 76.3183 57.121C78.666 56.1674 80.6781 54.5391 82.1003 52.442C83.5225 50.3449 84.2909 47.8731 84.3084 45.3392C84.3253 43.6552 84.009 41.9845 83.3776 40.4232C82.7463 38.8619 81.8124 37.4408 80.6297 36.2419C79.447 35.0429 78.0389 34.0897 76.4863 33.4371C74.9338 32.7845 73.2675 32.4453 71.5834 32.4392V32.4392Z" fill="#CBA480" stroke="white" stroke-width="0.5"/>
<path d="M50.603 86.4349C50.5725 86.6524 50.499 86.8616 50.3868 87.0504C50.2746 87.2392 50.1259 87.4038 49.9494 87.5345C49.7729 87.6652 49.5722 87.7595 49.3588 87.8118C49.1455 87.8641 48.9239 87.8734 48.707 87.8391C48.4901 87.8048 48.2821 87.7277 48.0953 87.6122C47.9085 87.4967 47.7465 87.3452 47.6189 87.1664C47.4913 86.9877 47.4006 86.7853 47.352 86.5711C47.3034 86.3569 47.298 86.1352 47.336 85.9189C48.0068 79.9576 50.8501 74.4524 55.3228 70.4547C59.7955 66.457 65.5841 64.2471 71.583 64.2471C77.5819 64.2471 83.3706 66.457 87.8433 70.4547C92.316 74.4524 95.1593 79.9576 95.83 85.9189C95.8699 86.3739 95.7304 86.8265 95.4411 87.18C95.1519 87.5335 94.7359 87.7599 94.282 87.8109C94.0657 87.864 93.8404 87.8693 93.6218 87.8263C93.4032 87.7834 93.1967 87.6932 93.0165 87.5622C92.8364 87.4312 92.687 87.2625 92.5788 87.0677C92.4706 86.873 92.4062 86.6571 92.39 86.4349C91.8293 81.2852 89.3865 76.524 85.5304 73.065C81.6743 69.606 76.6767 67.693 71.4965 67.693C66.3164 67.693 61.3187 69.606 57.4627 73.065C53.6066 76.524 51.1638 81.2852 50.603 86.4349V86.4349Z" fill="#CBA480" stroke="white" stroke-width="0.5"/>
<path d="M39.5974 42.9291C42.0973 42.946 44.5361 43.7038 46.6054 45.1068C48.6746 46.5097 50.2814 48.4948 51.2224 50.811C52.1635 53.1271 52.3965 55.6703 51.8922 58.1189C51.3878 60.5675 50.1686 62.8116 48.3889 64.5673C46.6091 66.323 44.3487 67.5115 41.8934 67.9825C39.4382 68.4535 36.8984 68.1858 34.5953 67.2133C32.2922 66.2409 30.3291 64.6073 28.9545 62.5191C27.5798 60.431 26.8552 57.9821 26.8724 55.4821C26.8817 53.8218 27.2184 52.1795 27.8633 50.6495C28.5082 49.1195 29.4486 47.7317 30.6306 46.5657C31.8126 45.3996 33.2131 44.4782 34.7517 43.8542C36.2904 43.2302 37.937 42.9158 39.5974 42.9291V42.9291ZM39.5974 46.3681C37.7706 46.3511 35.9801 46.8784 34.454 47.8827C32.928 48.887 31.7355 50.323 31.0285 52.0075C30.3216 53.6921 30.1322 55.549 30.4844 57.3416C30.8366 59.1342 31.7146 60.7813 33.0064 62.0731C34.2982 63.3649 35.9453 64.2429 37.7379 64.5951C39.5305 64.9473 41.3874 64.7579 43.072 64.0509C44.7565 63.344 46.1924 62.1515 47.1968 60.6255C48.2011 59.0994 48.7284 57.3089 48.7114 55.4821C48.6859 53.0728 47.7175 50.7694 46.0138 49.0657C44.31 47.362 42.0066 46.3936 39.5974 46.3681V46.3681Z" fill="#CBA480" stroke="white" stroke-width="0.5"/>
<path d="M24.4642 86.4348C24.3849 86.8627 24.1445 87.244 23.7925 87.5C23.4405 87.7559 23.0038 87.8672 22.5722 87.8108C22.3409 87.803 22.1139 87.7458 21.9064 87.6432C21.699 87.5406 21.5158 87.3948 21.3693 87.2157C21.2227 87.0366 21.1161 86.8282 21.0566 86.6045C20.9971 86.3808 20.986 86.147 21.0242 85.9188C21.7063 81.4772 23.9524 77.4252 27.3577 74.4931C30.763 71.5611 35.1035 69.9417 39.5972 69.9268C42.575 70.0186 45.5021 70.7211 48.1972 71.9908C48.5516 72.2677 48.8092 72.6498 48.9328 73.0823C49.0564 73.5148 49.0398 73.9753 48.8852 74.3978C48.7753 74.6039 48.6251 74.7859 48.4434 74.9328C48.2617 75.0796 48.0523 75.1884 47.8277 75.2526C47.6031 75.3168 47.3678 75.3352 47.136 75.3065C46.9041 75.2778 46.6804 75.2027 46.4782 75.0858C44.3469 73.9938 41.9936 73.4054 39.5992 73.3658C35.9225 73.3452 32.3629 74.658 29.58 77.061C26.7971 79.464 24.9796 82.7943 24.4642 86.4348V86.4348Z" fill="#CBA480" stroke="white" stroke-width="0.5"/>
</svg>
