<svg width="23" height="21" viewBox="0 0 23 21" fill="none" xmlns="http://www.w3.org/2000/svg">
<path d="M21.7635 12.4124C21.7601 14.4237 20.9595 16.3517 19.5372 17.7738C18.1149 19.1959 16.1868 19.9962 14.1755 19.9994H2.37552C2.16507 19.9994 1.96324 19.9158 1.81443 19.767C1.66562 19.6182 1.58202 19.4163 1.58202 19.2059C1.58202 18.9954 1.66562 18.7936 1.81443 18.6448C1.96324 18.496 2.16507 18.4124 2.37552 18.4124H14.1755C14.9634 18.4124 15.7437 18.2572 16.4716 17.9557C17.1996 17.6541 17.861 17.2122 18.4182 16.655C18.9753 16.0979 19.4173 15.4365 19.7188 14.7085C20.0203 13.9805 20.1755 13.2003 20.1755 12.4124C20.1755 11.6245 20.0203 10.8443 19.7188 10.1163C19.4173 9.38834 18.9753 8.72691 18.4182 8.16976C17.861 7.6126 17.1996 7.17065 16.4716 6.86912C15.7437 6.56759 14.9634 6.4124 14.1755 6.4124H3.93652L6.40652 8.8824C6.48019 8.95607 6.53863 9.04353 6.5785 9.13979C6.61837 9.23604 6.63889 9.33921 6.63889 9.4434C6.63889 9.54758 6.61837 9.65075 6.5785 9.74701C6.53863 9.84326 6.48019 9.93073 6.40652 10.0044C6.33285 10.0781 6.24539 10.1365 6.14913 10.1764C6.05287 10.2162 5.9497 10.2368 5.84552 10.2368C5.74133 10.2368 5.63816 10.2162 5.54191 10.1764C5.44565 10.1365 5.35819 10.0781 5.28452 10.0044L1.45952 6.1794C1.45252 6.1724 1.45052 6.1624 1.44352 6.1544C1.37792 6.08675 1.32507 6.00782 1.28752 5.9214C1.28752 5.9144 1.28752 5.9074 1.28252 5.9004C1.25263 5.8203 1.23608 5.73585 1.23352 5.6504C1.23206 5.62308 1.23206 5.59571 1.23352 5.5684C1.23741 5.50036 1.25019 5.43312 1.27152 5.3684C1.2794 5.34157 1.28874 5.3152 1.29952 5.2894C1.33686 5.20227 1.38972 5.12264 1.45552 5.0544L5.28652 1.2314C5.4353 1.08261 5.6371 0.999023 5.84752 0.999023C6.05793 0.999023 6.25973 1.08261 6.40852 1.2314C6.5573 1.38018 6.64089 1.58198 6.64089 1.7924C6.64089 2.00281 6.5573 2.20461 6.40852 2.3534L3.93652 4.8244H14.1755C16.187 4.82757 18.1152 5.62804 19.5375 7.05038C20.9599 8.47272 21.7603 10.4009 21.7635 12.4124Z" fill="#3C3C3B" stroke="#3C3C3B"/>
</svg>
