<svg width="27" height="25" viewBox="0 0 27 25" fill="none" xmlns="http://www.w3.org/2000/svg">
<path fill-rule="evenodd" clip-rule="evenodd" d="M13.8813 0C13.76 0.00587181 13.6434 0.0483875 13.5468 0.121948C13.4502 0.195509 13.3782 0.29664 13.3403 0.411987L10.5403 9.09796L1.41632 9.07996C1.292 9.08281 1.17164 9.12425 1.07188 9.19849C0.972116 9.27273 0.897887 9.37612 0.859454 9.49438C0.821021 9.61265 0.820283 9.73994 0.857342 9.85864C0.894401 9.97734 0.967426 10.0816 1.06632 10.157L8.45932 15.507L5.61632 24.184C5.58055 24.3031 5.58268 24.4304 5.62242 24.5482C5.66215 24.6661 5.73753 24.7687 5.83813 24.8419C5.93872 24.915 6.05956 24.955 6.18393 24.9565C6.30829 24.9579 6.43003 24.9207 6.53232 24.85L13.9043 19.47L21.2793 24.85C21.3816 24.9207 21.5033 24.9579 21.6277 24.9565C21.7521 24.955 21.8729 24.915 21.9735 24.8419C22.0741 24.7687 22.1495 24.6661 22.1892 24.5482C22.229 24.4304 22.2311 24.3031 22.1953 24.184L19.3563 15.507L26.7493 10.157C26.8482 10.0816 26.9212 9.97734 26.9583 9.85864C26.9954 9.73994 26.9946 9.61265 26.9562 9.49438C26.9178 9.37612 26.8435 9.27273 26.7438 9.19849C26.644 9.12425 26.5236 9.08281 26.3993 9.07996L17.2753 9.09796L14.4693 0.411987C14.4285 0.288775 14.3489 0.182136 14.2423 0.108032C14.1357 0.0339281 14.008 -0.00365665 13.8783 0.000976562L13.8813 0Z" fill="#D4B69C"/>
</svg>
