<svg width="117" height="117" viewBox="0 0 117 117" fill="none" xmlns="http://www.w3.org/2000/svg">
<path d="M58.5 117C90.8087 117 117 90.8087 117 58.5C117 26.1913 90.8087 0 58.5 0C26.1913 0 0 26.1913 0 58.5C0 90.8087 26.1913 117 58.5 117Z" fill="white"/>
<path d="M70.4825 66.026L48.5904 89.5025C47.7931 90.3574 46.7172 91.1153 45.6326 90.1039L33.2947 78.5986C31.8112 77.2867 30.5722 75.722 29.6353 73.9774C28.2124 71.1062 27.8285 67.8307 28.5489 64.7083C29.1904 62.1064 30.5294 59.7286 32.4216 57.831C33.7911 56.3624 35.1042 54.8222 36.5615 53.4355C38.958 51.2532 42.0385 49.9717 45.2757 49.8103C48.513 49.6488 51.7057 50.6175 54.3074 52.5505C55.2818 53.3327 56.2132 54.167 57.0975 55.0497L70.5749 67.6176C70.7945 67.8105 71.0806 67.9102 71.3726 67.8957C71.6645 67.8811 71.9393 67.7534 72.1387 67.5396C72.338 67.3259 72.4462 67.0428 72.4404 66.7506C72.4345 66.4583 72.3151 66.1799 72.1073 65.9742L57.0276 51.9121C54.7323 49.7746 51.8678 48.3464 48.7794 47.7997C45.6909 47.253 42.5102 47.6111 39.6207 48.8309C37.2021 49.9633 35.0487 51.5917 33.3002 53.6103C31.7593 55.131 30.3147 56.7462 28.9748 58.4466C27.0125 61.2183 25.9679 64.5351 25.9877 67.931C26.0074 71.3269 27.0905 74.6313 29.0848 77.38C30.0887 78.6505 31.2084 79.8251 32.4294 80.8887L42.2142 90.0131C43.1046 91.0443 44.1724 91.908 45.3669 92.5634C46.111 92.8527 46.9244 92.9141 47.7035 92.7397C48.4827 92.5654 49.1923 92.1631 49.7421 91.5842L72.1293 67.5767C72.3205 67.356 72.4189 67.0698 72.4041 66.7782C72.3892 66.4865 72.2622 66.2119 72.0496 66.0117C71.837 65.8115 71.5552 65.7012 71.2632 65.7038C70.9711 65.7065 70.6914 65.822 70.4825 66.026Z" fill="#CBA480"/>
<path d="M65.5985 61.4651L90.458 34.8065C90.6593 34.5875 90.7663 34.2981 90.756 34.0008C90.7456 33.7035 90.6186 33.4223 90.4025 33.2179L89.0766 31.9814C88.8569 31.7885 88.5708 31.6888 88.2789 31.7034C87.9869 31.7179 87.7121 31.8456 87.5128 32.0594C87.3135 32.2732 87.2052 32.5562 87.2111 32.8484C87.2169 33.1407 87.3364 33.4191 87.5441 33.6248L91.5761 37.3846C92.7462 38.4758 94.7624 39.9868 93.1679 41.6967L70.4942 66.0113C70.3013 66.2309 70.2015 66.517 70.2161 66.8089C70.2307 67.1009 70.3584 67.3757 70.5722 67.575C70.7859 67.7744 71.0689 67.8826 71.3612 67.8767C71.6534 67.8709 71.9319 67.7514 72.1375 67.5437L94.1661 43.921C94.7231 43.4357 95.1716 42.8386 95.4825 42.1685C95.7933 41.4983 95.9596 40.7703 95.9703 40.0316C95.8914 37.7703 93.6878 36.2623 92.1761 34.8526L89.0861 31.9712C88.8665 31.7783 88.5803 31.6786 88.2884 31.6931C87.9965 31.7077 87.7217 31.8354 87.5224 32.0491C87.323 32.2629 87.2148 32.5459 87.2206 32.8382C87.2265 33.1304 87.3459 33.4089 87.5537 33.6145L88.8796 34.851L88.8241 33.2624L63.9639 59.9217C63.7693 60.14 63.6674 60.4255 63.6799 60.7177C63.6925 61.0099 63.8183 61.2857 64.0309 61.4866C64.2434 61.6874 64.5259 61.7976 64.8183 61.7936C65.1107 61.7896 65.3901 61.6717 65.597 61.4651L65.5985 61.4651Z" fill="#CBA480"/>
<path d="M53.2493 59.9687C54.4171 61.0769 55.3204 62.4338 55.8923 63.9387C56.4642 65.4437 56.69 67.058 56.5529 68.6621C56.3969 70.2728 55.8722 71.826 55.0195 73.2014C54.1669 74.5767 53.0091 75.7374 51.6358 76.5934C49.969 77.6327 48.0446 78.1848 46.0804 78.1872C44.1161 78.1897 42.1904 77.6425 40.521 76.6074C38.8515 75.5723 37.5051 74.0907 36.6339 72.3302C35.7627 70.5698 35.4016 68.6006 35.5914 66.6455C35.7811 64.6905 36.5142 62.8275 37.7076 61.2674C38.9011 59.7073 40.5073 58.5123 42.3446 57.8175C44.1819 57.1228 46.177 56.9561 48.1041 57.3363C50.0312 57.7164 51.8135 58.6283 53.2493 59.9687C53.469 60.1615 53.7551 60.2613 54.047 60.2467C54.339 60.2322 54.6137 60.1045 54.8131 59.8907C55.0124 59.6769 55.1207 59.3939 55.1148 59.1016C55.109 58.8094 54.9895 58.5309 54.7818 58.3253C57.2557 60.635 58.7111 63.8328 58.8277 67.2153C58.9443 70.5979 57.7127 73.8883 55.4037 76.3629C53.0947 78.8376 49.8974 80.2938 46.5149 80.4115C43.1323 80.5291 39.8416 79.2985 37.3662 76.9902C34.8909 74.6819 33.4337 71.485 33.3151 68.1025C33.1965 64.72 34.4262 61.4289 36.7337 58.9529C39.0413 56.4769 42.2377 55.0188 45.6202 54.8991C49.0026 54.7795 52.2941 56.0082 54.7708 58.3151C54.5489 58.1309 54.2647 58.039 53.9769 58.0584C53.6892 58.0778 53.4199 58.2069 53.2246 58.4191C53.0293 58.6313 52.923 58.9105 52.9276 59.1988C52.9322 59.4872 53.0474 59.7628 53.2493 59.9687Z" fill="#CBA480"/>
<path d="M42.0451 65.4361L47.6443 70.6575C47.864 70.8504 48.1501 70.9501 48.442 70.9355C48.734 70.921 49.0087 70.7933 49.2081 70.5795C49.4074 70.3657 49.5157 70.0827 49.5098 69.7905C49.504 69.4982 49.3845 69.2198 49.1768 69.0141L43.5775 63.7927C43.3579 63.5999 43.0718 63.5001 42.7799 63.5147C42.4879 63.5292 42.2131 63.6569 42.0138 63.8707C41.8144 64.0845 41.7062 64.3675 41.7121 64.6598C41.7179 64.952 41.8374 65.2305 42.0451 65.4361Z" fill="#CBA480"/>
<path d="M40.0023 50.3603C39.955 49.0049 39.7366 47.613 40.6863 46.486C41.6736 45.3173 43.1621 45.4352 44.5387 45.3871C45.7457 45.3449 47.1683 45.0936 48.2893 45.6481C49.8958 46.4297 49.9322 48.0607 49.9745 49.596C50.0248 51.0362 52.2802 50.9681 52.2189 49.5177C52.2132 48.7498 52.1546 47.9833 52.0433 47.2236C51.7635 45.8963 50.9728 44.7323 49.8422 43.9828C48.191 42.8532 46.3129 43.0886 44.4384 43.1428L42.765 43.2012C41.4059 43.2617 40.1197 43.8329 39.1636 44.8007C37.5785 46.354 37.667 48.4041 37.7373 50.4359C37.8225 51.8826 40.0641 51.8072 39.9986 50.3569L40.0023 50.3603Z" fill="#CBA480"/>
<path d="M76.4347 48.1978L79.7002 51.2429C79.9199 51.4358 80.206 51.5356 80.4979 51.521C80.7898 51.5065 81.0646 51.3787 81.264 51.165C81.4633 50.9512 81.5716 50.6682 81.5657 50.3759C81.5599 50.0837 81.4404 49.8052 81.2327 49.5996L77.9672 46.5545C77.7475 46.3616 77.4614 46.2618 77.1695 46.2764C76.8776 46.2909 76.6028 46.4186 76.4034 46.6324C76.2041 46.8462 76.0958 47.1292 76.1017 47.4215C76.1075 47.7137 76.227 47.9922 76.4347 48.1978Z" fill="#CBA480"/>
<path d="M69.2619 55.8892L72.5274 58.9343C72.747 59.1272 73.0331 59.227 73.3251 59.2124C73.617 59.1978 73.8918 59.0701 74.0911 58.8564C74.2905 58.6426 74.3987 58.3596 74.3929 58.0673C74.387 57.7751 74.2676 57.4966 74.0598 57.291L70.7943 54.2459C70.5747 54.053 70.2886 53.9532 69.9966 53.9678C69.7047 53.9824 69.4299 54.1101 69.2306 54.3238C69.0312 54.5376 68.923 54.8206 68.9289 55.1129C68.9347 55.4051 69.0542 55.6836 69.2619 55.8892Z" fill="#CBA480"/>
<path d="M83.6071 40.5064L86.8726 43.5515C87.0922 43.7444 87.3784 43.8441 87.6703 43.8296C87.9622 43.815 88.237 43.6873 88.4364 43.4736C88.6357 43.2598 88.7439 42.9767 88.7381 42.6845C88.7323 42.3923 88.6128 42.1138 88.405 41.9082L85.1396 38.863C84.9199 38.6702 84.6338 38.5704 84.3419 38.585C84.0499 38.5995 83.7751 38.7272 83.5758 38.941C83.3765 39.1548 83.2682 39.4378 83.2741 39.73C83.2799 40.0223 83.3994 40.3008 83.6071 40.5064Z" fill="#CBA480"/>
</svg>
