<svg width="31" height="31" viewBox="0 0 31 31" fill="none" xmlns="http://www.w3.org/2000/svg">
<path d="M5.27049 9.67726C6.71802 9.3789 8.08304 8.76707 9.26978 7.88483C10.4565 7.00258 11.4363 5.87102 12.1407 4.56961C13.6981 6.18419 15.7461 7.23592 17.964 7.55919C20.182 7.88246 22.4443 7.45929 24.3964 6.35624M17.5352 27.9498C19.4498 27.7549 21.2551 26.963 22.6964 25.6856C24.4634 23.8381 25.49 21.4043 25.5808 18.8473V10.471C25.4778 7.99207 24.4485 5.64206 22.6969 3.88782C20.9454 2.13357 18.5997 1.10279 16.1249 1H14.8988C12.4244 1.10315 10.079 2.13434 8.32773 3.88854C6.5765 5.64275 5.54743 7.99232 5.44446 10.471V18.8473L17.5352 27.9498ZM19.005 12.1646C19.1328 12.1646 19.2578 12.2025 19.3641 12.2736C19.4704 12.3448 19.5532 12.446 19.6021 12.5644C19.6511 12.6827 19.6639 12.8131 19.639 12.9387C19.614 13.0643 19.5525 13.1796 19.4621 13.2701C19.3717 13.3607 19.2564 13.4225 19.131 13.4475C19.0056 13.4725 18.8756 13.4594 18.7575 13.4104C18.6394 13.3614 18.5385 13.2785 18.4674 13.172C18.3964 13.0655 18.3584 12.9403 18.3584 12.8122C18.3584 12.6405 18.4266 12.4757 18.5478 12.3543C18.669 12.2329 18.8335 12.1646 19.005 12.1646ZM12.0203 12.1646C12.1481 12.1649 12.273 12.203 12.3791 12.2743C12.4852 12.3457 12.5678 12.4475 12.6165 12.5658C12.6652 12.6842 12.6778 12.8139 12.6526 12.9394C12.6275 13.0649 12.5659 13.1805 12.4754 13.2709C12.3849 13.3613 12.2697 13.4226 12.1443 13.4475C12.019 13.4724 11.8892 13.4595 11.7712 13.4104C11.6532 13.3614 11.5523 13.2785 11.4813 13.172C11.4103 13.0656 11.3725 12.9402 11.3725 12.8122C11.3729 12.6403 11.4413 12.4757 11.5628 12.3543C11.6842 12.2329 11.8487 12.1646 12.0203 12.1646V12.1646ZM5.15167 18.9796C4.00093 18.8203 2.94661 18.2492 2.1835 17.3718C1.42038 16.4944 1 15.37 1 14.2063C1 13.0427 1.42038 11.9182 2.1835 11.0409C2.94661 10.1635 4.00093 9.59241 5.15167 9.43304V18.9796ZM25.8483 18.9796C26.9991 18.8203 28.0534 18.2492 28.8165 17.3718C29.5796 16.4944 30 15.37 30 14.2063C30 13.0427 29.5796 11.9182 28.8165 11.0409C28.0534 10.1635 26.9991 9.59241 25.8483 9.43304V18.9796ZM11.6384 18.3109C11.9797 19.0495 12.5249 19.6753 13.2096 20.1135C13.8942 20.5518 14.6897 20.7844 15.5022 20.7844C16.3147 20.7844 17.1103 20.5518 17.795 20.1135C18.4796 19.6753 19.0247 19.0495 19.366 18.3109H11.6384ZM15.5022 25.9415C15.9028 25.9415 16.2945 26.0609 16.6276 26.2839C16.9607 26.5068 17.2203 26.8239 17.3736 27.1946C17.5269 27.5654 17.5669 27.9727 17.4888 28.3663C17.4106 28.7599 17.2178 29.122 16.9346 29.4057C16.6513 29.6895 16.2904 29.8828 15.8975 29.961C15.5045 30.0393 15.0971 29.999 14.727 29.8455C14.3569 29.6919 14.0406 29.4319 13.818 29.0983C13.5954 28.7646 13.4768 28.3722 13.4768 27.9709C13.4772 27.4329 13.6906 26.9172 14.0703 26.5368C14.4501 26.1564 14.9651 25.9419 15.5022 25.9415V25.9415Z" stroke="#6C6463" stroke-width="1.5" stroke-linecap="round" stroke-linejoin="round"/>
</svg>
