<svg width="56" height="56" viewBox="0 0 56 56" fill="none" xmlns="http://www.w3.org/2000/svg">
<path d="M22.6343 51.608C22.6773 55.192 16.4173 55.445 16.4173 51.608H22.6343ZM16.4173 42.9539V51.608C16.4173 55.358 10.3473 55.3079 10.3923 51.6489L10.6413 42.108L7.59922 41.4869L11.7262 24.3769L6.01823 32.1469C5.29323 33.1349 4.26927 33.888 3.11827 33.447C2.56297 33.2327 2.11479 32.8076 1.87132 32.2645C1.62784 31.7213 1.60873 31.1041 1.81822 30.5469L8.70225 19.28C10.0613 15.706 22.9872 15.7799 24.3332 19.3209L25.8282 22.0209L16.4173 42.9539ZM16.3282 3.29693C17.5963 3.29095 18.8233 3.74634 19.7804 4.57818C20.7376 5.41002 21.3595 6.56152 21.5303 7.81805C21.7011 9.07458 21.4091 10.3504 20.7088 11.4075C20.0085 12.4647 18.9476 13.231 17.7239 13.5638C16.5003 13.8965 15.1974 13.7729 14.0581 13.216C12.9189 12.6591 12.021 11.7068 11.532 10.5368C11.043 9.3668 10.9962 8.05885 11.4002 6.85687C11.8043 5.65489 12.6318 4.64096 13.7283 4.00396C14.5164 3.54075 15.414 3.29663 16.3282 3.29693V3.29693ZM28.1283 47.046V52.2239C28.1283 55.1529 22.5282 55.1179 22.5672 52.2549L22.7962 47.046L19.9892 46.5599L23.7983 36.8649L28.1283 47.046ZM21.7862 41.6179C21.2862 42.4719 20.8713 42.6049 19.8083 42.2629L21.7862 41.6179ZM19.8083 42.2629C19.5711 42.2085 19.3485 42.1037 19.1554 41.9556C18.9624 41.8075 18.8035 41.6195 18.6897 41.4045C18.5758 41.1895 18.5096 40.9525 18.4956 40.7097C18.4815 40.4668 18.52 40.2236 18.6083 39.9969L19.8083 42.2629ZM18.6083 39.9969L21.0082 33.7299C22.2632 30.9379 34.1943 30.9989 35.4363 33.7619L38.1363 40.4509C38.2246 40.6776 38.263 40.9207 38.2489 41.1636C38.2349 41.4065 38.1687 41.6436 38.0548 41.8586C37.9409 42.0736 37.7821 42.2615 37.5891 42.4096C37.3961 42.5577 37.1734 42.6625 36.9363 42.7169V42.7169C35.8733 43.0589 35.3983 42.5239 34.8053 41.7059L18.6083 39.9969ZM32.6413 36.8969L36.7522 46.5599L33.6753 47.046L33.8752 52.2239C33.9142 55.0239 28.1352 55.2239 28.1352 52.2239L32.6413 36.8969ZM28.3763 22.2239C29.2987 22.2239 30.2005 22.4975 30.9674 23.0099C31.7344 23.5224 32.3322 24.2509 32.6852 25.1031C33.0382 25.9553 33.1306 26.8931 32.9506 27.7978C32.7706 28.7025 32.3264 29.5336 31.6742 30.1859C31.0219 30.8381 30.1909 31.2824 29.2862 31.4623C28.3814 31.6423 27.4436 31.5498 26.5914 31.1968C25.7392 30.8438 25.0108 30.2461 24.4983 29.4791C23.9858 28.7121 23.7123 27.8103 23.7123 26.8879C23.7125 25.651 24.204 24.4649 25.0786 23.5903C25.9532 22.7157 27.1394 22.2242 28.3763 22.2239V22.2239ZM33.8492 51.5569C33.8092 55.5339 40.9743 55.191 40.9753 51.52L33.8492 51.5569ZM40.9842 36.009L40.9723 51.5749C40.9723 55.2399 47.7912 55.185 47.7522 51.52L47.6202 40.5699L47.4543 22.6699L50.1783 30.811C52.0363 35.697 55.6403 32.5169 54.7933 30.2919L51.6523 17.16C50.7073 13.208 30.5692 13.404 29.8932 17.119L29.1272 21.3259L40.9842 36.009ZM40.5973 1.13189C41.8653 1.12591 43.0923 1.5813 44.0494 2.41314C45.0065 3.24498 45.6285 4.39648 45.7993 5.65301C45.9701 6.90954 45.6781 8.18534 44.9778 9.24249C44.2774 10.2996 43.2166 11.066 41.9929 11.3987C40.7692 11.7315 39.4664 11.6079 38.3271 11.051C37.1879 10.494 36.2901 9.54176 35.8011 8.37176C35.3121 7.20176 35.2652 5.89393 35.6693 4.69195C36.0734 3.48997 36.9007 2.47592 37.9972 1.83893C38.7854 1.37571 39.6831 1.13159 40.5973 1.13189V1.13189Z" stroke="#3D3635" stroke-width="2.156" stroke-linecap="round" stroke-linejoin="round"/>
</svg>
