<svg width="59" height="55" viewBox="0 0 59 55" fill="none" xmlns="http://www.w3.org/2000/svg">
<path d="M9.63 46.995H29.049M27.651 10.407V33.854H10.795V23.478L27.651 10.407ZM22.335 22.034H16.111V28.259H22.335V22.034ZM32.075 21.607L31.962 21.507L32.075 21.383L19.449 10.106L19.336 10.206L19.223 10.106L6.60004 21.378L6.71399 21.502L6.60004 21.602L32.075 21.607ZM2 2.00201H36.679V53.746H2V2V2.00201ZM9.63 41.756H29.049H9.63Z" stroke="#3D3635" stroke-width="2.121" stroke-linecap="round" stroke-linejoin="round"/>
<path d="M46.7559 27.8975L49.1288 30.9976L53.9749 24.7266" stroke="#3D3635" stroke-width="2.121" stroke-linecap="round" stroke-linejoin="round"/>
<path d="M45.9177 21.2549H55.2537C55.8021 21.2567 56.3275 21.4754 56.7153 21.8632C57.1031 22.251 57.3218 22.7765 57.3237 23.3249V32.6599C57.3221 33.2085 57.1035 33.7342 56.7157 34.1222C56.3279 34.5102 55.8023 34.729 55.2537 34.7309H45.9177C45.3691 34.729 44.8435 34.5102 44.4556 34.1222C44.0678 33.7342 43.8492 33.2085 43.8477 32.6599V23.3249C43.8495 22.7765 44.0682 22.251 44.456 21.8632C44.8438 21.4754 45.3692 21.2567 45.9177 21.2549V21.2549Z" stroke="#3D3635" stroke-width="2.121" stroke-linecap="round" stroke-linejoin="round"/>
<path d="M47 9.52252L49.373 12.6226L54.219 6.35156" stroke="#3D3635" stroke-width="2.121" stroke-linecap="round" stroke-linejoin="round"/>
<path d="M46.1597 2.87793H55.4987C56.0474 2.87925 56.5733 3.09771 56.9614 3.4856C57.3494 3.87348 57.5681 4.39925 57.5697 4.94794V14.283C57.5681 14.8316 57.3494 15.3574 56.9614 15.7452C56.5733 16.1331 56.0474 16.3516 55.4987 16.3529H46.1638C45.6152 16.3513 45.0896 16.1327 44.7018 15.7449C44.3139 15.357 44.0953 14.8315 44.0938 14.283V4.94794C44.0953 4.39943 44.3139 3.87382 44.7018 3.48596C45.0896 3.0981 45.6152 2.87951 46.1638 2.87793H46.1597Z" stroke="#3D3635" stroke-width="2.121" stroke-linecap="round" stroke-linejoin="round"/>
<path d="M46.5137 46.2706L48.8867 49.3706L53.7327 43.0996" stroke="#3D3635" stroke-width="2.121" stroke-linecap="round" stroke-linejoin="round"/>
<path d="M45.6765 39.6299H55.0115C55.56 39.6315 56.0856 39.8501 56.4734 40.2379C56.8613 40.6258 57.0799 41.1514 57.0815 41.6999V51.0349C57.0799 51.5834 56.8613 52.109 56.4734 52.4968C56.0856 52.8847 55.56 53.1033 55.0115 53.1049H45.6765C45.1278 53.1035 44.6019 52.8851 44.2139 52.4972C43.8258 52.1093 43.6071 51.5835 43.6055 51.0349V41.6999C43.6071 41.1512 43.8258 40.6254 44.2139 40.2375C44.6019 39.8497 45.1278 39.6312 45.6765 39.6299V39.6299Z" stroke="#3D3635" stroke-width="2.121" stroke-linecap="round" stroke-linejoin="round"/>
</svg>
