<svg width="94" height="90" viewBox="0 0 94 90" fill="none" xmlns="http://www.w3.org/2000/svg">
<path d="M48.494 0H44.68C20.0039 0 0 20.0039 0 44.68C0 69.3561 20.0039 89.36 44.68 89.36H48.494C73.1701 89.36 93.174 69.3561 93.174 44.68C93.174 20.0039 73.1701 0 48.494 0Z" fill="#F2E0D9"/>
<path d="M25.63 63.995H45.049M43.651 27.407V50.854H26.795V40.478L43.651 27.407ZM38.335 39.034H32.111V45.259H38.335V39.034ZM48.075 38.607L47.962 38.507L48.075 38.383L35.449 27.106L35.336 27.206L35.223 27.106L22.6 38.378L22.714 38.502L22.6 38.602L48.075 38.607ZM18 19.002H52.679V70.746H18V19V19.002ZM25.63 58.756H45.049H25.63Z" stroke="#3D3635" stroke-width="2.121" stroke-linecap="round" stroke-linejoin="round"/>
<path d="M62.7559 44.8975L65.1288 47.9976L69.9749 41.7266" stroke="#3D3635" stroke-width="2.121" stroke-linecap="round" stroke-linejoin="round"/>
<path d="M61.9177 38.2549H71.2537C71.8021 38.2567 72.3275 38.4754 72.7153 38.8632C73.1031 39.251 73.3218 39.7765 73.3237 40.3249V49.6599C73.3221 50.2085 73.1035 50.7342 72.7157 51.1222C72.3279 51.5102 71.8023 51.729 71.2537 51.7309H61.9177C61.3691 51.729 60.8435 51.5102 60.4556 51.1222C60.0678 50.7342 59.8492 50.2085 59.8477 49.6599V40.3249C59.8495 39.7765 60.0682 39.251 60.456 38.8632C60.8438 38.4754 61.3692 38.2567 61.9177 38.2549V38.2549Z" stroke="#3D3635" stroke-width="2.121" stroke-linecap="round" stroke-linejoin="round"/>
<path d="M63 26.5225L65.373 29.6226L70.219 23.3516" stroke="#3D3635" stroke-width="2.121" stroke-linecap="round" stroke-linejoin="round"/>
<path d="M62.1597 19.8779H71.4987C72.0474 19.8792 72.5733 20.0977 72.9614 20.4856C73.3494 20.8735 73.5681 21.3993 73.5697 21.9479V31.283C73.5681 31.8316 73.3494 32.3574 72.9614 32.7452C72.5733 33.1331 72.0474 33.3516 71.4987 33.3529H62.1638C61.6152 33.3513 61.0896 33.1327 60.7018 32.7449C60.3139 32.357 60.0953 31.8315 60.0938 31.283V21.9479C60.0953 21.3994 60.3139 20.8738 60.7018 20.486C61.0896 20.0981 61.6152 19.8795 62.1638 19.8779H62.1597Z" stroke="#3D3635" stroke-width="2.121" stroke-linecap="round" stroke-linejoin="round"/>
<path d="M62.5137 63.2706L64.8867 66.3706L69.7327 60.0996" stroke="#3D3635" stroke-width="2.121" stroke-linecap="round" stroke-linejoin="round"/>
<path d="M61.6765 56.6299H71.0115C71.56 56.6315 72.0856 56.8501 72.4734 57.2379C72.8613 57.6258 73.0799 58.1514 73.0815 58.6999V68.0349C73.0799 68.5834 72.8613 69.109 72.4734 69.4968C72.0856 69.8847 71.56 70.1033 71.0115 70.1049H61.6765C61.1278 70.1035 60.6019 69.8851 60.2139 69.4972C59.8258 69.1093 59.6071 68.5835 59.6055 68.0349V58.6999C59.6071 58.1512 59.8258 57.6254 60.2139 57.2375C60.6019 56.8497 61.1278 56.6312 61.6765 56.6299V56.6299Z" stroke="#3D3635" stroke-width="2.121" stroke-linecap="round" stroke-linejoin="round"/>
</svg>
