<svg width="38" height="38" viewBox="0 0 38 38" fill="none" xmlns="http://www.w3.org/2000/svg">
<path d="M19 38C29.4934 38 38 29.4934 38 19C38 8.50659 29.4934 0 19 0C8.50659 0 0 8.50659 0 19C0 29.4934 8.50659 38 19 38Z" fill="#E8D2C9"/>
<path fill-rule="evenodd" clip-rule="evenodd" d="M13.4853 10.8364C13.1752 10.5246 13.0014 10.1026 13.002 9.66287C13.0026 9.22313 13.1775 8.80158 13.4884 8.49063C13.7994 8.17969 14.2209 8.00474 14.6607 8.00414C15.1004 8.00354 15.5225 8.17734 15.8343 8.48743L25.3253 17.9784C25.6367 18.2899 25.8117 18.7124 25.8117 19.1529C25.8117 19.5935 25.6367 20.0159 25.3253 20.3274L15.8343 29.8194C15.5225 30.1295 15.1004 30.3033 14.6607 30.3027C14.2209 30.3021 13.7994 30.1272 13.4884 29.8162C13.1775 29.5053 13.0026 29.0837 13.002 28.644C13.0014 28.2043 13.1752 27.7822 13.4853 27.4704L21.8063 19.1494L13.4853 10.8364Z" fill="white"/>
</svg>
