<svg width="38" height="38" viewBox="0 0 38 38" fill="none" xmlns="http://www.w3.org/2000/svg">
<path d="M19 38C29.4934 38 38 29.4934 38 19C38 8.50659 29.4934 0 19 0C8.50659 0 0 8.50659 0 19C0 29.4934 8.50659 38 19 38Z" fill="#E8D2C9"/>
<path fill-rule="evenodd" clip-rule="evenodd" d="M24.515 10.8364C24.8251 10.5246 24.9989 10.1026 24.9983 9.66287C24.9977 9.22313 24.8227 8.80158 24.5118 8.49063C24.2009 8.17969 23.7793 8.00474 23.3396 8.00414C22.8998 8.00354 22.4778 8.17734 22.166 8.48743L12.674 17.9784C12.3625 18.2899 12.1875 18.7124 12.1875 19.1529C12.1875 19.5935 12.3625 20.0159 12.674 20.3274L22.166 29.8194C22.4778 30.1295 22.8998 30.3033 23.3396 30.3027C23.7793 30.3021 24.2009 30.1272 24.5118 29.8162C24.8227 29.5053 24.9977 29.0837 24.9983 28.644C24.9989 28.2043 24.8251 27.7822 24.515 27.4704L16.194 19.1494L24.515 10.8364Z" fill="white"/>
</svg>
