<svg width="114" height="39" viewBox="0 0 114 39" fill="none" xmlns="http://www.w3.org/2000/svg">
<path d="M5.59947 25.0411C5.59947 25.8311 6.10712 26.282 7.12245 26.394H14.3995C16.9088 26.394 18.6575 26.9303 19.6455 28.003C20.1314 28.5297 20.4802 29.168 20.6611 29.8614C20.8419 30.5548 20.8493 31.2821 20.6825 31.9791C20.2725 33.7337 19.2427 35.2813 17.7825 36.3371C15.8242 37.7632 13.4319 38.4657 11.0135 38.325C5.73948 38.325 2.35513 37.5493 0.86046 35.998C0.588082 35.71 0.382459 35.3656 0.258196 34.9892C0.133933 34.6128 0.0940823 34.2136 0.141466 33.82C0.195305 33.0527 0.525752 32.3311 1.07146 31.789C1.57851 31.2835 2.20375 30.9126 2.89046 30.71C2.46341 30.3723 2.11936 29.9414 1.88466 29.4501C1.64996 28.9589 1.53084 28.4204 1.53646 27.876C1.52598 26.7785 1.892 25.7105 2.57347 24.85C3.22873 23.9941 4.03956 23.2694 4.96346 22.7141C1.72012 21.5301 0.0984671 19.4007 0.0984671 16.326C0.0803707 15.2358 0.365512 14.162 0.922075 13.2244C1.47864 12.2868 2.28475 11.5223 3.25048 11.0161C5.40898 9.74617 7.87543 9.09508 10.3795 9.1341C11.6711 9.13741 12.9548 9.33694 14.1865 9.72602C13.5264 8.8179 13.1843 7.71735 13.2135 6.59504C13.1985 6.03166 13.302 5.4714 13.5171 4.95051C13.7323 4.42961 14.0543 3.95962 14.4625 3.57099C14.8773 3.17125 15.3679 2.85868 15.9055 2.65156C16.4431 2.44443 17.0167 2.34701 17.5925 2.36506C18.1079 2.32627 18.6257 2.39455 19.1135 2.56562C19.6012 2.73668 20.0482 3.00685 20.4265 3.35908C20.7242 3.64791 20.9618 3.99286 21.1254 4.37409C21.2889 4.75532 21.3753 5.1652 21.3795 5.58002C21.4001 6.33933 21.1358 7.07886 20.6385 7.65302C20.2907 8.03557 19.8383 8.30769 19.3373 8.43561C18.8364 8.56354 18.3089 8.5417 17.8203 8.37275C17.3316 8.2038 16.9033 7.8952 16.5884 7.48517C16.2734 7.07515 16.0857 6.58166 16.0485 6.06599C16.0365 5.56841 16.1453 5.07546 16.3655 4.6291C16.4967 4.40819 16.603 4.17335 16.6825 3.92902C16.5985 3.47836 16.3165 3.35137 15.8365 3.54804C15.2986 3.80061 14.8599 4.22492 14.5895 4.7541C14.2281 5.39187 14.0454 6.11523 14.0605 6.84809C14.0516 7.59548 14.2383 8.33214 14.6019 8.98517C14.9655 9.63821 15.4935 10.1849 16.1335 10.571C18.5588 11.925 19.7715 13.8007 19.7715 16.1981C19.8172 17.292 19.5616 18.3774 19.0325 19.336C18.5035 20.2946 17.7214 21.0896 16.7715 21.6341C14.6213 22.9005 12.159 23.5383 9.66448 23.475C8.48011 23.4927 7.29879 23.3504 6.15248 23.0521C5.79009 23.6522 5.59884 24.34 5.59947 25.0411ZM14.1445 31.894H7.03746C5.85424 31.9311 4.67928 31.685 3.61046 31.1761C3.36778 32.0201 3.38533 32.9175 3.66078 33.7514C3.93624 34.5853 4.4568 35.3167 5.15447 35.85C6.87504 37.0237 8.93504 37.5964 11.0145 37.4791C13.2232 37.5631 15.3968 36.9082 17.1915 35.618C17.8192 35.2409 18.2746 34.6333 18.4605 33.925C18.5451 33.361 18.2208 32.8817 17.4875 32.487C16.4355 32.0295 15.2906 31.8263 14.1455 31.894H14.1445ZM13.4265 16.221C13.4265 13.809 13.1445 12.1661 12.5805 11.2921C12.3159 10.8689 11.9431 10.5242 11.5005 10.2935C11.058 10.0629 10.5619 9.95459 10.0635 9.98005C9.57343 9.94904 9.08467 10.0577 8.65398 10.2935C8.22329 10.5293 7.86838 10.8826 7.63048 11.3121C7.00274 12.8604 6.74191 14.5331 6.86846 16.199C6.74532 17.9025 7.01919 19.6113 7.66847 21.191C7.8934 21.6388 8.24233 22.0126 8.67369 22.2678C9.10505 22.5229 9.60064 22.6487 10.1015 22.6301C10.6029 22.6472 11.0993 22.5255 11.5361 22.2785C11.9728 22.0315 12.3328 21.6686 12.5765 21.23C13.1438 20.302 13.4275 18.6323 13.4275 16.221H13.4265Z" fill="#3C3C3B"/>
<path d="M32.299 28.1299H34.414V28.9758H23.834V28.1299H25.949V1.47583H23.834V0.629883H32.299V28.1299Z" fill="#3C3C3B"/>
<path d="M51.9686 28.9757V26.7328C51.3148 27.5864 50.4458 28.2507 49.4506 28.6577C48.2887 29.184 47.0261 29.4512 45.7506 29.4407C40.7319 29.4407 38.2223 26.7188 38.2216 21.2748V10.3607H36.0996V9.51367H44.5616V22.2007C44.4396 23.6808 44.748 25.1648 45.4496 26.4738C45.749 26.8948 46.1509 27.2323 46.6173 27.4546C47.0836 27.6768 47.599 27.7764 48.1146 27.7438C48.9287 27.7198 49.72 27.4696 50.4 27.0214C51.0799 26.5731 51.6217 25.9444 51.9646 25.2057V10.3557H49.8496V9.50879H58.3106V28.1248H60.4266V28.9707L51.9686 28.9757Z" fill="#3C3C3B"/>
<path d="M87.4216 28.1298V28.9757C83.5856 28.9757 80.9273 28.7004 79.4467 28.1498C77.966 27.5991 76.506 26.2244 75.0667 24.0258L72.4026 19.9258L71.8516 20.4337V28.1338H73.9666V28.9797H63.3906V28.1338H65.5056V1.47974H63.3906V0.633789H71.8516V19.1637L80.6946 10.3638H77.2667V9.51672H85.3057V10.3638H81.9636L76.8867 15.3977L81.9636 23.0137C84.249 26.4237 86.0683 28.1291 87.4216 28.1298Z" fill="#3C3C3B"/>
<path d="M113.566 28.1298V28.9757C109.73 28.9757 107.072 28.7004 105.591 28.1498C104.11 27.5991 102.651 26.2244 101.212 24.0258L98.5471 19.9258L97.9962 20.4337V28.1338H100.112V28.9797H89.5352V28.1338H91.6501V1.47974H89.5352V0.633789H97.9991V19.1637L106.842 10.3638H103.415V9.51672H111.453V10.3638H108.111L103.035 15.3977L108.111 23.0137C110.394 26.4237 112.212 28.1291 113.566 28.1298Z" fill="#3C3C3B"/>
</svg>
