<svg width="22" height="22" viewBox="0 0 22 22" fill="none" xmlns="http://www.w3.org/2000/svg">
<path d="M3.82483 7.45703C4.79889 7.2566 5.71742 6.84559 6.51599 6.25293C7.31456 5.66027 7.97389 4.90012 8.44788 4.02588C9.49582 5.1105 10.874 5.81702 12.3665 6.03418C13.8589 6.25134 15.3812 5.96707 16.6948 5.22607M12.0779 19.7319C13.3662 19.601 14.581 19.069 15.5509 18.2109C16.74 16.9698 17.4308 15.3349 17.4918 13.6172V7.99023C17.4225 6.32497 16.7299 4.74632 15.5513 3.56787C14.3726 2.38943 12.7942 1.69698 11.1289 1.62793H10.3038C8.63874 1.69722 7.0605 2.38994 5.88208 3.56836C4.70366 4.74678 4.01119 6.32514 3.94189 7.99023V13.6172L12.0779 19.7319ZM13.0669 9.12793C13.1529 9.12793 13.2371 9.15337 13.3086 9.20117C13.3801 9.24897 13.4358 9.317 13.4688 9.39648C13.5017 9.47597 13.5103 9.56357 13.4935 9.64795C13.4767 9.73233 13.4353 9.80977 13.3745 9.87061C13.3137 9.93144 13.2361 9.97296 13.1517 9.98975C13.0674 10.0065 12.9799 9.99777 12.9004 9.96484C12.8209 9.93192 12.753 9.87622 12.7052 9.80469C12.6574 9.73315 12.6318 9.64902 12.6318 9.56299C12.6318 9.44762 12.6777 9.33695 12.7593 9.25537C12.8409 9.17379 12.9515 9.12793 13.0669 9.12793ZM8.36682 9.12793C8.45281 9.12813 8.53687 9.15374 8.60828 9.20166C8.67968 9.24958 8.7353 9.31796 8.76807 9.39746C8.80084 9.47696 8.80926 9.56412 8.79236 9.64844C8.77546 9.73275 8.73397 9.81036 8.6731 9.87109C8.61222 9.93183 8.53467 9.97304 8.45032 9.98975C8.36596 10.0064 8.27865 9.9978 8.19922 9.96484C8.11979 9.93189 8.0519 9.8762 8.00415 9.80469C7.9564 9.73317 7.93091 9.64898 7.93091 9.56299C7.93117 9.44753 7.97722 9.33692 8.05896 9.25537C8.1407 9.17382 8.25136 9.12793 8.36682 9.12793V9.12793ZM3.74487 13.7061C2.97053 13.599 2.26107 13.2154 1.74756 12.626C1.23405 12.0366 0.951172 11.2812 0.951172 10.4995C0.951172 9.7178 1.23405 8.96244 1.74756 8.37305C2.26107 7.78366 2.97053 7.40003 3.74487 7.29297V13.7061ZM17.6719 13.7061C18.4462 13.599 19.1557 13.2154 19.6692 12.626C20.1827 12.0366 20.4656 11.2812 20.4656 10.4995C20.4656 9.7178 20.1827 8.96244 19.6692 8.37305C19.1557 7.78366 18.4462 7.40003 17.6719 7.29297V13.7061ZM8.10986 13.2568C8.33952 13.753 8.70641 14.1733 9.16711 14.4678C9.62782 14.7622 10.1631 14.9185 10.7098 14.9185C11.2566 14.9185 11.792 14.7622 12.2527 14.4678C12.7134 14.1733 13.0802 13.753 13.3098 13.2568H8.10986ZM10.7098 18.3828C10.9794 18.3828 11.243 18.463 11.4672 18.6128C11.6913 18.7626 11.866 18.9756 11.9691 19.2246C12.0723 19.4737 12.0992 19.7473 12.0466 20.0117C11.994 20.2761 11.8643 20.5193 11.6737 20.71C11.4831 20.9006 11.2402 21.0304 10.9758 21.083C10.7114 21.1356 10.4373 21.1085 10.1882 21.0054C9.93918 20.9022 9.72631 20.7276 9.57654 20.5034C9.42677 20.2793 9.34692 20.0157 9.34692 19.7461C9.34719 19.3847 9.49078 19.0383 9.74634 18.7827C10.0019 18.5272 10.3484 18.3831 10.7098 18.3828V18.3828Z" stroke="#6C6463" stroke-width="1.5" stroke-linecap="round" stroke-linejoin="round"/>
</svg>
