<svg width="1181" height="501" viewBox="0 0 1181 501" fill="none" xmlns="http://www.w3.org/2000/svg">
<path d="M1180 0H0V500H1180V0Z" fill="#BFBFBF"/>
<path d="M0.5 500.5L1180.5 0.5" stroke="white" stroke-miterlimit="10"/>
<path d="M611.506 248.125L582.281 228.033C580.454 226.933 577.897 228.033 577.897 230.225V270.41C577.897 272.967 580.454 273.698 582.281 272.602L611.506 252.875C611.923 252.634 612.269 252.288 612.509 251.871C612.75 251.454 612.877 250.982 612.877 250.5C612.877 250.019 612.75 249.546 612.509 249.129C612.269 248.712 611.923 248.366 611.506 248.125Z" fill="white"/>
<path d="M590.317 201C617.716 201 640 223.284 640 250.317C639.986 263.49 634.747 276.119 625.433 285.433C616.119 294.747 603.49 299.986 590.317 300C563.284 300 541 277.716 541 250.317C541.069 237.259 546.287 224.755 555.521 215.521C564.755 206.287 577.259 201.069 590.317 201V201ZM590.317 207.576C578.969 207.631 568.104 212.177 560.098 220.221C552.093 228.265 547.599 239.152 547.599 250.5C547.599 261.849 552.093 272.736 560.098 280.78C568.104 288.824 578.969 293.37 590.317 293.425C595.971 293.452 601.575 292.362 606.807 290.217C612.039 288.072 616.795 284.915 620.803 280.926C624.811 276.938 627.992 272.196 630.162 266.975C632.332 261.754 633.449 256.155 633.449 250.5C633.449 244.846 632.332 239.247 630.162 234.026C627.992 228.805 624.811 224.063 620.803 220.075C616.795 216.086 612.039 212.929 606.807 210.784C601.575 208.639 595.971 207.549 590.317 207.576Z" fill="white"/>
</svg>
