<svg width="64" height="69" viewBox="0 0 64 69" fill="none" xmlns="http://www.w3.org/2000/svg">
<path d="M10.9723 58.2205C7.44048 54.9664 4.71489 50.9347 3.01135 46.4446C1.30781 41.9545 0.673363 37.1295 1.15783 32.3517C1.64231 27.5738 3.23268 22.9743 5.80285 18.9176C8.37303 14.8609 11.8523 11.4584 15.9655 8.97949" stroke="white" stroke-width="2" stroke-linecap="round" stroke-linejoin="round"/>
<path d="M47.6875 8.86133C52.0116 11.4239 55.646 15.0017 58.2764 19.2849C60.9067 23.568 62.4539 28.4277 62.7837 33.4433C63.1135 38.4588 62.2163 43.4792 60.1694 48.0699C58.1226 52.6607 54.9879 56.6836 51.0366 59.7903" stroke="white" stroke-width="2" stroke-linecap="round" stroke-linejoin="round"/>
<path d="M16.541 4.5629L17.5352 4.1879L20.3892 7.45792V3.11292L21.3423 2.75391L21.228 8.31491L20.2681 8.6759L16.541 4.5629Z" fill="white" stroke="white" stroke-width="0.3"/>
<path d="M23.1826 2.0389C23.3074 2.12528 23.3962 2.25444 23.4321 2.40188C23.4681 2.54932 23.4485 2.70482 23.3774 2.83892C23.3398 2.90106 23.2905 2.95518 23.2319 2.99816C23.1733 3.04115 23.1067 3.07214 23.0361 3.08941C22.9655 3.10668 22.8921 3.10988 22.8203 3.09881C22.7485 3.08774 22.6798 3.06265 22.6177 3.02493C22.555 2.98448 22.5007 2.93199 22.4585 2.87054C22.4163 2.80909 22.3869 2.7399 22.3716 2.66693C22.3299 2.5196 22.348 2.36176 22.4224 2.22793C22.46 2.16577 22.5097 2.11165 22.5684 2.06869C22.627 2.02573 22.6935 1.99475 22.7642 1.97756C22.8348 1.96038 22.9082 1.95732 22.98 1.96853C23.0518 1.97974 23.1206 2.00503 23.1826 2.04293V2.0389ZM22.7095 3.73892L23.6416 3.51092L24.5796 7.34393L23.6475 7.57192L22.7095 3.73892Z" fill="white" stroke="white" stroke-width="0.3"/>
<path d="M25.5878 1.56698C25.6482 1.61251 25.6989 1.66952 25.7372 1.73473C25.7755 1.79995 25.8001 1.87208 25.8105 1.94698C25.8255 2.01995 25.8262 2.09519 25.8119 2.16833C25.7977 2.24146 25.7693 2.31102 25.7279 2.37298C25.6862 2.43257 25.6331 2.48332 25.5717 2.5223C25.5103 2.56128 25.4417 2.58773 25.37 2.60009C25.2983 2.61245 25.2246 2.6105 25.1537 2.59435C25.0828 2.5782 25.0157 2.54815 24.9564 2.50597C24.8967 2.46131 24.8466 2.4053 24.8085 2.34112C24.7704 2.27694 24.7453 2.20586 24.7348 2.13198C24.7194 2.0579 24.7186 1.9815 24.7328 1.90719C24.7471 1.83288 24.7761 1.76214 24.8178 1.699C24.8595 1.6394 24.9126 1.58865 24.974 1.54968C25.0354 1.5107 25.104 1.48425 25.1757 1.47189C25.2474 1.45952 25.3206 1.46147 25.3915 1.47762C25.4624 1.49377 25.5295 1.52382 25.5888 1.566L25.5878 1.56698ZM25.2875 7.854C25.3582 7.84876 25.4267 7.82587 25.4862 7.78744C25.5458 7.749 25.5949 7.69625 25.6288 7.634C25.6992 7.47705 25.7153 7.30115 25.6747 7.134L25.0019 3.22298L25.9457 3.05999L26.6459 7.117C26.726 7.45865 26.6677 7.81812 26.4838 8.117C26.386 8.25302 26.2606 8.36707 26.1161 8.45181C25.9716 8.53654 25.8114 8.59009 25.6449 8.609C25.3858 8.65505 25.1199 8.64994 24.8627 8.59399L24.9438 7.84698C25.0548 7.8654 25.1679 7.86777 25.2797 7.854H25.2875Z" fill="white" stroke="white" stroke-width="0.3"/>
<path d="M28.4844 2.14179C28.4389 2.19452 28.4056 2.25663 28.3867 2.32368C28.3679 2.39073 28.3641 2.46108 28.3755 2.52979L28.4141 2.92979L29.3984 2.83881L29.4634 3.5388L28.478 3.63081L28.7642 6.70179L27.8091 6.79081L27.5225 3.7198L27.0083 3.7678L26.9434 3.06779L27.4585 3.02079L27.4224 2.64579C27.3905 2.38722 27.4332 2.12494 27.5454 1.88981C27.6493 1.67896 27.8115 1.50257 28.0132 1.38181C28.2204 1.25866 28.4531 1.1841 28.6934 1.1638C28.9428 1.14161 29.1938 1.17579 29.4282 1.2638L29.3281 2.05079C29.1675 1.99561 28.9978 1.9712 28.8281 1.9788C28.6972 1.98856 28.5748 2.04666 28.4844 2.14179V2.14179Z" fill="white" stroke="white" stroke-width="0.3"/>
<path d="M31.4316 7.25943C31.5016 7.26905 31.573 7.26109 31.6392 7.2363C31.7053 7.21151 31.7641 7.17068 31.8105 7.11743C31.9113 6.97877 31.9636 6.81078 31.9595 6.63941L32.1265 2.67343L33.0845 2.71442L32.9116 6.82642C32.9183 7.17624 32.7862 7.51452 32.5444 7.76743C32.4197 7.87921 32.2731 7.96366 32.1138 8.01532C31.9545 8.06699 31.7862 8.08473 31.6196 8.06742C31.357 8.0581 31.0985 7.9973 30.8594 7.88843L31.0967 7.17441C31.2037 7.21876 31.3165 7.24741 31.4316 7.25943V7.25943ZM33.0527 1.17743C33.1523 1.29378 33.2016 1.4447 33.1904 1.59742C33.1896 1.67223 33.1737 1.74612 33.144 1.81479C33.1143 1.88347 33.0715 1.94554 33.0176 1.99741C32.9652 2.04897 32.9025 2.08871 32.8335 2.1139C32.7645 2.13908 32.6909 2.14913 32.6177 2.14341C32.5448 2.14219 32.4729 2.12575 32.4067 2.0951C32.3406 2.06444 32.2814 2.02026 32.2334 1.96543C32.1845 1.90921 32.1475 1.84385 32.124 1.77314C32.1005 1.70242 32.0912 1.62773 32.0967 1.55341C32.0969 1.47778 32.1118 1.40295 32.1411 1.33326C32.1705 1.26356 32.2136 1.20041 32.2676 1.14743C32.3209 1.09789 32.3834 1.05938 32.4517 1.03415C32.5199 1.00893 32.5923 0.997486 32.665 1.00046C32.7377 1.00344 32.8095 1.02077 32.8755 1.05149C32.9415 1.0822 33.0007 1.12569 33.0498 1.17942L33.0527 1.17743Z" fill="white" stroke="white" stroke-width="0.3"/>
<path d="M36.2292 7.03733L36.2991 6.56333C36.1344 6.71457 35.9337 6.82096 35.7161 6.87232C35.4675 6.92859 35.2106 6.93607 34.9592 6.89432C34.7102 6.86293 34.4722 6.77317 34.2644 6.63233C34.0803 6.50747 33.9362 6.33211 33.8494 6.12732C33.7649 5.92349 33.7381 5.70032 33.7722 5.48233C33.7889 5.31806 33.8442 5.16002 33.9334 5.02103C34.0225 4.88204 34.1431 4.76599 34.2854 4.68232C34.6376 4.50316 35.0396 4.44821 35.427 4.52634L36.5652 4.69434L36.5803 4.59433C36.6003 4.49495 36.5972 4.3923 36.5715 4.29422C36.5459 4.19615 36.4984 4.10522 36.4324 4.02832C36.263 3.86186 36.0398 3.76056 35.803 3.74231C35.3885 3.69427 34.9689 3.76139 34.5901 3.93631L34.343 3.22834C34.6306 3.11572 34.9294 3.03361 35.2341 2.98334C35.5333 2.94486 35.8364 2.95024 36.134 2.99933C36.5619 3.03586 36.9617 3.22756 37.2581 3.53833C37.3811 3.68778 37.4698 3.86241 37.5178 4.0499C37.5659 4.23739 37.5724 4.43315 37.5364 4.62333L37.1663 7.17933L36.2292 7.03733ZM36.0232 6.10834C36.1176 6.07116 36.2025 6.01332 36.2717 5.93909C36.3409 5.86487 36.3926 5.77612 36.4231 5.67933L36.4744 5.32831L35.489 5.18332C35.2977 5.14149 35.099 5.15221 34.9133 5.21433C34.8476 5.24534 34.7911 5.29345 34.7502 5.35361C34.7094 5.41377 34.6859 5.48378 34.6814 5.55634C34.6673 5.63171 34.6715 5.70933 34.6936 5.78275C34.7157 5.85617 34.755 5.92325 34.8084 5.97834C34.9408 6.10474 35.1119 6.18261 35.2942 6.19931C35.541 6.24225 35.7951 6.20985 36.0232 6.10633V6.10834Z" fill="white" stroke="white" stroke-width="0.3"/>
<path d="M40.29 8.0408L40.4272 7.58182C40.243 7.70856 40.0289 7.78539 39.8061 7.80481C39.5526 7.82601 39.2975 7.79714 39.0552 7.71982C38.8124 7.65353 38.5891 7.53047 38.4033 7.36081C38.2396 7.21037 38.1217 7.01651 38.0639 6.80182C38.0099 6.58803 38.0158 6.36346 38.081 6.1528C38.1208 5.99233 38.1981 5.84352 38.3061 5.71841C38.4142 5.59331 38.5501 5.49546 38.7031 5.43283C39.077 5.30564 39.4828 5.30846 39.855 5.44083L40.9551 5.76883L40.9853 5.66882C41.0192 5.57333 41.0305 5.47137 41.019 5.3707C41.0076 5.27003 40.9733 5.1733 40.9189 5.08783C40.7754 4.89826 40.5696 4.76601 40.3374 4.71481C39.9337 4.60842 39.5086 4.615 39.1084 4.73383L38.9643 3.99982C39.2645 3.92786 39.5717 3.88863 39.8803 3.88281C40.1804 3.88681 40.4781 3.935 40.7641 4.02582C41.1833 4.122 41.5527 4.36856 41.8022 4.71881C41.9028 4.88392 41.9656 5.0692 41.9863 5.26141C42.007 5.45363 41.9854 5.64804 41.9223 5.83081L41.1943 8.30881L40.29 8.0408ZM40.2192 7.09183C40.3178 7.06836 40.4098 7.02312 40.4887 6.95944C40.5676 6.89577 40.6315 6.81527 40.6753 6.72382L40.7754 6.38382L39.8203 6.09982C39.6371 6.03119 39.4384 6.01388 39.2461 6.0498C39.1766 6.07119 39.1145 6.11075 39.0654 6.16437C39.0164 6.21799 38.9824 6.28375 38.9673 6.35483C38.9431 6.42768 38.9364 6.5052 38.9482 6.58102C38.96 6.65685 38.99 6.72876 39.0351 6.7908C39.1479 6.93461 39.3065 7.03583 39.4844 7.07782C39.7224 7.15577 39.9782 7.16098 40.2192 7.0928V7.09183Z" fill="white" stroke="white" stroke-width="0.3"/>
<path d="M44.9229 5.80579C45.2018 5.775 45.4837 5.81811 45.7407 5.93079L45.3721 6.78378C45.2209 6.69576 45.0534 6.63913 44.8799 6.61731C44.7063 6.59549 44.5301 6.6089 44.3618 6.65677C44.2073 6.70797 44.066 6.79284 43.9482 6.90524C43.8305 7.01765 43.739 7.15481 43.6807 7.30679L42.9248 9.05377L42.0449 8.67279L43.6128 5.05078L44.4937 5.43179L44.1938 6.13177C44.4007 5.95571 44.6537 5.84259 44.9229 5.80579V5.80579Z" fill="white" stroke="white" stroke-width="0.3"/>
<path d="M20.1089 61.2383L18.1768 64.6233C17.9987 64.953 17.7315 65.226 17.4058 65.4113C17.0908 65.584 16.7319 65.6595 16.374 65.6283C15.9659 65.5917 15.5711 65.4631 15.2197 65.2523C14.6523 64.931 14.1984 64.4419 13.9199 63.8523L14.6587 63.4023C14.8492 63.8492 15.1815 64.2213 15.604 64.4613C15.8844 64.6427 16.2219 64.714 16.5518 64.6613C16.701 64.6296 16.8413 64.5651 16.9624 64.4724C17.0835 64.3796 17.1825 64.2611 17.252 64.1253L17.502 63.6853C17.2743 63.8024 17.0193 63.8567 16.7637 63.8423C16.4858 63.8217 16.217 63.7365 15.978 63.5933C15.6705 63.4252 15.4151 63.1753 15.2407 62.8713C15.0756 62.575 14.9983 62.2379 15.0171 61.8993C15.0392 61.5245 15.151 61.1605 15.3438 60.8383C15.5211 60.5133 15.7753 60.2366 16.084 60.0323C16.3647 59.8478 16.6919 59.7468 17.0278 59.7413C17.3798 59.7388 17.7256 59.8329 18.0278 60.0133C18.2711 60.146 18.4791 60.3349 18.6348 60.5643C18.7781 60.7769 18.8631 61.0235 18.8809 61.2793L19.1997 60.7193L20.1089 61.2383ZM17.4717 63.1033C17.7746 62.9872 18.028 62.77 18.189 62.4884C18.3499 62.2068 18.4088 61.8781 18.355 61.5583C18.3151 61.4099 18.2459 61.2709 18.1519 61.1494C18.0579 61.0279 17.9407 60.9263 17.8071 60.8504C17.6736 60.7745 17.5265 60.7258 17.374 60.7073C17.2215 60.6887 17.0668 60.7006 16.9189 60.7423C16.6133 60.8533 16.3567 61.0692 16.1953 61.3516C16.034 61.634 15.9785 61.9645 16.0381 62.2843C16.0784 62.4322 16.1473 62.5709 16.2412 62.6921C16.3351 62.8134 16.4518 62.9149 16.585 62.991C16.7181 63.0671 16.8654 63.1162 17.0176 63.1354C17.1697 63.1547 17.3237 63.1437 17.4717 63.1033V63.1033Z" fill="white" stroke="white" stroke-width="0.3"/>
<path d="M22.0418 66.5864L22.2195 66.0944C22.0109 66.2209 21.7734 66.2918 21.5296 66.3004C21.2517 66.3071 20.9753 66.2596 20.7156 66.1604C20.456 66.0732 20.2206 65.9258 20.0286 65.7304C19.8592 65.5564 19.7433 65.3374 19.6946 65.0994C19.6477 64.8629 19.6679 64.6181 19.7527 64.3924C19.8057 64.2201 19.8987 64.0627 20.0242 63.9332C20.1497 63.8037 20.3038 63.7058 20.4744 63.6474C20.89 63.5318 21.3329 63.5597 21.7308 63.7264L22.9124 64.1524L22.9505 64.0454C22.9935 63.9435 23.0129 63.8331 23.0066 63.7227C23.0004 63.6123 22.9685 63.5048 22.9143 63.4084C22.7695 63.1933 22.5531 63.0367 22.3035 62.9664C21.8705 62.8248 21.407 62.8054 20.9637 62.9104L20.8523 62.0994C21.184 62.0409 21.5212 62.0174 21.8577 62.0294C22.1849 62.0529 22.5071 62.1239 22.8138 62.2404C23.2638 62.3718 23.6503 62.663 23.9007 63.0594C24.0001 63.2458 24.0573 63.4519 24.0682 63.6629C24.079 63.8739 24.0434 64.0847 23.9637 64.2804L23.0164 66.9354L22.0418 66.5864ZM22.0218 65.5474C22.1308 65.5278 22.234 65.484 22.324 65.4193C22.414 65.3546 22.4885 65.2706 22.5418 65.1734L22.6726 64.8094L21.6497 64.4414C21.4543 64.3558 21.2394 64.3244 21.0276 64.3504C20.9505 64.3695 20.8798 64.4088 20.823 64.4644C20.7662 64.5199 20.7251 64.5897 20.7044 64.6664C20.6728 64.7441 20.6607 64.8282 20.6687 64.9116C20.6767 64.995 20.705 65.0752 20.7508 65.1454C20.8647 65.3097 21.0308 65.4303 21.2225 65.4874C21.4767 65.5871 21.7553 65.6084 22.0218 65.5484V65.5474Z" fill="white" stroke="white" stroke-width="0.3"/>
<path d="M27.064 63.6294C27.3547 63.5352 27.665 63.5194 27.9639 63.5834L27.7568 64.5753C27.5759 64.5149 27.385 64.4914 27.1948 64.5062C27.0047 64.521 26.8193 64.5737 26.6499 64.6614C26.4959 64.7501 26.3636 64.8721 26.2627 65.0184C26.1618 65.1648 26.095 65.3318 26.0669 65.5074L25.6411 67.5404L24.6172 67.3274L25.4971 63.1094L26.522 63.3234L26.3521 64.1364C26.5362 63.903 26.7832 63.7271 27.064 63.6294V63.6294Z" fill="white" stroke="white" stroke-width="0.3"/>
<path d="M30.6516 68.1799L30.6896 67.6579C30.5231 67.8362 30.3134 67.9684 30.0808 68.0419C29.815 68.124 29.5355 68.1532 29.2585 68.1279C28.9846 68.1145 28.7181 68.036 28.4807 67.8989C28.2706 67.7775 28.0997 67.5984 27.9885 67.3829C27.8782 67.167 27.8313 66.9244 27.8527 66.6829C27.8575 66.5026 27.9046 66.3259 27.9904 66.1673C28.0763 66.0086 28.198 65.8725 28.3464 65.7699C28.7155 65.5472 29.1486 65.4549 29.5764 65.5079L30.8293 65.5979L30.8366 65.4859C30.8503 65.3768 30.8386 65.266 30.8029 65.162C30.7672 65.058 30.7084 64.9636 30.6306 64.8859C30.4331 64.7175 30.1821 64.625 29.9225 64.6249C29.4671 64.6061 29.0152 64.7131 28.6164 64.9339L28.2907 64.1829C28.5945 64.0367 28.9127 63.923 29.2404 63.8439C29.5617 63.7781 29.8909 63.7596 30.2175 63.7889C30.687 63.795 31.1381 63.9729 31.4855 64.2889C31.6312 64.4416 31.7416 64.6245 31.8088 64.8246C31.876 65.0247 31.8986 65.2372 31.8747 65.4469L31.6745 68.2589L30.6516 68.1799ZM30.3517 67.1849C30.4514 67.1365 30.5389 67.0665 30.6081 66.98C30.6773 66.8935 30.7263 66.7927 30.7517 66.6849L30.7795 66.2999L29.6945 66.2219C29.4831 66.1914 29.2674 66.2191 29.0705 66.3019C29.0014 66.3409 28.9437 66.3978 28.904 66.4666C28.8643 66.5353 28.8438 66.6135 28.8444 66.6929C28.8352 66.7762 28.8464 66.8605 28.8767 66.9386C28.9069 67.0168 28.9558 67.0865 29.0187 67.1419C29.1729 67.2683 29.3653 67.3388 29.5646 67.3419C29.8371 67.3692 30.1116 67.3145 30.3527 67.1849H30.3517Z" fill="white" stroke="white" stroke-width="0.3"/>
<path d="M36.7944 63.9832C37.123 64.2834 37.3197 64.7016 37.3408 65.1462L37.6118 67.8232L36.5625 67.9292L36.3228 65.5572C36.3165 65.4272 36.2839 65.2998 36.2275 65.1825C36.1712 65.0652 36.0922 64.9603 35.9946 64.8742C35.8936 64.7946 35.7772 64.7367 35.6528 64.704C35.5285 64.6713 35.3986 64.6646 35.2715 64.6842C35.1166 64.6946 34.9659 64.739 34.8301 64.8142C34.6943 64.8894 34.577 64.9935 34.4858 65.1192C34.3043 65.3863 34.2284 65.7114 34.2734 66.0312L34.4878 68.1382L33.4458 68.2442L33.0117 63.9572L34.0527 63.8512L34.1348 64.6512C34.2557 64.3628 34.4568 64.1152 34.7144 63.938C34.9719 63.7607 35.2749 63.6611 35.5874 63.6512C35.8006 63.6188 36.0186 63.6317 36.2266 63.6889C36.4345 63.7461 36.6277 63.8463 36.7944 63.9832V63.9832Z" fill="white" stroke="white" stroke-width="0.3"/>
<path d="M41.6436 66.5513C41.3822 66.8299 41.0474 67.0289 40.6777 67.1253C40.3575 67.2218 40.0118 67.1903 39.7144 67.0373C39.5627 66.9462 39.4326 66.8238 39.332 66.6783C39.2315 66.5327 39.1628 66.3674 39.1313 66.1933L38.5996 64.1343L38.0146 64.2853L37.8145 63.5463L38.4087 63.3943L38.1084 62.2473L39.1157 61.9873L39.4106 63.1343L40.6025 62.8263L40.7944 63.5673L39.6025 63.8753L40.0864 65.7543C40.1098 65.9031 40.1865 66.0384 40.3018 66.1353C40.3555 66.1667 40.4151 66.1863 40.4771 66.1925C40.539 66.1987 40.6017 66.1915 40.6606 66.1713C40.8645 66.104 41.0513 65.9935 41.2085 65.8473L41.6436 66.5513Z" fill="white" stroke="white" stroke-width="0.3"/>
<path d="M36.8561 15.3052C39.4841 16.3142 38.1072 19.0052 40.1452 20.0052C42.2522 21.0262 43.6609 18.6372 45.7209 20.1362C47.4939 22.3232 44.9559 23.9652 46.2209 25.8472C47.5359 27.7852 49.951 26.4202 50.985 28.7472C51.427 31.5292 48.4091 31.6812 48.5631 33.9472C48.7321 36.2832 51.5059 36.3092 51.2379 38.8412C50.2309 41.4712 47.5382 40.0942 46.5382 42.1302C45.5182 44.2382 47.9078 45.6462 46.4088 47.7062C44.2208 49.4792 42.5799 46.9422 40.6979 48.2062C38.7609 49.5212 40.124 51.9352 37.798 52.9692C35.018 53.4112 34.8658 50.3932 32.5978 50.5462C30.2628 50.7162 30.2378 53.4902 27.7038 53.2222C25.0758 52.2152 26.4532 49.5222 24.4162 48.5222C22.3082 47.5022 20.898 49.8912 18.84 48.3912C17.067 46.2052 19.604 44.5632 18.34 42.6812C17.026 40.7432 14.6098 42.1072 13.5768 39.7812C13.1348 37.0002 16.1532 36.8482 15.9982 34.5812C15.8292 32.2462 13.0549 32.2202 13.3229 29.6872C14.3309 27.0582 17.0231 28.4352 18.0231 26.3992C19.0441 24.2912 16.654 22.8822 18.154 20.8232C20.341 19.0502 21.9819 21.5872 23.8649 20.3232C25.8029 19.0082 24.4378 16.5932 26.7648 15.5602C29.5448 15.1182 29.697 18.1352 31.965 17.9822C34.3 17.8122 34.326 15.0392 36.859 15.3062L36.8561 15.3052Z" stroke="white" stroke-width="2" stroke-linecap="round" stroke-linejoin="round"/>
<path d="M34.2876 33.0996C34.9423 33.3778 35.5046 33.8362 35.9087 34.4216C36.2882 34.9889 36.4862 35.6581 36.4766 36.3406C36.492 37.113 36.2861 37.8737 35.8828 38.5326C35.4751 39.1728 34.8904 39.681 34.1997 39.9956C33.408 40.3547 32.5459 40.5317 31.6768 40.5136C30.858 40.505 30.0452 40.3701 29.2676 40.1136C28.4792 39.8745 27.7319 39.5171 27.0508 39.0536L27.9785 37.2136C28.4884 37.6144 29.0554 37.9366 29.6606 38.1696C30.2305 38.3928 30.8367 38.5088 31.4487 38.5116C32.1024 38.5476 32.7488 38.3592 33.2808 37.9776C33.5011 37.8045 33.6768 37.5814 33.7939 37.3269C33.9111 37.0723 33.9663 36.7936 33.9546 36.5136C33.9664 36.2458 33.9118 35.9792 33.7954 35.7377C33.679 35.4962 33.5044 35.2873 33.2876 35.1296C32.6953 34.7628 32.0027 34.5914 31.3076 34.6396C30.8876 34.6396 30.3336 34.6546 29.6426 34.6836C28.9516 34.7126 28.4205 34.7446 28.0425 34.7836V28.1416H35.9307V30.1916H30.2178V32.6276H31.8477C32.6853 32.6093 33.5172 32.7702 34.2876 33.0996V33.0996Z" fill="white"/>
<path d="M39.4746 34.2607H43.9216" stroke="white" stroke-linecap="round" stroke-linejoin="round"/>
<path d="M20.4043 34.2607H24.8513" stroke="white" stroke-linecap="round" stroke-linejoin="round"/>
<path d="M46.0026 60.8614L45.6371 66.0088C45.6117 66.4381 45.522 66.7687 45.3681 67.0006C45.2141 67.2326 44.9893 67.4024 44.6936 67.51C44.5032 67.5793 44.3143 67.614 44.1271 67.6141C43.9398 67.6141 43.7641 67.5759 43.6001 67.4994L43.7031 67.0107C43.9765 67.1382 44.2536 67.1509 44.5342 67.0487C44.7147 66.9831 44.8493 66.8773 44.9381 66.7315C45.0319 66.5838 45.0902 66.3696 45.1129 66.0889L45.1462 65.6426L41.9431 62.3389L42.4994 62.1364L45.211 64.955L45.4764 61.0529L46.0026 60.8614Z" fill="white"/>
</svg>
